{"glyphs":{"0":{"ha":794,"x_min":65,"x_max":728,"o":"m 728 497 q 710 281 728 376 q 652 121 692 186 q 549 21 612 55 q 396 -14 486 -14 q 210 47 283 -14 q 101 221 137 107 q 65 497 65 336 q 98 770 65 656 q 203 946 130 884 q 396 1007 276 1007 q 584 946 510 1007 q 693 771 657 886 q 728 497 728 657 m 202 497 q 221 277 202 365 q 283 145 240 189 q 396 101 326 101 q 510 144 467 101 q 572 276 553 188 q 591 497 591 364 q 572 715 591 627 q 510 847 553 803 q 396 892 468 892 q 282 847 324 892 q 221 715 239 803 q 202 497 202 627 z "},"1":{"ha":794,"x_min":115,"x_max":509,"o":"m 509 0 l 374 0 l 374 671 q 375 737 374 707 q 376 794 375 767 q 379 848 378 822 q 342 813 361 829 q 298 775 323 796 l 184 684 l 115 773 l 396 991 l 509 991 l 509 0 z "},"2":{"ha":794,"x_min":65,"x_max":726,"o":"m 726 0 l 65 0 l 65 107 l 326 372 q 450 504 401 448 q 524 614 499 561 q 549 730 549 667 q 504 848 549 808 q 383 889 458 889 q 261 864 315 889 q 148 793 206 840 l 75 884 q 161 946 115 918 q 264 989 208 973 q 387 1006 319 1006 q 548 973 480 1006 q 652 881 615 941 q 688 741 688 821 q 657 594 688 662 q 568 460 625 527 q 431 319 510 394 l 238 127 l 238 121 l 726 121 l 726 0 z "},"3":{"ha":794,"x_min":60,"x_max":719,"o":"m 689 763 q 663 647 689 696 q 589 566 636 597 q 481 522 543 535 l 481 517 q 659 442 599 503 q 719 283 719 382 q 678 130 719 197 q 553 24 637 62 q 336 -14 469 -14 q 189 -1 257 -14 q 60 41 121 12 l 60 165 q 194 116 122 134 q 332 99 266 99 q 518 149 462 99 q 575 288 575 199 q 545 383 575 346 q 454 437 514 420 q 304 455 394 455 l 212 455 l 212 568 l 306 568 q 443 590 389 568 q 524 652 497 612 q 550 745 550 692 q 504 853 550 815 q 375 892 458 892 q 281 881 323 892 q 202 851 239 869 q 132 810 166 833 l 65 904 q 198 976 120 946 q 378 1006 277 1006 q 610 939 530 1006 q 689 763 689 871 z "},"4":{"ha":794,"x_min":28,"x_max":768,"o":"m 768 224 l 627 224 l 627 0 l 494 0 l 494 224 l 28 224 l 28 332 l 491 996 l 627 996 l 627 341 l 768 341 l 768 224 m 494 341 l 494 626 q 494 691 494 660 q 496 749 495 722 q 499 801 498 777 q 501 845 500 825 l 496 845 q 467 789 483 818 q 433 734 451 760 l 159 341 l 494 341 z "},"5":{"ha":794,"x_min":84,"x_max":718,"o":"m 391 613 q 563 579 489 613 q 677 479 636 545 q 718 319 718 413 q 674 141 718 216 q 546 26 630 66 q 342 -14 462 -14 q 198 0 265 -14 q 84 41 131 14 l 84 166 q 205 119 134 137 q 342 101 276 101 q 467 123 414 101 q 549 191 520 146 q 578 307 578 237 q 521 449 578 399 q 340 499 463 499 q 250 492 298 499 q 171 477 202 485 l 107 516 l 145 991 l 650 991 l 650 870 l 263 870 l 240 597 q 302 608 265 602 q 391 613 340 613 z "},"6":{"ha":794,"x_min":71,"x_max":732,"o":"m 71 423 q 84 597 71 512 q 126 755 96 682 q 210 885 157 829 q 342 973 262 941 q 533 1005 421 1005 q 599 1002 563 1005 q 659 993 635 1000 l 659 878 q 602 890 633 886 q 538 895 570 895 q 341 843 412 895 q 239 704 270 792 q 204 506 209 616 l 212 506 q 264 566 232 539 q 341 609 296 593 q 446 625 386 625 q 597 590 533 625 q 697 486 662 554 q 732 321 732 418 q 694 143 732 218 q 584 27 655 68 q 413 -14 512 -14 q 277 14 340 -14 q 169 96 215 41 q 97 232 123 151 q 71 423 71 314 m 411 100 q 547 154 496 100 q 598 321 598 209 q 553 466 598 412 q 416 519 507 519 q 307 492 353 519 q 235 426 260 466 q 210 345 210 387 q 222 259 210 302 q 259 180 234 216 q 322 122 284 144 q 411 100 360 100 z "},"7":{"ha":794,"x_min":57,"x_max":730,"o":"m 186 0 l 585 870 l 57 870 l 57 991 l 730 991 l 730 894 l 334 0 l 186 0 z "},"8":{"ha":794,"x_min":64,"x_max":728,"o":"m 397 1006 q 550 979 482 1006 q 657 899 618 951 q 696 768 696 846 q 671 664 696 709 q 603 585 646 618 q 507 525 559 551 q 618 460 568 496 q 698 374 668 423 q 728 256 728 324 q 687 113 728 174 q 572 19 646 52 q 399 -14 498 -14 q 217 18 292 -14 q 103 109 142 50 q 64 252 64 168 q 93 371 64 320 q 168 457 121 421 q 271 519 215 494 q 183 581 222 547 q 120 662 143 616 q 96 770 96 709 q 136 898 96 846 q 244 978 176 951 q 397 1006 313 1006 m 196 254 q 246 138 196 184 q 396 93 296 93 q 544 138 492 93 q 596 257 596 183 q 571 339 596 304 q 503 402 547 374 q 402 454 459 431 l 379 463 q 281 409 321 438 q 218 341 240 379 q 196 254 196 304 m 395 898 q 276 863 322 898 q 229 762 229 827 q 252 681 229 714 q 313 624 275 648 q 400 580 352 600 q 483 624 446 600 q 542 682 520 648 q 563 762 563 715 q 516 863 563 828 q 395 898 470 898 z "},"9":{"ha":794,"x_min":64,"x_max":726,"o":"m 726 569 q 713 395 726 480 q 670 236 701 310 q 587 105 640 161 q 454 18 534 50 q 263 -14 374 -14 q 196 -11 234 -14 q 134 -1 158 -7 l 134 115 q 193 101 159 106 q 258 96 226 96 q 455 147 384 96 q 557 286 526 198 q 592 485 588 374 l 584 485 q 532 425 564 452 q 456 382 501 398 q 347 366 410 366 q 198 401 262 366 q 99 505 134 437 q 64 669 64 572 q 103 848 64 772 q 214 964 142 924 q 384 1005 286 1005 q 520 978 458 1005 q 629 896 583 950 q 700 759 675 841 q 726 569 726 677 m 385 891 q 250 837 302 891 q 199 671 199 782 q 243 525 199 578 q 380 472 288 472 q 490 498 444 472 q 562 564 536 524 q 587 646 587 604 q 575 731 587 688 q 538 811 563 774 q 475 869 513 847 q 385 891 437 891 z "},"\u0000":{"ha":0,"x_min":0,"x_max":0,"o":""},"\r":{"ha":361,"x_min":0,"x_max":0,"o":""}," ":{"ha":361,"x_min":0,"x_max":0,"o":""},"!":{"ha":374,"x_min":96,"x_max":277,"o":"m 236 289 l 139 289 l 107 991 l 268 991 l 236 289 m 96 77 q 122 150 96 129 q 186 172 149 172 q 250 150 224 172 q 277 77 277 129 q 250 4 277 27 q 186 -19 224 -19 q 122 4 149 -19 q 96 77 96 27 z "},"\"":{"ha":579,"x_min":92,"x_max":488,"o":"m 230 991 l 204 633 l 117 633 l 92 991 l 230 991 m 488 991 l 462 633 l 375 633 l 349 991 l 488 991 z "},"#":{"ha":897,"x_min":34,"x_max":863,"o":"m 668 600 l 627 388 l 814 388 l 814 289 l 608 289 l 551 0 l 446 0 l 502 289 l 314 289 l 259 0 l 155 0 l 208 289 l 34 289 l 34 388 l 227 388 l 269 600 l 85 600 l 85 699 l 287 699 l 342 991 l 449 991 l 394 699 l 584 699 l 639 991 l 743 991 l 687 699 l 863 699 l 863 600 l 668 600 m 332 388 l 521 388 l 562 600 l 374 600 l 332 388 z "},"$":{"ha":794,"x_min":79,"x_max":718,"o":"m 351 -81 l 351 60 q 200 75 271 62 q 81 109 129 87 l 81 236 q 205 195 130 213 q 351 175 280 177 l 351 451 q 198 515 258 481 q 109 596 138 549 q 79 710 79 643 q 113 829 79 779 q 209 907 147 878 q 351 940 270 935 l 351 1054 l 437 1054 l 437 942 q 572 925 511 939 q 689 888 634 911 l 646 777 q 544 810 598 797 q 437 827 490 823 l 437 555 q 587 497 524 528 q 684 421 650 467 q 718 303 718 376 q 645 141 718 203 q 437 65 572 78 l 437 -81 l 351 -81 m 437 180 q 548 218 511 189 q 584 295 584 247 q 569 350 584 328 q 523 389 555 372 q 437 421 490 406 l 437 180 m 351 585 l 351 824 q 276 807 307 821 q 229 770 245 793 q 214 717 214 748 q 227 659 214 682 q 271 617 241 635 q 351 585 302 600 z "},"%":{"ha":1174,"x_min":62,"x_max":1112,"o":"m 272 1006 q 432 925 378 1006 q 487 696 487 844 q 434 466 487 548 q 272 383 382 383 q 116 466 170 383 q 62 696 62 548 q 114 925 62 844 q 272 1006 165 1006 m 273 910 q 200 857 223 910 q 176 696 176 803 q 200 534 176 588 q 273 479 223 479 q 348 534 323 479 q 373 696 373 588 q 349 856 373 802 q 273 910 324 910 m 919 991 l 369 0 l 254 0 l 804 991 l 919 991 m 897 609 q 1057 528 1002 609 q 1112 299 1112 446 q 1059 70 1112 152 q 897 -13 1006 -13 q 741 70 795 -13 q 688 299 688 152 q 739 528 688 446 q 897 609 789 609 m 897 512 q 825 459 848 512 q 802 298 802 406 q 825 137 802 191 q 897 83 848 83 q 973 136 948 83 q 998 298 998 190 q 974 459 998 406 q 897 512 949 512 z "},"&":{"ha":1019,"x_min":71,"x_max":1014,"o":"m 425 1007 q 555 982 500 1007 q 641 908 610 956 q 672 793 672 861 q 615 641 672 703 q 471 529 557 579 l 725 282 q 783 382 760 326 q 822 502 806 438 l 961 502 q 904 336 939 415 q 814 196 868 258 l 1014 0 l 836 0 l 724 109 q 633 45 682 73 q 525 2 584 17 q 394 -14 467 -14 q 222 19 294 -14 q 110 112 149 51 q 71 260 71 173 q 96 383 71 332 q 168 474 121 434 q 279 550 214 513 q 220 623 247 587 q 178 700 193 659 q 162 788 162 740 q 195 905 162 857 q 286 981 227 954 q 425 1007 345 1007 m 361 465 q 281 410 315 437 q 231 349 248 382 q 214 268 214 315 q 265 149 214 193 q 400 104 316 104 q 538 130 480 104 q 639 193 597 156 l 361 465 m 421 897 q 330 869 366 897 q 293 785 293 840 q 318 697 293 738 q 389 608 344 656 q 504 692 468 652 q 541 788 541 733 q 507 868 541 838 q 421 897 473 897 z "},"'":{"ha":321,"x_min":92,"x_max":230,"o":"m 230 991 l 204 633 l 117 633 l 92 991 l 230 991 z "},"(":{"ha":425,"x_min":56,"x_max":383,"o":"m 56 380 q 78 603 56 495 q 145 810 100 711 q 260 991 191 909 l 383 991 q 236 705 286 863 q 186 382 186 548 q 209 168 186 274 q 274 -35 231 62 q 382 -220 318 -133 l 260 -220 q 145 -42 191 -138 q 78 161 100 54 q 56 380 56 268 z "},")":{"ha":425,"x_min":42,"x_max":370,"o":"m 370 382 q 348 161 370 269 q 280 -42 326 54 q 165 -220 235 -139 l 43 -220 q 151 -35 108 -134 q 217 169 195 63 q 239 382 239 274 q 216 600 239 493 q 151 806 194 707 q 42 991 107 905 l 165 991 q 280 810 235 908 q 348 603 326 711 q 370 382 370 495 z "},"*":{"ha":763,"x_min":56,"x_max":705,"o":"m 448 1055 l 422 791 l 686 867 l 705 735 l 454 711 l 616 496 l 496 430 l 377 664 l 269 431 l 144 496 l 304 711 l 56 736 l 77 867 l 336 791 l 310 1055 l 448 1055 z "},"+":{"ha":794,"x_min":67,"x_max":724,"o":"m 450 543 l 724 543 l 724 437 l 450 437 l 450 155 l 342 155 l 342 437 l 67 437 l 67 543 l 342 543 l 342 825 l 450 825 l 450 543 z "},",":{"ha":369,"x_min":53,"x_max":270,"o":"m 261 161 l 270 146 q 239 40 258 96 q 198 -73 220 -16 q 153 -179 176 -129 l 53 -179 q 80 -64 67 -125 q 105 54 94 -4 q 123 161 116 113 l 261 161 z "},"-":{"ha":447,"x_min":52,"x_max":395,"o":"m 52 314 l 52 432 l 395 432 l 395 314 l 52 314 z "},".":{"ha":373,"x_min":96,"x_max":277,"o":"m 96 77 q 122 150 96 129 q 186 172 149 172 q 250 150 224 172 q 277 77 277 129 q 250 4 277 27 q 186 -19 224 -19 q 122 4 149 -19 q 96 77 96 27 z "},"/":{"ha":526,"x_min":13,"x_max":513,"o":"m 513 991 l 144 0 l 13 0 l 382 991 l 513 991 z "},":":{"ha":373,"x_min":96,"x_max":277,"o":"m 96 77 q 122 150 96 129 q 186 172 149 172 q 250 150 224 172 q 277 77 277 129 q 250 4 277 27 q 186 -19 224 -19 q 122 4 149 -19 q 96 77 96 27 m 96 669 q 122 742 96 721 q 186 764 149 764 q 250 742 224 764 q 277 669 277 721 q 250 596 277 618 q 186 574 224 574 q 122 596 149 574 q 96 669 96 618 z "},";":{"ha":373,"x_min":44,"x_max":275,"o":"m 252 161 l 262 146 q 231 40 250 97 q 190 -73 212 -16 q 145 -179 168 -129 l 44 -179 q 71 -65 58 -125 q 96 54 85 -5 q 115 161 108 113 l 252 161 m 94 669 q 120 742 94 721 q 184 764 146 764 q 249 742 222 764 q 275 669 275 721 q 249 596 275 618 q 184 574 222 574 q 120 596 146 574 q 94 669 94 618 z "},"<":{"ha":794,"x_min":67,"x_max":725,"o":"m 725 158 l 67 449 l 67 522 l 725 848 l 725 732 l 212 490 l 725 273 l 725 158 z "},"=":{"ha":794,"x_min":73,"x_max":719,"o":"m 73 573 l 73 679 l 719 679 l 719 573 l 73 573 m 73 299 l 73 405 l 719 405 l 719 299 l 73 299 z "},">":{"ha":794,"x_min":67,"x_max":725,"o":"m 67 273 l 582 490 l 67 732 l 67 848 l 725 522 l 725 449 l 67 158 l 67 273 z "},"?":{"ha":615,"x_min":17,"x_max":578,"o":"m 193 289 l 193 328 q 204 418 193 380 q 241 490 215 456 q 313 560 267 524 q 393 630 363 601 q 436 688 422 659 q 449 758 449 718 q 407 856 449 822 q 288 890 364 890 q 169 872 222 890 q 65 830 116 855 l 17 935 q 144 986 75 966 q 296 1006 213 1006 q 505 940 431 1006 q 578 762 578 874 q 559 657 578 701 q 502 576 539 613 q 413 499 465 540 q 346 436 370 463 q 314 382 323 410 q 306 316 306 355 l 306 289 l 193 289 m 165 77 q 191 150 165 129 q 256 172 216 172 q 319 150 292 172 q 345 77 345 129 q 319 4 345 27 q 256 -19 292 -19 q 191 4 216 -19 q 165 77 165 27 z "},"@":{"ha":1245,"x_min":77,"x_max":1168,"o":"m 1168 496 q 1154 370 1168 431 q 1109 258 1139 308 q 1034 179 1079 209 q 927 150 989 150 q 829 183 867 150 q 782 264 791 217 l 775 264 q 700 183 749 216 q 580 150 650 150 q 410 221 469 150 q 350 410 350 292 q 387 572 350 502 q 492 683 425 643 q 653 724 560 724 q 775 713 715 724 q 870 690 835 703 l 857 414 q 855 378 856 391 q 854 357 854 364 q 878 264 854 288 q 935 241 902 241 q 1005 275 977 241 q 1048 368 1034 310 q 1063 496 1063 426 q 1013 712 1063 623 q 872 848 962 801 q 667 895 783 895 q 461 858 551 895 q 310 754 372 821 q 216 596 248 688 q 184 395 184 505 q 233 166 184 260 q 374 22 281 71 q 602 -27 467 -27 q 763 -9 684 -27 q 906 34 842 9 l 906 -65 q 768 -107 844 -91 q 603 -123 692 -123 q 320 -62 437 -123 q 140 115 202 -1 q 77 391 77 230 q 118 630 77 521 q 235 821 159 740 q 421 946 312 901 q 667 991 530 991 q 926 931 813 991 q 1104 760 1040 871 q 1168 496 1168 649 m 465 408 q 500 281 465 321 q 596 241 534 241 q 707 298 672 241 q 747 448 742 355 l 755 618 q 711 628 737 624 q 656 631 685 631 q 545 599 587 631 q 484 516 503 567 q 465 408 465 465 z "},"A":{"ha":899,"x_min":0,"x_max":897,"o":"m 751 0 l 642 295 l 253 295 l 144 0 l 0 0 l 378 996 l 521 996 l 897 0 l 751 0 m 603 416 l 498 708 q 484 753 494 723 q 464 814 474 783 q 448 867 454 846 q 433 809 441 840 q 415 751 424 778 q 401 708 407 724 l 296 416 l 603 416 z "},"B":{"ha":906,"x_min":133,"x_max":831,"o":"m 133 991 l 420 991 q 705 936 610 991 q 801 745 801 880 q 780 642 801 688 q 719 567 759 597 q 621 526 679 537 l 621 519 q 729 483 682 509 q 804 408 777 456 q 831 283 831 359 q 789 129 831 193 q 668 33 746 66 q 481 0 589 0 l 133 0 l 133 991 m 272 574 l 445 574 q 611 614 565 574 q 657 728 657 653 q 602 841 657 806 q 428 875 547 875 l 272 875 l 272 574 m 272 460 l 272 117 l 461 117 q 634 165 584 117 q 685 295 685 214 q 662 384 685 347 q 589 440 640 420 q 452 460 538 460 l 272 460 z "},"C":{"ha":878,"x_min":84,"x_max":833,"o":"m 556 886 q 419 859 479 886 q 316 781 358 832 q 252 658 274 730 q 229 496 229 586 q 265 288 229 376 q 372 153 300 201 q 553 106 444 106 q 678 118 618 106 q 796 149 737 130 l 796 29 q 679 -3 739 7 q 536 -14 618 -14 q 284 50 385 -14 q 134 227 183 113 q 84 496 84 341 q 115 702 84 609 q 207 864 146 795 q 355 969 267 932 q 557 1006 443 1006 q 703 990 632 1006 q 833 945 774 974 l 782 829 q 676 869 732 852 q 556 886 619 886 z "},"D":{"ha":1013,"x_min":133,"x_max":929,"o":"m 929 505 q 867 225 929 338 q 689 57 806 113 q 405 0 572 0 l 133 0 l 133 991 l 435 991 q 698 936 587 991 q 869 773 808 881 q 929 505 929 665 m 783 501 q 742 711 783 629 q 621 834 701 794 q 425 875 541 875 l 272 875 l 272 118 l 400 118 q 688 214 592 118 q 783 501 783 311 z "},"E":{"ha":773,"x_min":133,"x_max":690,"o":"m 690 0 l 133 0 l 133 991 l 690 991 l 690 872 l 272 872 l 272 577 l 665 577 l 665 459 l 272 459 l 272 120 l 690 120 l 690 0 z "},"F":{"ha":728,"x_min":133,"x_max":689,"o":"m 271 0 l 133 0 l 133 991 l 689 991 l 689 872 l 271 872 l 271 536 l 663 536 l 663 417 l 271 417 l 271 0 z "},"G":{"ha":1009,"x_min":84,"x_max":903,"o":"m 545 529 l 903 529 l 903 40 q 743 0 825 14 q 557 -14 660 -14 q 298 47 404 -14 q 139 222 193 109 q 84 496 84 336 q 144 765 84 650 q 320 943 205 880 q 598 1006 435 1006 q 754 990 680 1006 q 892 947 829 975 l 842 829 q 725 870 789 853 q 593 886 661 886 q 397 838 479 886 q 272 703 315 790 q 228 495 228 615 q 264 290 228 378 q 379 154 301 203 q 580 105 457 105 q 685 112 642 105 q 766 128 729 119 l 766 408 l 545 408 l 545 529 z "},"H":{"ha":1034,"x_min":133,"x_max":900,"o":"m 900 0 l 761 0 l 761 458 l 272 458 l 272 0 l 133 0 l 133 991 l 272 991 l 272 578 l 761 578 l 761 991 l 900 991 l 900 0 z "},"I":{"ha":406,"x_min":133,"x_max":272,"o":"m 133 0 l 133 991 l 272 991 l 272 0 l 133 0 z "},"J":{"ha":395,"x_min":-109,"x_max":268,"o":"m 0 -269 q -63 -264 -36 -269 q -109 -252 -90 -259 l -109 -134 q -62 -144 -87 -140 q -9 -149 -37 -149 q 60 -134 29 -149 q 110 -82 92 -119 q 128 20 128 -45 l 128 991 l 268 991 l 268 26 q 235 -140 268 -75 q 142 -237 202 -205 q 0 -269 81 -269 z "},"K":{"ha":869,"x_min":133,"x_max":869,"o":"m 869 0 l 707 0 l 374 466 l 272 379 l 272 0 l 133 0 l 133 991 l 272 991 l 272 507 q 342 588 307 548 q 413 669 378 628 l 697 991 l 857 991 l 474 559 l 869 0 z "},"L":{"ha":740,"x_min":133,"x_max":703,"o":"m 133 0 l 133 991 l 272 991 l 272 121 l 703 121 l 703 0 l 133 0 z "},"M":{"ha":1264,"x_min":133,"x_max":1131,"o":"m 565 0 l 256 852 l 250 852 q 255 781 252 825 q 259 686 257 737 q 260 585 260 635 l 260 0 l 133 0 l 133 991 l 333 991 l 627 184 l 631 184 l 932 991 l 1131 991 l 1131 0 l 997 0 l 997 593 q 998 687 997 638 q 1002 779 1000 735 q 1006 851 1004 823 l 1000 851 l 684 0 l 565 0 z "},"N":{"ha":1067,"x_min":133,"x_max":935,"o":"m 935 0 l 768 0 l 254 812 l 249 812 q 254 732 251 776 q 258 641 256 688 q 260 544 260 593 l 260 0 l 133 0 l 133 991 l 298 991 l 810 183 l 814 183 q 811 257 813 213 q 807 350 809 301 q 806 444 806 399 l 806 991 l 935 991 l 935 0 z "},"O":{"ha":1086,"x_min":84,"x_max":1003,"o":"m 1003 497 q 974 289 1003 382 q 887 127 945 195 q 744 23 830 60 q 544 -14 659 -14 q 341 23 427 -14 q 197 127 254 60 q 112 290 140 195 q 84 498 84 384 q 134 766 84 651 q 287 944 184 880 q 546 1007 390 1007 q 798 944 696 1007 q 951 767 900 881 q 1003 497 1003 652 m 230 497 q 263 289 230 376 q 367 153 297 201 q 544 105 436 105 q 722 153 653 105 q 824 289 791 201 q 857 497 857 376 q 782 784 857 680 q 546 887 707 887 q 368 840 437 887 q 264 706 298 793 q 230 497 230 618 z "},"P":{"ha":845,"x_min":133,"x_max":775,"o":"m 406 991 q 687 915 598 991 q 775 697 775 838 q 755 576 775 633 q 689 475 734 519 q 568 406 643 431 q 385 380 494 380 l 272 380 l 272 0 l 133 0 l 133 991 l 406 991 m 395 875 l 272 875 l 272 498 l 370 498 q 515 517 456 498 q 603 579 573 536 q 633 692 633 622 q 575 829 633 784 q 395 875 517 875 z "},"Q":{"ha":1086,"x_min":84,"x_max":1003,"o":"m 1003 497 q 971 281 1003 378 q 877 116 940 184 q 721 14 814 47 l 956 -236 l 764 -236 l 575 -12 q 559 -13 567 -12 q 544 -14 552 -14 q 341 23 427 -14 q 197 127 254 60 q 112 290 140 195 q 84 498 84 384 q 134 766 84 651 q 287 944 184 880 q 546 1007 390 1007 q 798 944 696 1007 q 951 767 900 881 q 1003 497 1003 652 m 230 497 q 263 289 230 376 q 367 153 297 201 q 544 105 436 105 q 722 153 653 105 q 824 289 791 201 q 857 497 857 376 q 782 784 857 680 q 546 887 707 887 q 368 840 437 887 q 264 706 298 793 q 230 497 230 618 z "},"R":{"ha":872,"x_min":133,"x_max":855,"o":"m 406 991 q 613 961 532 991 q 735 867 695 930 q 775 708 775 804 q 747 580 775 632 q 674 494 720 528 q 578 442 629 461 l 855 0 l 696 0 l 454 406 l 272 406 l 272 0 l 133 0 l 133 991 l 406 991 m 397 873 l 272 873 l 272 522 l 407 522 q 578 567 524 522 q 633 703 633 613 q 575 834 633 795 q 397 873 517 873 z "},"S":{"ha":762,"x_min":69,"x_max":699,"o":"m 699 267 q 655 116 699 178 q 532 20 612 53 q 344 -14 453 -14 q 239 -8 289 -14 q 146 9 189 -2 q 69 36 104 20 l 69 168 q 199 124 125 144 q 352 104 273 104 q 467 123 420 104 q 537 176 513 142 q 561 257 561 210 q 538 337 561 304 q 465 396 515 369 q 334 454 415 423 q 232 500 278 474 q 152 560 186 526 q 100 640 119 594 q 82 745 82 686 q 122 886 82 827 q 235 975 163 944 q 404 1006 308 1006 q 550 990 482 1006 q 680 947 618 975 l 636 832 q 520 871 578 856 q 399 886 462 886 q 302 869 342 886 q 242 821 262 852 q 221 747 221 789 q 243 667 221 699 q 311 609 264 635 q 433 554 358 583 q 577 485 518 522 q 668 397 637 448 q 699 267 699 345 z "},"T":{"ha":775,"x_min":16,"x_max":758,"o":"m 457 0 l 317 0 l 317 871 l 16 871 l 16 991 l 758 991 l 758 871 l 457 871 l 457 0 z "},"U":{"ha":1022,"x_min":123,"x_max":897,"o":"m 897 991 l 897 350 q 854 163 897 245 q 724 34 811 81 q 506 -14 637 -14 q 221 86 319 -14 q 123 353 123 186 l 123 991 l 263 991 l 263 358 q 326 169 263 233 q 513 105 389 105 q 652 136 598 105 q 733 223 707 167 q 759 358 759 280 l 759 991 l 897 991 z "},"V":{"ha":847,"x_min":0,"x_max":847,"o":"m 847 991 l 496 0 l 351 0 l 0 991 l 144 991 l 364 354 q 387 284 376 321 q 408 210 398 247 q 423 143 417 174 q 438 210 429 174 q 459 284 448 247 q 482 356 471 322 l 702 991 l 847 991 z "},"W":{"ha":1297,"x_min":16,"x_max":1282,"o":"m 1282 991 l 1021 0 l 873 0 l 692 631 q 677 685 685 656 q 663 743 670 714 q 651 795 656 772 q 644 830 646 818 q 638 795 643 818 q 628 744 634 772 q 614 686 622 715 q 600 630 607 656 l 422 0 l 276 0 l 16 991 l 157 991 l 309 390 q 323 329 316 360 q 336 268 330 298 q 347 208 342 237 q 356 153 352 179 q 365 210 359 180 q 377 271 370 240 q 391 333 383 302 q 406 391 398 363 l 576 991 l 715 991 l 890 388 q 906 328 899 359 q 921 266 914 297 q 932 206 927 235 q 941 153 937 178 q 953 227 946 187 q 970 308 960 266 q 989 391 979 350 l 1140 991 l 1282 991 z "},"X":{"ha":833,"x_min":3,"x_max":830,"o":"m 830 0 l 671 0 l 413 421 l 151 0 l 3 0 l 333 515 l 26 991 l 180 991 l 419 606 l 658 991 l 806 991 l 498 514 l 830 0 z "},"Y":{"ha":799,"x_min":0,"x_max":799,"o":"m 400 517 l 650 991 l 799 991 l 469 385 l 469 0 l 330 0 l 330 379 l 0 991 l 152 991 l 400 517 z "},"Z":{"ha":798,"x_min":48,"x_max":749,"o":"m 749 0 l 48 0 l 48 99 l 567 871 l 65 871 l 65 991 l 735 991 l 735 892 l 216 121 l 749 121 l 749 0 z "},"[":{"ha":456,"x_min":109,"x_max":421,"o":"m 421 -220 l 109 -220 l 109 991 l 421 991 l 421 886 l 235 886 l 235 -114 l 421 -114 l 421 -220 z "},"\\":{"ha":526,"x_min":13,"x_max":513,"o":"m 143 991 l 513 0 l 382 0 l 13 991 l 143 991 z "},"]":{"ha":456,"x_min":35,"x_max":348,"o":"m 35 -114 l 220 -114 l 220 886 l 35 886 l 35 991 l 348 991 l 348 -220 l 35 -220 l 35 -114 z "},"^":{"ha":794,"x_min":49,"x_max":746,"o":"m 49 368 l 347 998 l 420 998 l 746 368 l 630 368 l 385 856 l 165 368 l 49 368 z "},"_":{"ha":599,"x_min":-3,"x_max":602,"o":"m 602 -211 l -3 -211 l -3 -125 l 602 -125 l 602 -211 z "},"`":{"ha":414,"x_min":56,"x_max":359,"o":"m 214 1064 q 257 995 232 1033 q 310 920 282 956 q 359 859 337 884 l 359 842 l 268 842 q 212 888 243 861 q 151 946 182 916 q 96 1003 121 976 q 56 1050 71 1031 l 56 1064 l 214 1064 z "},"a":{"ha":789,"x_min":62,"x_max":677,"o":"m 402 760 q 609 699 541 760 q 677 505 677 637 l 677 0 l 580 0 l 553 109 l 548 109 q 483 41 517 68 q 405 0 449 14 q 296 -14 360 -14 q 176 11 229 -14 q 93 84 123 35 q 62 210 62 134 q 150 382 62 323 q 415 447 237 441 l 544 452 l 544 494 q 505 618 544 582 q 396 654 466 654 q 286 637 338 654 q 184 597 233 621 l 140 696 q 261 742 193 724 q 402 760 328 760 m 543 363 l 438 358 q 256 315 309 353 q 203 208 203 277 q 239 121 203 149 q 334 93 275 93 q 484 144 425 93 q 543 296 543 195 l 543 363 z "},"b":{"ha":857,"x_min":116,"x_max":783,"o":"m 252 1055 l 252 796 q 250 709 252 751 q 245 643 248 666 l 252 643 q 339 726 283 692 q 483 760 395 760 q 701 663 619 760 q 783 374 783 566 q 746 161 783 248 q 640 31 708 75 q 479 -14 572 -14 q 338 19 392 -14 q 253 96 283 51 l 243 96 l 217 0 l 116 0 l 116 1055 l 252 1055 m 452 648 q 335 619 378 648 q 272 531 291 590 q 252 382 253 472 l 252 372 q 296 169 252 239 q 453 98 339 98 q 595 170 547 98 q 644 376 644 242 q 595 580 644 511 q 452 648 547 648 z "},"c":{"ha":677,"x_min":74,"x_max":633,"o":"m 416 -14 q 236 28 313 -14 q 116 154 159 69 q 74 370 74 239 q 119 592 74 505 q 245 720 165 678 q 429 761 326 761 q 544 749 490 761 q 633 718 597 736 l 592 608 q 510 634 554 623 q 427 646 467 646 q 308 614 355 646 q 237 522 261 583 q 214 371 214 460 q 237 224 214 284 q 306 133 260 164 q 420 102 352 102 q 529 115 481 102 q 618 150 577 129 l 618 30 q 531 -3 578 8 q 416 -14 484 -14 z "},"d":{"ha":857,"x_min":74,"x_max":741,"o":"m 374 -14 q 156 83 237 -14 q 74 371 74 180 q 157 662 74 564 q 378 761 240 761 q 479 745 435 761 q 554 704 522 730 q 606 646 585 678 l 614 646 q 608 705 611 667 q 604 771 604 743 l 604 1055 l 741 1055 l 741 0 l 633 0 l 610 104 l 604 104 q 552 44 584 71 q 477 2 521 18 q 374 -14 433 -14 m 406 98 q 563 161 517 98 q 609 351 608 225 l 609 372 q 565 577 609 505 q 405 648 522 648 q 262 574 310 648 q 214 368 214 500 q 262 168 214 238 q 406 98 310 98 z "},"e":{"ha":790,"x_min":74,"x_max":721,"o":"m 409 761 q 576 719 507 761 q 684 602 646 677 q 721 422 721 526 l 721 345 l 214 345 q 275 161 216 225 q 443 97 335 97 q 570 111 514 97 q 685 151 625 124 l 685 36 q 572 -2 629 10 q 437 -14 515 -14 q 247 30 328 -14 q 119 158 165 73 q 74 368 74 243 q 115 579 74 492 q 232 714 157 667 q 409 761 307 761 m 408 655 q 275 601 326 655 q 216 447 225 547 l 584 447 q 564 555 583 509 q 507 629 545 602 q 408 655 469 655 z "},"f":{"ha":485,"x_min":22,"x_max":548,"o":"m 469 642 l 286 642 l 286 0 l 149 0 l 149 642 l 22 642 l 22 708 l 149 749 l 149 801 q 178 952 149 895 q 262 1036 208 1010 q 395 1063 317 1063 q 480 1055 441 1063 q 548 1036 519 1046 l 513 932 q 461 946 490 939 q 401 952 433 952 q 314 914 342 952 q 286 800 286 876 l 286 747 l 469 747 l 469 642 z "},"g":{"ha":762,"x_min":17,"x_max":737,"o":"m 328 -334 q 97 -279 178 -334 q 17 -125 17 -224 q 61 -7 17 -56 q 184 58 105 41 q 133 100 155 72 q 112 163 112 128 q 135 235 112 205 q 205 294 159 265 q 111 375 146 318 q 75 507 75 431 q 109 645 75 588 q 208 732 143 702 q 364 762 272 762 q 406 760 385 762 q 448 755 428 758 q 479 748 467 751 l 737 748 l 737 667 l 604 647 q 636 586 624 621 q 648 509 648 551 q 571 329 648 395 q 356 262 493 262 q 292 268 324 263 q 248 231 262 251 q 233 185 233 211 q 246 153 233 165 q 284 135 259 141 q 345 130 309 130 l 475 130 q 663 78 597 130 q 728 -73 728 26 q 625 -266 728 -198 q 328 -334 522 -334 m 332 -234 q 478 -216 420 -234 q 567 -166 537 -199 q 597 -89 597 -134 q 577 -27 597 -48 q 520 2 558 -5 q 427 9 482 9 l 303 9 q 220 -5 256 9 q 165 -48 185 -20 q 146 -118 146 -77 q 194 -204 146 -174 q 332 -234 243 -234 m 362 355 q 475 395 437 355 q 512 509 512 435 q 474 628 512 588 q 361 668 436 668 q 251 627 289 668 q 212 507 212 586 q 251 395 212 435 q 362 355 290 355 z "},"h":{"ha":867,"x_min":116,"x_max":756,"o":"m 252 1055 l 252 765 q 250 697 252 730 q 245 642 248 664 l 254 642 q 312 707 277 681 q 392 746 347 733 q 486 760 436 760 q 633 731 573 760 q 725 643 694 703 q 756 487 756 583 l 756 0 l 621 0 l 621 469 q 582 603 621 558 q 461 648 543 648 q 338 617 384 648 q 272 527 292 587 q 252 380 252 467 l 252 0 l 116 0 l 116 1055 l 252 1055 z "},"i":{"ha":369,"x_min":106,"x_max":264,"o":"m 252 747 l 252 0 l 116 0 l 116 747 l 252 747 m 185 1030 q 241 1011 218 1030 q 264 949 264 992 q 241 887 264 907 q 185 868 218 868 q 129 887 152 868 q 106 949 106 907 q 129 1011 106 992 q 185 1030 152 1030 z "},"j":{"ha":369,"x_min":-79,"x_max":264,"o":"m 34 -334 q -30 -329 -1 -334 q -79 -317 -58 -323 l -79 -208 q -35 -218 -57 -214 q 14 -221 -14 -221 q 87 -196 59 -221 q 116 -103 116 -171 l 116 747 l 252 747 l 252 -109 q 230 -227 252 -176 q 158 -306 207 -278 q 34 -334 110 -334 m 106 949 q 129 1011 106 992 q 185 1030 152 1030 q 241 1011 218 1030 q 264 949 264 992 q 241 887 264 907 q 185 868 218 868 q 129 887 152 868 q 106 949 106 907 z "},"k":{"ha":763,"x_min":116,"x_max":755,"o":"m 252 1055 l 252 526 q 249 455 252 495 q 245 382 247 416 l 250 382 q 291 436 265 403 q 338 492 317 469 l 576 747 l 734 747 l 434 427 l 755 0 l 593 0 l 342 341 l 252 261 l 252 0 l 116 0 l 116 1055 l 252 1055 z "},"l":{"ha":369,"x_min":116,"x_max":253,"o":"m 253 0 l 116 0 l 116 1055 l 253 1055 l 253 0 z "},"m":{"ha":1305,"x_min":116,"x_max":1195,"o":"m 944 761 q 1132 696 1068 761 q 1195 489 1195 631 l 1195 0 l 1060 0 l 1060 472 q 1024 604 1060 560 q 916 648 987 648 q 769 587 814 648 q 724 407 724 526 l 724 0 l 588 0 l 588 472 q 572 570 588 531 q 524 629 555 609 q 443 648 492 648 q 331 618 373 648 q 271 529 290 588 q 252 385 252 470 l 252 0 l 116 0 l 116 747 l 224 747 l 243 644 l 251 644 q 308 709 273 683 q 384 748 342 734 q 473 761 426 761 q 614 730 557 761 q 699 637 672 700 l 708 637 q 807 731 744 701 q 944 761 871 761 z "},"n":{"ha":867,"x_min":116,"x_max":756,"o":"m 488 761 q 687 696 617 761 q 756 487 756 631 l 756 0 l 621 0 l 621 469 q 582 603 621 558 q 461 648 543 648 q 299 580 345 648 q 252 381 252 511 l 252 0 l 116 0 l 116 747 l 224 747 l 243 642 l 251 642 q 311 708 275 682 q 393 748 348 734 q 488 761 438 761 z "},"o":{"ha":842,"x_min":74,"x_max":769,"o":"m 769 375 q 745 211 769 283 q 675 89 721 138 q 565 13 629 39 q 419 -14 500 -14 q 280 13 343 -14 q 170 89 216 39 q 99 211 124 138 q 74 375 74 283 q 116 584 74 498 q 236 716 158 671 q 423 761 315 761 q 604 715 526 761 q 726 584 682 670 q 769 375 769 498 m 214 375 q 236 227 214 289 q 303 132 258 165 q 422 98 349 98 q 539 132 493 98 q 607 227 585 165 q 629 375 629 289 q 607 522 629 460 q 539 615 585 583 q 420 648 494 648 q 263 576 313 648 q 214 375 214 505 z "},"p":{"ha":857,"x_min":116,"x_max":783,"o":"m 484 761 q 702 664 620 761 q 783 376 783 568 q 746 162 783 248 q 640 31 708 75 q 480 -14 572 -14 q 379 2 422 -14 q 305 42 336 17 q 253 97 274 68 l 244 97 q 250 36 247 71 q 253 -27 253 1 l 253 -332 l 116 -332 l 116 747 l 228 747 l 246 640 l 253 640 q 305 701 274 673 q 380 745 336 728 q 484 761 424 761 m 452 648 q 337 620 380 648 q 274 536 294 592 q 253 397 254 481 l 253 375 q 272 224 253 286 q 335 131 291 163 q 454 98 379 98 q 560 133 517 98 q 623 231 602 168 q 644 377 644 294 q 597 576 644 504 q 452 648 550 648 z "},"q":{"ha":857,"x_min":73,"x_max":740,"o":"m 604 -332 l 604 -14 q 605 46 604 13 q 610 105 607 79 l 603 105 q 516 21 572 55 q 371 -14 460 -14 q 155 83 237 -14 q 73 372 73 180 q 111 585 73 498 q 217 716 149 672 q 376 761 286 761 q 519 727 464 761 q 606 643 574 692 l 612 643 l 629 747 l 740 747 l 740 -332 l 604 -332 m 406 97 q 523 125 479 97 q 587 209 566 153 q 608 349 607 264 l 608 372 q 563 578 608 508 q 404 648 518 648 q 261 574 308 648 q 214 370 214 500 q 261 168 214 239 q 406 97 308 97 z "},"r":{"ha":583,"x_min":116,"x_max":560,"o":"m 475 761 q 519 759 496 761 q 560 753 543 756 l 546 626 q 508 633 530 630 q 469 635 487 635 q 386 619 425 635 q 317 572 347 603 q 270 497 287 541 q 253 395 253 452 l 253 0 l 116 0 l 116 747 l 226 747 l 242 612 l 248 612 q 304 687 271 653 q 380 741 337 721 q 475 761 423 761 z "},"s":{"ha":669,"x_min":68,"x_max":609,"o":"m 609 209 q 573 86 609 136 q 470 12 538 37 q 307 -14 402 -14 q 172 -2 229 -14 q 68 33 115 10 l 68 153 q 183 111 118 130 q 311 93 248 93 q 437 121 398 93 q 476 196 476 149 q 460 245 476 224 q 406 288 445 267 q 294 337 367 309 q 173 393 223 365 q 96 460 122 420 q 69 562 69 499 q 147 710 69 659 q 352 761 224 761 q 480 747 420 761 q 595 709 540 734 l 551 604 q 450 639 502 625 q 345 653 399 653 q 238 631 275 653 q 201 569 201 608 q 219 518 201 538 q 277 478 236 498 q 387 433 317 459 q 505 379 455 407 q 582 311 555 351 q 609 209 609 271 z "},"t":{"ha":522,"x_min":24,"x_max":487,"o":"m 376 97 q 435 102 406 97 q 487 115 465 107 l 487 11 q 426 -6 464 1 q 347 -14 387 -14 q 237 7 286 -14 q 158 79 187 28 q 128 220 128 130 l 128 642 l 24 642 l 24 705 l 133 755 l 181 917 l 265 917 l 265 747 l 481 747 l 481 642 l 265 642 l 265 222 q 295 128 265 159 q 376 97 326 97 z "},"u":{"ha":867,"x_min":109,"x_max":751,"o":"m 751 747 l 751 0 l 642 0 l 623 102 l 615 102 q 555 38 592 64 q 473 -1 519 12 q 377 -14 428 -14 q 231 15 291 -14 q 140 103 171 43 q 109 258 109 163 l 109 747 l 246 747 l 246 277 q 285 142 246 187 q 404 98 324 98 q 528 129 482 98 q 594 219 574 159 q 614 364 614 278 l 614 747 l 751 747 z "},"v":{"ha":718,"x_min":0,"x_max":718,"o":"m 284 0 l 0 747 l 144 747 l 304 302 q 335 205 319 258 q 355 119 350 153 l 360 119 q 383 206 367 154 q 414 302 399 258 l 573 747 l 718 747 l 433 0 l 284 0 z "},"w":{"ha":1105,"x_min":16,"x_max":1089,"o":"m 726 1 l 612 392 q 596 450 604 418 q 579 514 587 482 q 565 573 571 546 q 555 618 558 601 l 549 618 q 540 573 546 601 q 526 514 534 546 q 510 449 518 481 q 493 390 501 416 l 374 1 l 223 1 l 16 748 l 155 748 l 257 357 q 277 275 267 317 q 293 196 286 233 q 303 132 300 159 l 309 132 q 317 176 312 150 q 328 231 322 202 q 341 287 334 260 q 355 334 349 314 l 481 748 l 629 748 l 750 335 q 768 268 759 305 q 785 195 778 231 q 795 134 793 159 l 801 134 q 811 193 804 157 q 828 273 819 230 q 848 357 838 316 l 952 748 l 1089 748 l 880 1 l 726 1 z "},"x":{"ha":746,"x_min":22,"x_max":724,"o":"m 288 382 l 34 747 l 189 747 l 373 472 l 557 747 l 711 747 l 456 382 l 724 0 l 569 0 l 373 292 l 176 0 l 22 0 l 288 382 z "},"y":{"ha":720,"x_min":1,"x_max":720,"o":"m 1 747 l 149 747 l 307 317 q 330 252 319 283 q 348 191 340 220 q 361 133 356 161 l 366 133 q 389 217 374 168 q 421 317 404 267 l 573 747 l 720 747 l 397 -106 q 333 -228 370 -177 q 243 -307 295 -279 q 121 -334 192 -334 q 64 -331 89 -334 q 22 -322 39 -327 l 22 -214 q 58 -220 37 -217 q 102 -222 79 -222 q 176 -206 145 -222 q 229 -159 207 -189 q 266 -87 251 -128 l 300 1 l 1 747 z "},"z":{"ha":658,"x_min":50,"x_max":606,"o":"m 606 0 l 50 0 l 50 87 l 444 642 l 75 642 l 75 747 l 597 747 l 597 651 l 210 105 l 606 105 l 606 0 z "},"{":{"ha":528,"x_min":35,"x_max":480,"o":"m 480 -220 q 326 -196 387 -219 q 234 -127 264 -174 q 203 -9 203 -80 l 203 200 q 184 276 203 247 q 127 318 165 304 q 35 331 90 331 l 35 441 q 127 455 90 442 q 184 496 165 468 q 203 572 203 525 l 203 783 q 235 900 203 854 q 328 969 267 946 q 480 991 390 991 l 480 884 q 400 870 433 883 q 349 831 367 858 q 332 760 332 804 l 332 556 q 294 446 332 487 q 182 391 257 404 l 182 383 q 295 329 258 370 q 332 218 332 288 l 332 12 q 349 -59 332 -33 q 399 -98 366 -86 q 480 -111 433 -111 l 480 -220 z "},"|":{"ha":764,"x_min":328,"x_max":435,"o":"m 328 1055 l 435 1055 l 435 -331 l 328 -331 l 328 1055 z "},"}":{"ha":528,"x_min":48,"x_max":494,"o":"m 48 -220 l 48 -111 q 128 -98 95 -110 q 178 -59 161 -85 q 196 12 196 -32 l 196 217 q 233 328 196 287 q 345 382 271 370 l 345 390 q 233 445 270 403 q 196 555 196 486 l 196 760 q 179 832 196 805 q 128 871 161 859 q 48 884 95 884 l 48 991 q 202 968 141 991 q 294 900 264 946 q 324 782 324 853 l 324 573 q 343 497 324 526 q 401 455 363 468 q 494 441 439 441 l 494 331 q 401 318 439 331 q 343 276 363 304 q 324 201 324 248 l 324 -10 q 293 -127 324 -81 q 200 -197 261 -174 q 48 -220 138 -220 z "},"~":{"ha":794,"x_min":67,"x_max":725,"o":"m 375 439 q 292 469 326 461 q 227 477 258 477 q 145 454 188 477 q 67 396 102 431 l 67 511 q 144 566 102 547 q 236 584 186 584 q 317 575 277 584 q 418 540 357 566 q 502 510 469 519 q 566 502 536 502 q 649 525 606 502 q 725 583 691 548 l 725 469 q 650 415 692 434 q 557 395 608 395 q 477 404 517 395 q 375 439 437 412 z "}," ":{"ha":361,"x_min":0,"x_max":0,"o":""},"¡":{"ha":374,"x_min":96,"x_max":277,"o":"m 136 449 l 234 449 l 267 -253 l 104 -253 l 136 449 m 277 662 q 251 589 277 610 q 186 568 224 568 q 123 589 149 568 q 96 662 96 610 q 123 735 96 712 q 186 758 149 758 q 251 735 224 758 q 277 662 277 712 z "},"¢":{"ha":794,"x_min":119,"x_max":680,"o":"m 492 1006 l 492 895 q 596 881 547 893 q 680 853 644 869 l 640 743 q 555 769 600 758 q 472 780 511 780 q 352 749 400 780 q 281 657 304 718 q 258 504 258 596 q 281 354 258 413 q 351 265 305 294 q 467 236 397 236 q 573 248 527 236 q 665 279 620 260 l 665 163 q 585 133 626 144 q 491 119 544 121 l 491 -14 l 395 -14 l 395 123 q 248 179 310 136 q 152 301 185 222 q 119 503 119 381 q 153 709 119 628 q 250 834 187 791 q 395 890 312 878 l 395 1006 l 492 1006 z "},"£":{"ha":794,"x_min":49,"x_max":747,"o":"m 468 1005 q 605 989 543 1005 q 715 949 666 972 l 669 842 q 576 877 626 862 q 474 892 527 892 q 361 853 401 892 q 321 726 321 814 l 321 547 l 596 547 l 596 445 l 321 445 l 321 308 q 307 217 321 253 q 271 158 293 180 q 222 121 248 136 l 747 121 l 747 0 l 49 0 l 49 114 q 120 148 90 125 q 168 208 151 170 q 185 307 185 247 l 185 445 l 54 445 l 54 547 l 185 547 l 185 735 q 221 884 185 824 q 320 974 256 943 q 468 1005 384 1005 z "},"¤":{"ha":794,"x_min":81,"x_max":712,"o":"m 125 490 q 138 570 125 532 q 172 642 151 609 l 81 734 l 153 805 l 244 715 q 316 750 277 738 q 397 762 355 762 q 476 750 439 762 q 547 715 514 738 l 640 805 l 712 735 l 621 642 q 655 571 642 610 q 669 490 669 532 q 656 409 669 448 q 621 338 644 370 l 710 246 l 640 176 l 547 266 q 477 232 515 245 q 397 220 439 220 q 315 232 354 220 q 244 267 275 244 l 153 177 l 81 247 l 172 339 q 138 410 151 372 q 125 490 125 449 m 225 490 q 248 403 225 442 q 310 341 271 364 q 397 319 349 319 q 485 342 446 319 q 547 404 524 365 q 570 490 570 443 q 547 578 570 539 q 485 641 524 618 q 397 665 446 665 q 310 641 349 665 q 248 578 271 618 q 225 490 225 539 z "},"¥":{"ha":794,"x_min":17,"x_max":774,"o":"m 396 523 l 633 991 l 774 991 l 496 473 l 663 473 l 663 380 l 462 380 l 462 268 l 663 268 l 663 176 l 462 176 l 462 0 l 330 0 l 330 176 l 128 176 l 128 268 l 330 268 l 330 380 l 128 380 l 128 473 l 292 473 l 17 991 l 161 991 l 396 523 z "},"¦":{"ha":764,"x_min":328,"x_max":435,"o":"m 328 1055 l 435 1055 l 435 522 l 328 522 l 328 1055 m 328 203 l 435 203 l 435 -331 l 328 -331 l 328 203 z "},"§":{"ha":704,"x_min":80,"x_max":615,"o":"m 92 547 q 124 656 92 614 q 200 721 157 699 q 123 785 151 747 q 96 880 96 823 q 167 1013 96 963 q 367 1062 239 1062 q 497 1048 441 1062 q 604 1013 552 1034 l 565 916 q 470 949 518 935 q 360 964 422 964 q 249 943 283 964 q 216 882 216 922 q 233 836 216 856 q 288 796 250 815 q 391 753 327 777 q 510 697 460 728 q 588 627 561 667 q 615 531 615 587 q 585 417 615 461 q 514 349 555 372 q 588 286 562 323 q 614 197 614 250 q 535 46 614 100 q 315 -8 456 -8 q 182 5 239 -8 q 80 39 125 18 l 80 148 q 152 119 112 133 q 235 97 192 105 q 319 89 277 89 q 454 118 416 89 q 491 186 491 147 q 477 234 491 214 q 427 274 464 254 q 319 320 389 294 q 197 376 248 347 q 119 446 146 405 q 92 547 92 486 m 202 560 q 221 500 202 526 q 282 451 240 474 q 391 402 323 428 l 420 391 q 477 440 452 410 q 503 515 503 470 q 485 576 503 549 q 422 628 467 604 q 298 677 378 652 q 231 635 260 666 q 202 560 202 605 z "},"¨":{"ha":814,"x_min":205,"x_max":609,"o":"m 205 947 q 225 1002 205 985 q 275 1019 245 1019 q 325 1002 304 1019 q 345 947 345 985 q 325 893 345 911 q 275 875 304 875 q 225 893 245 875 q 205 947 205 911 m 469 947 q 489 1002 469 985 q 538 1019 509 1019 q 588 1002 567 1019 q 609 947 609 985 q 588 893 609 911 q 538 875 567 875 q 489 893 509 875 q 469 947 469 911 z "},"©":{"ha":1156,"x_min":68,"x_max":1088,"o":"m 578 -14 q 374 24 467 -14 q 212 131 281 62 q 105 293 143 199 q 68 496 68 386 q 106 698 68 605 q 213 860 144 791 q 375 967 282 929 q 578 1006 469 1006 q 777 968 684 1006 q 939 861 869 930 q 1048 699 1009 792 q 1088 496 1088 606 q 1050 293 1088 386 q 943 131 1012 199 q 781 24 874 62 q 578 -14 688 -14 m 600 184 q 392 269 461 184 q 322 496 322 354 q 355 657 322 587 q 451 767 388 727 q 605 807 515 807 q 693 796 649 807 q 777 766 738 785 l 738 683 q 671 710 704 701 q 606 719 637 719 q 474 659 521 719 q 427 496 427 600 q 470 330 427 388 q 604 272 512 272 q 677 281 637 272 q 751 304 716 290 l 751 218 q 683 193 718 203 q 600 184 648 184 m 578 60 q 745 93 667 60 q 882 183 823 125 q 974 321 941 242 q 1008 496 1008 401 q 976 665 1008 586 q 886 804 943 743 q 750 898 828 864 q 578 932 671 932 q 406 900 484 932 q 269 809 327 867 q 179 670 211 750 q 147 496 147 591 q 179 326 147 405 q 268 187 210 247 q 405 94 326 127 q 578 60 484 60 z "},"ª":{"ha":500,"x_min":43,"x_max":435,"o":"m 253 1003 q 389 963 344 1003 q 435 840 435 922 l 435 536 l 366 536 l 349 600 q 282 548 321 568 q 191 528 242 528 q 112 543 146 528 q 61 590 79 558 q 43 668 43 621 q 67 748 43 716 q 142 796 92 779 q 267 815 192 812 l 340 818 l 340 845 q 313 906 340 888 q 243 925 286 925 q 172 915 208 925 q 103 888 136 905 l 70 959 q 154 990 108 978 q 253 1003 201 1003 m 340 753 l 273 750 q 167 725 195 747 q 140 668 140 704 q 159 619 140 635 q 212 604 179 604 q 309 636 277 604 q 340 722 340 669 l 340 753 z "},"«":{"ha":730,"x_min":54,"x_max":677,"o":"m 54 380 l 290 665 l 388 610 l 195 372 l 388 134 l 290 78 l 54 362 l 54 380 m 342 380 l 581 665 l 677 610 l 485 372 l 677 134 l 581 78 l 342 362 l 342 380 z "},"¬":{"ha":794,"x_min":67,"x_max":722,"o":"m 722 543 l 722 176 l 617 176 l 617 437 l 67 437 l 67 543 l 722 543 z "},"­":{"ha":447,"x_min":52,"x_max":395,"o":"m 52 314 l 52 432 l 395 432 l 395 314 l 52 314 z "},"®":{"ha":1156,"x_min":68,"x_max":1088,"o":"m 388 193 l 388 800 l 567 800 q 731 755 678 800 q 784 620 784 709 q 750 516 784 554 q 673 460 717 477 l 835 193 l 720 193 l 581 432 l 490 432 l 490 193 l 388 193 m 490 515 l 564 515 q 650 543 619 515 q 681 617 681 570 q 652 691 681 669 q 562 714 624 714 l 490 714 l 490 515 m 578 -14 q 374 24 467 -14 q 212 131 281 62 q 105 293 143 199 q 68 496 68 386 q 106 698 68 605 q 213 860 144 791 q 375 967 282 929 q 578 1006 469 1006 q 777 968 684 1006 q 939 861 869 930 q 1048 699 1009 792 q 1088 496 1088 606 q 1050 293 1088 386 q 943 131 1012 199 q 781 24 874 62 q 578 -14 688 -14 m 578 60 q 745 93 667 60 q 882 183 823 125 q 974 321 941 242 q 1008 496 1008 401 q 976 665 1008 586 q 886 804 943 743 q 750 898 828 864 q 578 932 671 932 q 406 900 484 932 q 269 809 327 867 q 179 670 211 750 q 147 496 147 591 q 179 326 147 405 q 268 187 210 247 q 405 94 326 127 q 578 60 484 60 z "},"¯":{"ha":694,"x_min":-4,"x_max":699,"o":"m 699 1055 l -4 1055 l -4 1154 l 699 1154 l 699 1055 z "},"°":{"ha":595,"x_min":73,"x_max":522,"o":"m 297 572 q 180 599 231 572 q 101 675 130 626 q 73 788 73 724 q 101 901 73 852 q 179 978 129 950 q 297 1006 229 1006 q 414 978 363 1006 q 493 902 465 951 q 522 788 522 852 q 493 675 522 724 q 414 599 465 626 q 297 572 363 572 m 298 662 q 392 696 359 662 q 425 788 425 731 q 391 882 425 847 q 298 917 357 917 q 203 882 236 917 q 171 788 171 847 q 203 696 171 731 q 298 662 235 662 z "},"±":{"ha":794,"x_min":67,"x_max":726,"o":"m 67 0 l 67 106 l 726 106 l 726 0 l 67 0 m 450 555 l 724 555 l 724 450 l 450 450 l 450 168 l 342 168 l 342 450 l 67 450 l 67 555 l 342 555 l 342 838 l 450 838 l 450 555 z "},"²":{"ha":494,"x_min":35,"x_max":438,"o":"m 438 578 l 35 578 l 35 659 l 193 814 q 274 898 245 865 q 313 957 302 930 q 323 1013 323 983 q 300 1075 323 1053 q 235 1096 276 1096 q 164 1081 197 1096 q 94 1036 130 1065 l 39 1107 q 131 1164 81 1143 q 242 1185 180 1185 q 382 1142 330 1185 q 433 1020 433 1098 q 416 937 433 975 q 362 860 398 899 q 274 772 327 821 l 170 673 l 438 673 l 438 578 z "},"³":{"ha":494,"x_min":29,"x_max":450,"o":"m 237 1185 q 381 1142 330 1185 q 433 1031 433 1099 q 403 942 433 977 q 327 892 374 906 l 327 886 q 417 838 385 875 q 450 747 450 802 q 391 617 450 667 q 211 568 333 568 q 116 577 160 568 q 29 608 71 587 l 29 702 q 121 665 75 679 q 211 652 168 652 q 311 679 279 652 q 342 752 342 705 q 307 821 342 798 q 199 844 271 844 l 119 844 l 119 925 l 196 925 q 296 951 267 925 q 326 1019 326 978 q 300 1079 326 1059 q 233 1100 274 1100 q 157 1086 193 1100 q 84 1047 121 1072 l 33 1116 q 123 1166 75 1147 q 237 1185 171 1185 z "},"´":{"ha":414,"x_min":56,"x_max":359,"o":"m 359 1064 l 359 1050 q 319 1003 345 1031 q 263 946 294 976 q 202 888 233 916 q 146 842 172 861 l 56 842 l 56 859 q 104 920 77 884 q 157 995 131 956 q 199 1064 182 1033 l 359 1064 z "},"µ":{"ha":873,"x_min":116,"x_max":757,"o":"m 757 747 l 757 0 l 649 0 l 629 103 l 622 103 q 570 40 600 66 q 500 0 540 14 q 410 -14 460 -14 q 316 4 355 -14 q 251 53 277 22 l 246 53 q 250 11 248 37 q 252 -45 251 -14 q 252 -109 252 -76 l 252 -334 l 116 -334 l 116 747 l 252 747 l 252 276 q 292 143 252 189 q 414 98 332 98 q 537 129 492 98 q 602 219 583 159 q 621 364 621 279 l 621 747 l 757 747 z "},"¶":{"ha":909,"x_min":81,"x_max":766,"o":"m 766 -176 l 682 -176 l 682 967 l 545 967 l 545 -176 l 460 -176 l 460 389 q 413 379 439 382 q 361 376 387 376 q 213 409 276 376 q 116 515 151 441 q 81 712 81 589 q 119 917 81 842 q 224 1023 157 991 q 382 1055 292 1055 l 766 1055 l 766 -176 z "},"·":{"ha":373,"x_min":96,"x_max":277,"o":"m 96 486 q 122 558 96 537 q 186 580 149 580 q 250 558 224 580 q 277 486 277 537 q 250 412 277 435 q 186 389 224 389 q 122 412 149 389 q 96 486 96 435 z "},"¸":{"ha":302,"x_min":8,"x_max":288,"o":"m 288 -188 q 239 -295 288 -256 q 85 -334 189 -334 q 42 -331 62 -334 q 8 -324 22 -328 l 8 -243 q 45 -248 22 -245 q 87 -251 67 -251 q 155 -238 131 -251 q 179 -192 179 -224 q 145 -140 179 -157 q 54 -115 112 -122 l 113 0 l 201 0 l 170 -67 q 229 -90 202 -75 q 272 -129 256 -104 q 288 -188 288 -153 z "},"¹":{"ha":494,"x_min":54,"x_max":344,"o":"m 344 1173 l 344 578 l 235 578 l 235 941 q 235 988 235 964 q 237 1033 236 1011 q 239 1073 238 1055 q 210 1045 227 1060 q 175 1019 193 1031 l 106 969 l 54 1038 l 241 1173 l 344 1173 z "},"º":{"ha":524,"x_min":44,"x_max":481,"o":"m 481 766 q 422 591 481 654 q 261 528 362 528 q 105 589 165 528 q 44 766 44 651 q 103 942 44 880 q 264 1004 161 1004 q 378 976 330 1004 q 454 895 427 948 q 481 766 481 842 m 140 766 q 169 648 140 688 q 262 608 197 608 q 355 648 326 608 q 384 766 384 688 q 355 884 384 844 q 262 924 326 924 q 169 885 199 924 q 140 766 140 846 z "},"»":{"ha":730,"x_min":53,"x_max":676,"o":"m 676 362 l 438 78 l 342 134 l 534 372 l 342 610 l 438 665 l 676 380 l 676 362 m 387 362 l 150 78 l 53 134 l 245 372 l 53 610 l 150 665 l 387 380 l 387 362 z "},"¼":{"ha":1059,"x_min":41,"x_max":1046,"o":"m 188 0 l 772 991 l 886 991 l 301 0 l 188 0 m 222 397 l 222 761 q 222 807 222 784 q 224 853 223 831 q 227 892 225 875 q 197 865 214 880 q 162 838 180 850 l 94 789 l 41 858 l 228 991 l 330 991 l 330 397 l 222 397 m 848 0 l 848 130 l 578 130 l 578 206 l 850 599 l 960 599 l 960 216 l 1046 216 l 1046 130 l 960 130 l 960 0 l 848 0 m 678 216 l 848 216 l 848 349 q 848 415 848 379 q 851 484 849 451 q 825 434 844 467 q 790 380 805 401 l 678 216 z "},"½":{"ha":1103,"x_min":30,"x_max":1048,"o":"m 160 0 l 745 991 l 858 991 l 273 0 l 160 0 m 210 397 l 210 761 q 211 795 210 778 q 212 830 211 813 q 214 863 213 848 q 216 892 215 879 q 185 865 202 880 q 151 838 168 850 l 82 789 l 30 858 l 217 991 l 319 991 l 319 397 l 210 397 m 645 0 l 645 81 l 803 237 q 883 320 855 288 q 923 379 911 353 q 934 435 934 406 q 909 497 934 475 q 845 518 885 518 q 773 503 807 518 q 705 458 740 488 l 650 530 q 741 586 691 565 q 852 608 790 608 q 992 564 941 608 q 1043 442 1043 520 q 1025 359 1043 397 q 972 282 1007 321 q 884 194 937 243 l 780 95 l 1048 95 l 1048 0 l 645 0 z "},"¾":{"ha":1104,"x_min":32,"x_max":1092,"o":"m 248 0 l 832 991 l 945 991 l 361 0 l 248 0 m 214 387 q 119 396 163 387 q 32 427 74 406 l 32 521 q 124 485 78 498 q 215 471 171 471 q 314 498 282 471 q 347 572 347 524 q 310 640 347 617 q 202 663 274 663 l 123 663 l 123 745 l 199 745 q 299 771 269 745 q 329 839 329 798 q 303 899 329 878 q 236 920 277 920 q 160 905 195 920 q 87 867 125 891 l 35 935 q 126 985 77 966 q 240 1004 175 1004 q 385 962 334 1004 q 435 850 435 919 q 406 761 435 797 q 330 711 377 726 l 330 705 q 421 657 389 694 q 454 567 454 621 q 395 436 454 486 q 214 387 336 387 m 893 0 l 893 130 l 624 130 l 624 206 l 895 599 l 1006 599 l 1006 216 l 1092 216 l 1092 130 l 1006 130 l 1006 0 l 893 0 m 724 216 l 893 216 l 893 349 q 894 415 893 379 q 897 484 895 451 q 870 434 889 467 q 836 380 850 401 l 724 216 z "},"¿":{"ha":615,"x_min":37,"x_max":598,"o":"m 422 450 l 422 412 q 411 321 422 360 q 374 250 400 283 q 302 179 348 216 q 222 110 252 138 q 179 51 192 81 q 166 -18 166 22 q 209 -116 166 -82 q 328 -151 252 -151 q 446 -133 392 -151 q 550 -91 499 -115 l 598 -196 q 471 -247 539 -227 q 319 -267 403 -267 q 110 -200 184 -267 q 37 -23 37 -134 q 56 82 37 39 q 113 163 76 126 q 201 240 151 199 q 269 303 246 276 q 300 357 292 330 q 309 424 309 385 l 309 450 l 422 450 m 450 662 q 424 589 450 610 q 359 568 399 568 q 296 589 323 568 q 270 662 270 610 q 296 735 270 713 q 359 758 323 758 q 424 735 399 758 q 450 662 450 713 z "},"À":{"ha":899,"x_min":0,"x_max":897,"o":"m 751 0 l 642 295 l 253 295 l 144 0 l 0 0 l 378 996 l 521 996 l 897 0 l 751 0 m 603 416 l 498 708 q 484 753 494 723 q 464 814 474 783 q 448 867 454 846 q 433 809 441 840 q 415 751 424 778 q 401 708 407 724 l 296 416 l 603 416 m 405 1309 q 448 1239 422 1278 q 500 1165 473 1201 q 550 1103 528 1129 l 550 1086 l 458 1086 q 403 1133 433 1106 q 342 1191 372 1160 q 286 1248 311 1221 q 246 1295 261 1276 l 246 1309 l 405 1309 z "},"Á":{"ha":899,"x_min":0,"x_max":897,"o":"m 751 0 l 642 295 l 253 295 l 144 0 l 0 0 l 378 996 l 521 996 l 897 0 l 751 0 m 603 416 l 498 708 q 484 753 494 723 q 464 814 474 783 q 448 867 454 846 q 433 809 441 840 q 415 751 424 778 q 401 708 407 724 l 296 416 l 603 416 m 662 1309 l 662 1295 q 622 1248 647 1276 q 566 1191 596 1221 q 505 1133 535 1160 q 449 1086 474 1106 l 358 1086 l 358 1103 q 407 1165 380 1129 q 459 1239 433 1201 q 502 1309 485 1278 l 662 1309 z "},"Â":{"ha":899,"x_min":0,"x_max":897,"o":"m 751 0 l 642 295 l 253 295 l 144 0 l 0 0 l 378 996 l 521 996 l 897 0 l 751 0 m 603 416 l 498 708 q 484 753 494 723 q 464 814 474 783 q 448 867 454 846 q 433 809 441 840 q 415 751 424 778 q 401 708 407 724 l 296 416 l 603 416 m 523 1308 q 571 1239 541 1278 q 636 1165 602 1201 q 696 1102 670 1128 l 696 1086 l 602 1086 q 525 1143 565 1109 q 449 1214 486 1177 q 374 1144 412 1177 q 298 1086 335 1111 l 206 1086 l 206 1102 q 265 1165 232 1129 q 328 1240 298 1202 q 377 1308 359 1278 l 523 1308 z "},"Ã":{"ha":899,"x_min":0,"x_max":897,"o":"m 751 0 l 642 295 l 253 295 l 144 0 l 0 0 l 378 996 l 521 996 l 897 0 l 751 0 m 603 416 l 498 708 q 484 753 494 723 q 464 814 474 783 q 448 867 454 846 q 433 809 441 840 q 415 751 424 778 q 401 708 407 724 l 296 416 l 603 416 m 186 1088 q 203 1166 191 1132 q 236 1223 216 1200 q 284 1258 257 1246 q 345 1270 312 1270 q 403 1258 375 1270 q 457 1230 431 1246 q 507 1203 483 1215 q 555 1191 532 1191 q 602 1210 584 1191 q 630 1271 621 1230 l 705 1271 q 655 1137 696 1185 q 547 1088 613 1088 q 490 1101 517 1088 q 437 1128 463 1113 q 386 1156 411 1143 q 337 1168 361 1168 q 289 1148 307 1168 q 262 1088 271 1129 l 186 1088 z "},"Ä":{"ha":899,"x_min":0,"x_max":897,"o":"m 751 0 l 642 295 l 253 295 l 144 0 l 0 0 l 378 996 l 521 996 l 897 0 l 751 0 m 603 416 l 498 708 q 484 753 494 723 q 464 814 474 783 q 448 867 454 846 q 433 809 441 840 q 415 751 424 778 q 401 708 407 724 l 296 416 l 603 416 m 245 1192 q 266 1247 245 1230 q 315 1264 286 1264 q 365 1247 345 1264 q 386 1192 386 1230 q 365 1138 386 1156 q 315 1120 345 1120 q 266 1138 286 1120 q 245 1192 245 1156 m 509 1192 q 529 1247 509 1230 q 578 1264 549 1264 q 629 1247 608 1264 q 650 1192 650 1230 q 629 1138 650 1156 q 578 1120 608 1120 q 529 1138 549 1120 q 509 1192 509 1156 z "},"Å":{"ha":899,"x_min":0,"x_max":897,"o":"m 751 0 l 642 295 l 253 295 l 144 0 l 0 0 l 378 996 l 521 996 l 897 0 l 751 0 m 603 416 l 498 708 q 484 753 494 723 q 464 814 474 783 q 448 867 454 846 q 433 809 441 840 q 415 751 424 778 q 401 708 407 724 l 296 416 l 603 416 m 447 923 q 335 963 378 923 q 292 1074 292 1003 q 335 1183 292 1143 q 447 1223 378 1223 q 559 1183 513 1223 q 604 1075 604 1143 q 559 963 604 1004 q 447 923 514 923 m 447 996 q 503 1017 481 996 q 524 1074 524 1038 q 502 1129 524 1109 q 447 1150 479 1150 q 392 1129 414 1150 q 370 1074 370 1109 q 390 1017 370 1038 q 447 996 410 996 z "},"Æ":{"ha":1235,"x_min":-1,"x_max":1157,"o":"m 1157 0 l 621 0 l 621 295 l 280 295 l 142 0 l -1 0 l 460 991 l 1157 991 l 1157 872 l 760 872 l 760 577 l 1131 577 l 1131 459 l 760 459 l 760 120 l 1157 120 l 1157 0 m 333 416 l 621 416 l 621 869 l 541 869 l 333 416 z "},"Ç":{"ha":878,"x_min":84,"x_max":833,"o":"m 556 886 q 419 859 479 886 q 316 781 358 832 q 252 658 274 730 q 229 496 229 586 q 265 288 229 376 q 372 153 300 201 q 553 106 444 106 q 678 118 618 106 q 796 149 737 130 l 796 29 q 679 -3 739 7 q 536 -14 618 -14 q 284 50 385 -14 q 134 227 183 113 q 84 496 84 341 q 115 702 84 609 q 207 864 146 795 q 355 969 267 932 q 557 1006 443 1006 q 703 990 632 1006 q 833 945 774 974 l 782 829 q 676 869 732 852 q 556 886 619 886 m 658 -188 q 608 -295 658 -256 q 455 -334 559 -334 q 412 -331 432 -334 q 378 -324 391 -328 l 378 -243 q 414 -248 392 -245 q 457 -251 437 -251 q 525 -238 500 -251 q 549 -192 549 -224 q 515 -140 549 -157 q 424 -115 481 -122 l 482 0 l 571 0 l 539 -67 q 598 -90 572 -75 q 642 -129 625 -104 q 658 -188 658 -153 z "},"È":{"ha":773,"x_min":133,"x_max":690,"o":"m 690 0 l 133 0 l 133 991 l 690 991 l 690 872 l 272 872 l 272 577 l 665 577 l 665 459 l 272 459 l 272 120 l 690 120 l 690 0 m 380 1309 q 422 1239 397 1278 q 475 1165 448 1201 q 525 1103 503 1129 l 525 1086 l 433 1086 q 378 1133 408 1106 q 317 1191 347 1160 q 261 1248 286 1221 q 221 1295 236 1276 l 221 1309 l 380 1309 z "},"É":{"ha":773,"x_min":133,"x_max":690,"o":"m 690 0 l 133 0 l 133 991 l 690 991 l 690 872 l 272 872 l 272 577 l 665 577 l 665 459 l 272 459 l 272 120 l 690 120 l 690 0 m 637 1309 l 637 1295 q 596 1248 622 1276 q 541 1191 571 1221 q 479 1133 510 1160 q 424 1086 449 1106 l 333 1086 l 333 1103 q 381 1165 355 1129 q 434 1239 408 1201 q 477 1309 460 1278 l 637 1309 z "},"Ê":{"ha":773,"x_min":133,"x_max":690,"o":"m 690 0 l 133 0 l 133 991 l 690 991 l 690 872 l 272 872 l 272 577 l 665 577 l 665 459 l 272 459 l 272 120 l 690 120 l 690 0 m 497 1308 q 546 1239 515 1278 q 610 1165 576 1201 q 670 1102 644 1128 l 670 1086 l 576 1086 q 499 1143 539 1109 q 423 1214 460 1177 q 348 1144 387 1177 q 273 1086 309 1111 l 180 1086 l 180 1102 q 239 1165 206 1129 q 302 1240 272 1202 q 351 1308 333 1278 l 497 1308 z "},"Ë":{"ha":773,"x_min":133,"x_max":690,"o":"m 690 0 l 133 0 l 133 991 l 690 991 l 690 872 l 272 872 l 272 577 l 665 577 l 665 459 l 272 459 l 272 120 l 690 120 l 690 0 m 220 1192 q 241 1247 220 1230 q 290 1264 261 1264 q 340 1247 319 1264 q 361 1192 361 1230 q 340 1138 361 1156 q 290 1120 319 1120 q 241 1138 261 1120 q 220 1192 220 1156 m 484 1192 q 504 1247 484 1230 q 553 1264 524 1264 q 604 1247 583 1264 q 625 1192 625 1230 q 604 1138 625 1156 q 553 1120 583 1120 q 504 1138 524 1120 q 484 1192 484 1156 z "},"Ì":{"ha":406,"x_min":-22,"x_max":282,"o":"m 133 0 l 133 991 l 272 991 l 272 0 l 133 0 m 137 1309 q 180 1239 155 1278 q 232 1165 205 1201 q 282 1103 260 1129 l 282 1086 l 191 1086 q 135 1133 165 1106 q 74 1191 104 1160 q 18 1248 43 1221 q -22 1295 -7 1276 l -22 1309 l 137 1309 z "},"Í":{"ha":406,"x_min":125,"x_max":429,"o":"m 133 0 l 133 991 l 272 991 l 272 0 l 133 0 m 429 1309 l 429 1295 q 388 1248 414 1276 q 332 1191 363 1221 q 271 1133 302 1160 q 216 1086 241 1106 l 125 1086 l 125 1103 q 173 1165 146 1129 q 226 1239 200 1201 q 269 1309 252 1278 l 429 1309 z "},"Î":{"ha":406,"x_min":-41,"x_max":448,"o":"m 133 0 l 133 991 l 272 991 l 272 0 l 133 0 m 275 1308 q 324 1239 293 1278 q 389 1165 355 1201 q 448 1102 422 1128 l 448 1086 l 354 1086 q 278 1143 317 1109 q 201 1214 238 1177 q 126 1144 165 1177 q 51 1086 87 1111 l -41 1086 l -41 1102 q 17 1165 -16 1129 q 81 1240 50 1202 q 130 1308 111 1278 l 275 1308 z "},"Ï":{"ha":406,"x_min":3,"x_max":406,"o":"m 133 0 l 133 991 l 272 991 l 272 0 l 133 0 m 2 1192 q 22 1247 2 1230 q 72 1264 43 1264 q 122 1247 101 1264 q 142 1192 142 1230 q 122 1138 142 1156 q 72 1120 101 1120 q 22 1138 43 1120 q 2 1192 2 1156 m 266 1192 q 286 1247 266 1230 q 335 1264 306 1264 q 385 1247 364 1264 q 406 1192 406 1230 q 385 1138 406 1156 q 335 1120 364 1120 q 286 1138 306 1120 q 266 1192 266 1156 z "},"Ð":{"ha":1013,"x_min":37,"x_max":929,"o":"m 435 991 q 698 936 587 991 q 869 773 808 881 q 929 505 929 665 q 867 225 929 338 q 688 57 806 113 q 404 0 571 0 l 140 0 l 140 431 l 37 431 l 37 550 l 140 550 l 140 991 l 435 991 m 425 875 l 278 875 l 278 550 l 507 550 l 507 431 l 278 431 l 278 118 l 399 118 q 687 214 591 118 q 783 501 783 311 q 742 711 783 629 q 620 834 700 794 q 425 875 540 875 z "},"Ñ":{"ha":1067,"x_min":133,"x_max":935,"o":"m 935 0 l 768 0 l 254 812 l 249 812 q 254 732 251 776 q 258 641 256 688 q 260 544 260 593 l 260 0 l 133 0 l 133 991 l 298 991 l 810 183 l 814 183 q 811 257 813 213 q 807 350 809 301 q 806 444 806 399 l 806 991 l 935 991 l 935 0 m 273 1088 q 290 1166 277 1132 q 323 1223 302 1200 q 371 1258 344 1246 q 431 1270 399 1270 q 490 1258 462 1270 q 544 1230 518 1246 q 594 1203 570 1215 q 642 1191 618 1191 q 689 1210 671 1191 q 717 1271 707 1230 l 792 1271 q 742 1137 783 1185 q 634 1088 700 1088 q 577 1101 604 1088 q 524 1128 549 1113 q 473 1156 498 1143 q 424 1168 448 1168 q 376 1148 394 1168 q 349 1088 358 1129 l 273 1088 z "},"Ò":{"ha":1086,"x_min":84,"x_max":1003,"o":"m 1003 497 q 974 289 1003 382 q 887 127 945 195 q 744 23 830 60 q 544 -14 659 -14 q 341 23 427 -14 q 197 127 254 60 q 112 290 140 195 q 84 498 84 384 q 134 766 84 651 q 287 944 184 880 q 546 1007 390 1007 q 798 944 696 1007 q 951 767 900 881 q 1003 497 1003 652 m 230 497 q 263 289 230 376 q 367 153 297 201 q 544 105 436 105 q 722 153 653 105 q 824 289 791 201 q 857 497 857 376 q 782 784 857 680 q 546 887 707 887 q 368 840 437 887 q 264 706 298 793 q 230 497 230 618 m 501 1309 q 544 1239 519 1278 q 596 1165 569 1201 q 646 1103 624 1129 l 646 1086 l 555 1086 q 499 1133 530 1106 q 438 1191 469 1160 q 382 1248 408 1221 q 342 1295 357 1276 l 342 1309 l 501 1309 z "},"Ó":{"ha":1086,"x_min":84,"x_max":1003,"o":"m 1003 497 q 974 289 1003 382 q 887 127 945 195 q 744 23 830 60 q 544 -14 659 -14 q 341 23 427 -14 q 197 127 254 60 q 112 290 140 195 q 84 498 84 384 q 134 766 84 651 q 287 944 184 880 q 546 1007 390 1007 q 798 944 696 1007 q 951 767 900 881 q 1003 497 1003 652 m 230 497 q 263 289 230 376 q 367 153 297 201 q 544 105 436 105 q 722 153 653 105 q 824 289 791 201 q 857 497 857 376 q 782 784 857 680 q 546 887 707 887 q 368 840 437 887 q 264 706 298 793 q 230 497 230 618 m 758 1309 l 758 1295 q 717 1248 743 1276 q 661 1191 692 1221 q 600 1133 631 1160 q 545 1086 570 1106 l 454 1086 l 454 1103 q 502 1165 475 1129 q 555 1239 529 1201 q 597 1309 581 1278 l 758 1309 z "},"Ô":{"ha":1086,"x_min":84,"x_max":1003,"o":"m 1003 497 q 974 289 1003 382 q 887 127 945 195 q 744 23 830 60 q 544 -14 659 -14 q 341 23 427 -14 q 197 127 254 60 q 112 290 140 195 q 84 498 84 384 q 134 766 84 651 q 287 944 184 880 q 546 1007 390 1007 q 798 944 696 1007 q 951 767 900 881 q 1003 497 1003 652 m 230 497 q 263 289 230 376 q 367 153 297 201 q 544 105 436 105 q 722 153 653 105 q 824 289 791 201 q 857 497 857 376 q 782 784 857 680 q 546 887 707 887 q 368 840 437 887 q 264 706 298 793 q 230 497 230 618 m 618 1308 q 667 1239 636 1278 q 732 1165 698 1201 q 791 1102 766 1128 l 791 1086 l 697 1086 q 621 1143 661 1109 q 545 1214 581 1177 q 469 1144 508 1177 q 394 1086 431 1111 l 302 1086 l 302 1102 q 360 1165 328 1129 q 424 1240 393 1202 q 473 1308 454 1278 l 618 1308 z "},"Õ":{"ha":1086,"x_min":84,"x_max":1003,"o":"m 1003 497 q 974 289 1003 382 q 887 127 945 195 q 744 23 830 60 q 544 -14 659 -14 q 341 23 427 -14 q 197 127 254 60 q 112 290 140 195 q 84 498 84 384 q 134 766 84 651 q 287 944 184 880 q 546 1007 390 1007 q 798 944 696 1007 q 951 767 900 881 q 1003 497 1003 652 m 230 497 q 263 289 230 376 q 367 153 297 201 q 544 105 436 105 q 722 153 653 105 q 824 289 791 201 q 857 497 857 376 q 782 784 857 680 q 546 887 707 887 q 368 840 437 887 q 264 706 298 793 q 230 497 230 618 m 281 1088 q 298 1166 286 1132 q 331 1223 311 1200 q 379 1258 352 1246 q 439 1270 407 1270 q 498 1258 470 1270 q 552 1230 526 1246 q 602 1203 578 1215 q 650 1191 627 1191 q 697 1210 679 1191 q 725 1271 715 1230 l 800 1271 q 750 1137 791 1185 q 642 1088 708 1088 q 585 1101 612 1088 q 532 1128 557 1113 q 481 1156 506 1143 q 432 1168 456 1168 q 384 1148 402 1168 q 357 1088 366 1129 l 281 1088 z "},"Ö":{"ha":1086,"x_min":84,"x_max":1003,"o":"m 1003 497 q 974 289 1003 382 q 887 127 945 195 q 744 23 830 60 q 544 -14 659 -14 q 341 23 427 -14 q 197 127 254 60 q 112 290 140 195 q 84 498 84 384 q 134 766 84 651 q 287 944 184 880 q 546 1007 390 1007 q 798 944 696 1007 q 951 767 900 881 q 1003 497 1003 652 m 230 497 q 263 289 230 376 q 367 153 297 201 q 544 105 436 105 q 722 153 653 105 q 824 289 791 201 q 857 497 857 376 q 782 784 857 680 q 546 887 707 887 q 368 840 437 887 q 264 706 298 793 q 230 497 230 618 m 341 1192 q 361 1247 341 1230 q 411 1264 382 1264 q 461 1247 440 1264 q 481 1192 481 1230 q 461 1138 481 1156 q 411 1120 440 1120 q 361 1138 382 1120 q 341 1192 341 1156 m 605 1192 q 625 1247 605 1230 q 674 1264 645 1264 q 724 1247 703 1264 q 745 1192 745 1230 q 724 1138 745 1156 q 674 1120 703 1120 q 625 1138 645 1120 q 605 1192 605 1156 z "},"×":{"ha":794,"x_min":90,"x_max":703,"o":"m 629 797 l 703 722 l 471 490 l 701 259 l 627 184 l 395 414 l 166 184 l 90 259 l 320 490 l 90 720 l 165 797 l 396 565 l 629 797 z "},"Ø":{"ha":1086,"x_min":84,"x_max":1003,"o":"m 1003 497 q 974 289 1003 382 q 887 127 945 195 q 744 23 830 60 q 544 -14 659 -14 q 404 2 467 -14 q 292 50 341 18 l 224 -47 l 138 10 l 210 113 q 115 278 146 180 q 84 498 84 376 q 134 766 84 651 q 287 944 184 880 q 546 1007 390 1007 q 680 991 618 1007 q 791 946 741 975 l 856 1038 l 941 980 l 872 882 q 970 718 937 816 q 1003 497 1003 621 m 857 497 q 840 648 857 581 q 791 765 824 716 l 365 155 q 444 118 399 132 q 544 105 489 105 q 722 153 653 105 q 824 289 791 201 q 857 497 857 376 m 230 497 q 245 349 230 416 q 292 233 261 282 l 719 840 q 642 875 685 863 q 546 887 599 887 q 368 840 437 887 q 264 706 298 793 q 230 497 230 618 z "},"Ù":{"ha":1022,"x_min":123,"x_max":897,"o":"m 897 991 l 897 350 q 854 163 897 245 q 724 34 811 81 q 506 -14 637 -14 q 221 86 319 -14 q 123 353 123 186 l 123 991 l 263 991 l 263 358 q 326 169 263 233 q 513 105 389 105 q 652 136 598 105 q 733 223 707 167 q 759 358 759 280 l 759 991 l 897 991 m 469 1309 q 511 1239 486 1278 q 564 1165 536 1201 q 614 1103 591 1129 l 614 1086 l 522 1086 q 467 1133 497 1106 q 406 1191 436 1160 q 350 1248 375 1221 q 310 1295 325 1276 l 310 1309 l 469 1309 z "},"Ú":{"ha":1022,"x_min":123,"x_max":897,"o":"m 897 991 l 897 350 q 854 163 897 245 q 724 34 811 81 q 506 -14 637 -14 q 221 86 319 -14 q 123 353 123 186 l 123 991 l 263 991 l 263 358 q 326 169 263 233 q 513 105 389 105 q 652 136 598 105 q 733 223 707 167 q 759 358 759 280 l 759 991 l 897 991 m 726 1309 l 726 1295 q 685 1248 711 1276 q 629 1191 660 1221 q 568 1133 599 1160 q 513 1086 538 1106 l 422 1086 l 422 1103 q 470 1165 444 1129 q 523 1239 497 1201 q 566 1309 549 1278 l 726 1309 z "},"Û":{"ha":1022,"x_min":123,"x_max":897,"o":"m 897 991 l 897 350 q 854 163 897 245 q 724 34 811 81 q 506 -14 637 -14 q 221 86 319 -14 q 123 353 123 186 l 123 991 l 263 991 l 263 358 q 326 169 263 233 q 513 105 389 105 q 652 136 598 105 q 733 223 707 167 q 759 358 759 280 l 759 991 l 897 991 m 586 1308 q 634 1239 604 1278 q 699 1165 665 1201 q 759 1102 733 1128 l 759 1086 l 665 1086 q 588 1143 628 1109 q 512 1214 549 1177 q 437 1144 475 1177 q 361 1086 398 1111 l 269 1086 l 269 1102 q 328 1165 295 1129 q 391 1240 361 1202 q 440 1308 422 1278 l 586 1308 z "},"Ü":{"ha":1022,"x_min":123,"x_max":897,"o":"m 897 991 l 897 350 q 854 163 897 245 q 724 34 811 81 q 506 -14 637 -14 q 221 86 319 -14 q 123 353 123 186 l 123 991 l 263 991 l 263 358 q 326 169 263 233 q 513 105 389 105 q 652 136 598 105 q 733 223 707 167 q 759 358 759 280 l 759 991 l 897 991 m 309 1192 q 330 1247 309 1230 q 379 1264 350 1264 q 429 1247 408 1264 q 450 1192 450 1230 q 429 1138 450 1156 q 379 1120 408 1120 q 330 1138 350 1120 q 309 1192 309 1156 m 573 1192 q 593 1247 573 1230 q 642 1264 613 1264 q 692 1247 671 1264 q 713 1192 713 1230 q 692 1138 713 1156 q 642 1120 671 1120 q 593 1138 613 1120 q 573 1192 573 1156 z "},"Ý":{"ha":799,"x_min":0,"x_max":799,"o":"m 400 517 l 650 991 l 799 991 l 469 385 l 469 0 l 330 0 l 330 379 l 0 991 l 152 991 l 400 517 m 614 1309 l 614 1295 q 573 1248 599 1276 q 517 1191 548 1221 q 456 1133 487 1160 q 401 1086 426 1106 l 310 1086 l 310 1103 q 358 1165 332 1129 q 411 1239 385 1201 q 454 1309 437 1278 l 614 1309 z "},"Þ":{"ha":845,"x_min":133,"x_max":776,"o":"m 776 528 q 756 408 776 465 q 691 307 736 351 q 571 238 646 263 q 387 213 496 213 l 272 213 l 272 0 l 133 0 l 133 991 l 272 991 l 272 823 l 408 823 q 689 745 602 823 q 776 528 776 667 m 272 329 l 370 329 q 517 349 459 329 q 605 411 576 368 q 633 524 633 454 q 576 661 633 616 q 392 706 519 706 l 272 706 l 272 329 z "},"ß":{"ha":895,"x_min":116,"x_max":836,"o":"m 746 855 q 726 771 746 806 q 678 709 707 736 q 620 660 649 682 q 572 617 591 638 q 552 572 552 597 q 563 536 552 551 q 602 499 574 520 q 680 446 629 479 q 763 381 728 414 q 817 309 798 349 q 836 212 836 269 q 803 86 836 136 q 709 11 770 36 q 566 -14 649 -14 q 451 -2 500 -14 q 365 31 402 9 l 365 149 q 421 122 389 135 q 489 100 453 109 q 560 92 525 92 q 666 123 633 92 q 700 206 700 153 q 688 263 700 239 q 648 312 676 288 q 570 368 620 336 q 480 432 513 403 q 433 492 447 462 q 418 559 418 522 q 437 634 418 604 q 485 687 456 664 q 542 731 513 709 q 589 779 570 753 q 608 842 608 804 q 560 924 608 897 q 437 951 512 951 q 344 937 386 951 q 277 889 302 922 q 252 797 252 855 l 252 0 l 116 0 l 116 799 q 158 951 116 893 q 272 1036 200 1009 q 437 1063 345 1063 q 598 1039 529 1063 q 707 970 667 1016 q 746 855 746 924 z "},"à":{"ha":789,"x_min":62,"x_max":677,"o":"m 402 760 q 609 699 541 760 q 677 505 677 637 l 677 0 l 580 0 l 553 109 l 548 109 q 483 41 517 68 q 405 0 449 14 q 296 -14 360 -14 q 176 11 229 -14 q 93 84 123 35 q 62 210 62 134 q 150 382 62 323 q 415 447 237 441 l 544 452 l 544 494 q 505 618 544 582 q 396 654 466 654 q 286 637 338 654 q 184 597 233 621 l 140 696 q 261 742 193 724 q 402 760 328 760 m 543 363 l 438 358 q 256 315 309 353 q 203 208 203 277 q 239 121 203 149 q 334 93 275 93 q 484 144 425 93 q 543 296 543 195 l 543 363 m 351 1064 q 393 995 368 1033 q 446 920 418 956 q 496 859 473 884 l 496 842 l 404 842 q 349 888 379 861 q 288 946 318 916 q 232 1003 257 976 q 192 1050 207 1031 l 192 1064 l 351 1064 z "},"á":{"ha":789,"x_min":62,"x_max":677,"o":"m 402 760 q 609 699 541 760 q 677 505 677 637 l 677 0 l 580 0 l 553 109 l 548 109 q 483 41 517 68 q 405 0 449 14 q 296 -14 360 -14 q 176 11 229 -14 q 93 84 123 35 q 62 210 62 134 q 150 382 62 323 q 415 447 237 441 l 544 452 l 544 494 q 505 618 544 582 q 396 654 466 654 q 286 637 338 654 q 184 597 233 621 l 140 696 q 261 742 193 724 q 402 760 328 760 m 543 363 l 438 358 q 256 315 309 353 q 203 208 203 277 q 239 121 203 149 q 334 93 275 93 q 484 144 425 93 q 543 296 543 195 l 543 363 m 608 1064 l 608 1050 q 568 1003 593 1031 q 512 946 543 976 q 451 888 481 916 q 395 842 420 861 l 304 842 l 304 859 q 353 920 326 884 q 406 995 380 956 q 448 1064 431 1033 l 608 1064 z "},"â":{"ha":789,"x_min":62,"x_max":677,"o":"m 402 760 q 609 699 541 760 q 677 505 677 637 l 677 0 l 580 0 l 553 109 l 548 109 q 483 41 517 68 q 405 0 449 14 q 296 -14 360 -14 q 176 11 229 -14 q 93 84 123 35 q 62 210 62 134 q 150 382 62 323 q 415 447 237 441 l 544 452 l 544 494 q 505 618 544 582 q 396 654 466 654 q 286 637 338 654 q 184 597 233 621 l 140 696 q 261 742 193 724 q 402 760 328 760 m 543 363 l 438 358 q 256 315 309 353 q 203 208 203 277 q 239 121 203 149 q 334 93 275 93 q 484 144 425 93 q 543 296 543 195 l 543 363 m 469 1063 q 517 995 486 1033 q 582 920 548 956 q 642 857 616 884 l 642 842 l 547 842 q 471 898 511 865 q 395 969 431 932 q 319 899 358 932 q 244 842 281 866 l 152 842 l 152 857 q 211 921 178 884 q 274 995 243 957 q 323 1063 304 1033 l 469 1063 z "},"ã":{"ha":789,"x_min":62,"x_max":677,"o":"m 402 760 q 609 699 541 760 q 677 505 677 637 l 677 0 l 580 0 l 553 109 l 548 109 q 483 41 517 68 q 405 0 449 14 q 296 -14 360 -14 q 176 11 229 -14 q 93 84 123 35 q 62 210 62 134 q 150 382 62 323 q 415 447 237 441 l 544 452 l 544 494 q 505 618 544 582 q 396 654 466 654 q 286 637 338 654 q 184 597 233 621 l 140 696 q 261 742 193 724 q 402 760 328 760 m 543 363 l 438 358 q 256 315 309 353 q 203 208 203 277 q 239 121 203 149 q 334 93 275 93 q 484 144 425 93 q 543 296 543 195 l 543 363 m 132 843 q 148 921 136 887 q 181 978 161 955 q 230 1013 202 1001 q 290 1025 257 1025 q 348 1013 320 1025 q 402 985 376 1001 q 452 958 428 970 q 500 946 477 946 q 547 965 529 946 q 575 1026 566 985 l 650 1026 q 600 892 642 940 q 492 844 558 844 q 435 856 463 844 q 382 883 408 868 q 331 911 356 899 q 282 923 307 923 q 234 904 252 923 q 207 843 216 884 l 132 843 z "},"ä":{"ha":789,"x_min":62,"x_max":677,"o":"m 402 760 q 609 699 541 760 q 677 505 677 637 l 677 0 l 580 0 l 553 109 l 548 109 q 483 41 517 68 q 405 0 449 14 q 296 -14 360 -14 q 176 11 229 -14 q 93 84 123 35 q 62 210 62 134 q 150 382 62 323 q 415 447 237 441 l 544 452 l 544 494 q 505 618 544 582 q 396 654 466 654 q 286 637 338 654 q 184 597 233 621 l 140 696 q 261 742 193 724 q 402 760 328 760 m 543 363 l 438 358 q 256 315 309 353 q 203 208 203 277 q 239 121 203 149 q 334 93 275 93 q 484 144 425 93 q 543 296 543 195 l 543 363 m 192 947 q 212 1002 192 985 q 262 1019 233 1019 q 312 1002 291 1019 q 332 947 332 985 q 312 893 332 911 q 262 875 291 875 q 212 893 233 875 q 192 947 192 911 m 456 947 q 476 1002 456 985 q 525 1019 496 1019 q 575 1002 554 1019 q 596 947 596 985 q 575 893 596 911 q 525 875 554 875 q 476 893 496 875 q 456 947 456 911 z "},"å":{"ha":789,"x_min":62,"x_max":677,"o":"m 402 760 q 609 699 541 760 q 677 505 677 637 l 677 0 l 580 0 l 553 109 l 548 109 q 483 41 517 68 q 405 0 449 14 q 296 -14 360 -14 q 176 11 229 -14 q 93 84 123 35 q 62 210 62 134 q 150 382 62 323 q 415 447 237 441 l 544 452 l 544 494 q 505 618 544 582 q 396 654 466 654 q 286 637 338 654 q 184 597 233 621 l 140 696 q 261 742 193 724 q 402 760 328 760 m 543 363 l 438 358 q 256 315 309 353 q 203 208 203 277 q 239 121 203 149 q 334 93 275 93 q 484 144 425 93 q 543 296 543 195 l 543 363 m 395 842 q 283 882 326 842 q 240 992 240 922 q 283 1101 240 1061 q 395 1141 326 1141 q 507 1102 461 1141 q 552 994 552 1062 q 507 882 552 922 q 395 842 462 842 m 395 915 q 450 936 429 915 q 472 992 472 956 q 450 1048 472 1027 q 395 1069 427 1069 q 340 1048 362 1069 q 317 992 317 1027 q 337 936 317 956 q 395 915 357 915 z "},"æ":{"ha":1217,"x_min":62,"x_max":1148,"o":"m 851 761 q 1009 719 943 761 q 1112 602 1076 677 q 1148 425 1148 526 l 1148 346 l 665 346 q 722 159 667 221 q 878 97 777 97 q 1001 111 946 97 q 1113 151 1056 124 l 1113 36 q 1001 -2 1057 10 q 872 -14 946 -14 q 754 4 808 -14 q 658 57 700 22 q 587 144 616 92 q 516 59 554 94 q 426 5 477 24 q 299 -14 374 -14 q 178 11 232 -14 q 94 84 125 35 q 62 210 62 134 q 100 337 62 286 q 212 416 137 388 q 399 447 287 444 l 526 452 l 526 503 q 487 620 526 585 q 379 654 447 654 q 272 638 324 654 q 171 598 219 622 l 127 696 q 249 742 180 724 q 389 760 318 760 q 530 732 473 760 q 616 641 587 703 q 713 729 654 698 q 851 761 772 761 m 524 363 l 425 358 q 253 315 303 353 q 203 208 203 277 q 238 121 203 149 q 329 93 272 93 q 429 116 385 93 q 499 183 473 138 q 524 296 524 229 l 524 363 m 849 655 q 722 602 770 655 q 668 447 675 549 l 1010 447 q 992 556 1010 509 q 939 629 975 603 q 849 655 903 655 z "},"ç":{"ha":677,"x_min":74,"x_max":633,"o":"m 416 -14 q 236 28 313 -14 q 116 154 159 69 q 74 370 74 239 q 119 592 74 505 q 245 720 165 678 q 429 761 326 761 q 544 749 490 761 q 633 718 597 736 l 592 608 q 510 634 554 623 q 427 646 467 646 q 308 614 355 646 q 237 522 261 583 q 214 371 214 460 q 237 224 214 284 q 306 133 260 164 q 420 102 352 102 q 529 115 481 102 q 618 150 577 129 l 618 30 q 531 -3 578 8 q 416 -14 484 -14 m 537 -188 q 488 -295 537 -256 q 334 -334 438 -334 q 291 -331 311 -334 q 257 -324 271 -328 l 257 -243 q 294 -248 271 -245 q 336 -251 316 -251 q 404 -238 380 -251 q 428 -192 428 -224 q 394 -140 428 -157 q 303 -115 361 -122 l 361 0 l 450 0 l 418 -67 q 478 -90 451 -75 q 521 -129 505 -104 q 537 -188 537 -153 z "},"è":{"ha":790,"x_min":74,"x_max":721,"o":"m 409 761 q 576 719 507 761 q 684 602 646 677 q 721 422 721 526 l 721 345 l 214 345 q 275 161 216 225 q 443 97 335 97 q 570 111 514 97 q 685 151 625 124 l 685 36 q 572 -2 629 10 q 437 -14 515 -14 q 247 30 328 -14 q 119 158 165 73 q 74 368 74 243 q 115 579 74 492 q 232 714 157 667 q 409 761 307 761 m 408 655 q 275 601 326 655 q 216 447 225 547 l 584 447 q 564 555 583 509 q 507 629 545 602 q 408 655 469 655 m 356 1064 q 399 995 374 1033 q 451 920 424 956 q 501 859 479 884 l 501 842 l 410 842 q 354 888 385 861 q 293 946 323 916 q 237 1003 262 976 q 197 1050 212 1031 l 197 1064 l 356 1064 z "},"é":{"ha":790,"x_min":74,"x_max":721,"o":"m 409 761 q 576 719 507 761 q 684 602 646 677 q 721 422 721 526 l 721 345 l 214 345 q 275 161 216 225 q 443 97 335 97 q 570 111 514 97 q 685 151 625 124 l 685 36 q 572 -2 629 10 q 437 -14 515 -14 q 247 30 328 -14 q 119 158 165 73 q 74 368 74 243 q 115 579 74 492 q 232 714 157 667 q 409 761 307 761 m 408 655 q 275 601 326 655 q 216 447 225 547 l 584 447 q 564 555 583 509 q 507 629 545 602 q 408 655 469 655 m 613 1064 l 613 1050 q 573 1003 598 1031 q 517 946 547 976 q 456 888 486 916 q 400 842 425 861 l 309 842 l 309 859 q 358 920 331 884 q 410 995 385 956 q 453 1064 436 1033 l 613 1064 z "},"ê":{"ha":790,"x_min":74,"x_max":721,"o":"m 409 761 q 576 719 507 761 q 684 602 646 677 q 721 422 721 526 l 721 345 l 214 345 q 275 161 216 225 q 443 97 335 97 q 570 111 514 97 q 685 151 625 124 l 685 36 q 572 -2 629 10 q 437 -14 515 -14 q 247 30 328 -14 q 119 158 165 73 q 74 368 74 243 q 115 579 74 492 q 232 714 157 667 q 409 761 307 761 m 408 655 q 275 601 326 655 q 216 447 225 547 l 584 447 q 564 555 583 509 q 507 629 545 602 q 408 655 469 655 m 473 1063 q 522 995 491 1033 q 587 920 553 956 q 646 857 621 884 l 646 842 l 552 842 q 476 898 515 865 q 399 969 436 932 q 324 899 363 932 q 249 842 286 866 l 157 842 l 157 857 q 215 921 182 884 q 279 995 248 957 q 328 1063 309 1033 l 473 1063 z "},"ë":{"ha":790,"x_min":74,"x_max":721,"o":"m 409 761 q 576 719 507 761 q 684 602 646 677 q 721 422 721 526 l 721 345 l 214 345 q 275 161 216 225 q 443 97 335 97 q 570 111 514 97 q 685 151 625 124 l 685 36 q 572 -2 629 10 q 437 -14 515 -14 q 247 30 328 -14 q 119 158 165 73 q 74 368 74 243 q 115 579 74 492 q 232 714 157 667 q 409 761 307 761 m 408 655 q 275 601 326 655 q 216 447 225 547 l 584 447 q 564 555 583 509 q 507 629 545 602 q 408 655 469 655 m 197 947 q 218 1002 197 985 q 267 1019 238 1019 q 317 1002 296 1019 q 338 947 338 985 q 317 893 338 911 q 267 875 296 875 q 218 893 238 875 q 197 947 197 911 m 461 947 q 481 1002 461 985 q 530 1019 501 1019 q 581 1002 559 1019 q 602 947 602 985 q 581 893 602 911 q 530 875 559 875 q 481 893 501 875 q 461 947 461 911 z "},"ì":{"ha":369,"x_min":-17,"x_max":287,"o":"m 252 0 l 116 0 l 116 747 l 252 747 l 252 0 m 142 1064 q 184 995 159 1033 q 237 920 210 956 q 287 859 264 884 l 287 842 l 195 842 q 140 888 170 861 q 79 946 109 916 q 23 1003 48 976 q -17 1050 -2 1031 l -17 1064 l 142 1064 z "},"í":{"ha":369,"x_min":95,"x_max":399,"o":"m 252 0 l 116 0 l 116 747 l 252 747 l 252 0 m 399 1064 l 399 1050 q 358 1003 384 1031 q 302 946 333 976 q 241 888 272 916 q 186 842 211 861 l 95 842 l 95 859 q 143 920 117 884 q 196 995 170 956 q 239 1064 222 1033 l 399 1064 z "},"î":{"ha":369,"x_min":-58,"x_max":431,"o":"m 252 0 l 116 0 l 116 747 l 252 747 l 252 0 m 258 1063 q 307 995 276 1033 q 372 920 338 956 q 431 857 406 884 l 431 842 l 337 842 q 261 898 300 865 q 184 969 221 932 q 109 899 148 932 q 34 842 71 866 l -58 842 l -58 857 q 0 921 -33 884 q 64 995 33 957 q 113 1063 94 1033 l 258 1063 z "},"ï":{"ha":369,"x_min":-18,"x_max":386,"o":"m 252 0 l 116 0 l 116 747 l 252 747 l 252 0 m -18 947 q 3 1002 -18 985 q 52 1019 23 1019 q 102 1002 81 1019 q 123 947 123 985 q 102 893 123 911 q 52 875 81 875 q 3 893 23 875 q -18 947 -18 911 m 246 947 q 266 1002 246 985 q 315 1019 286 1019 q 366 1002 345 1019 q 387 947 387 985 q 366 893 387 911 q 315 875 345 875 q 266 893 286 875 q 246 947 246 911 z "},"ð":{"ha":840,"x_min":73,"x_max":766,"o":"m 301 1062 q 392 1016 348 1040 q 475 962 436 991 l 633 1056 l 686 978 l 554 900 q 667 761 619 839 q 741 589 715 684 q 766 383 766 494 q 725 166 766 254 q 605 32 683 77 q 417 -14 526 -14 q 239 27 317 -14 q 117 144 161 68 q 73 325 73 220 q 114 505 73 430 q 227 620 154 580 q 398 661 300 661 q 488 652 448 661 q 558 626 528 643 q 609 582 589 608 l 615 584 q 551 724 593 660 q 452 839 508 787 l 277 736 l 224 816 l 371 901 q 312 939 343 920 q 250 974 281 958 l 301 1062 m 421 554 q 302 527 349 554 q 234 449 256 500 q 212 321 212 397 q 234 203 212 254 q 302 122 256 151 q 420 94 348 94 q 578 160 528 94 q 628 356 628 227 q 616 431 628 395 q 578 494 604 466 q 514 538 553 522 q 421 554 475 554 z "},"ñ":{"ha":867,"x_min":116,"x_max":756,"o":"m 488 761 q 687 696 617 761 q 756 487 756 631 l 756 0 l 621 0 l 621 469 q 582 603 621 558 q 461 648 543 648 q 299 580 345 648 q 252 381 252 511 l 252 0 l 116 0 l 116 747 l 224 747 l 243 642 l 251 642 q 311 708 275 682 q 393 748 348 734 q 488 761 438 761 m 173 843 q 190 921 177 887 q 223 978 202 955 q 271 1013 243 1001 q 331 1025 298 1025 q 390 1013 361 1025 q 444 985 418 1001 q 494 958 469 970 q 541 946 518 946 q 589 965 570 946 q 616 1026 607 985 l 692 1026 q 641 892 683 940 q 534 844 600 844 q 476 856 504 844 q 423 883 449 868 q 373 911 397 899 q 323 923 348 923 q 276 904 294 923 q 248 843 258 884 l 173 843 z "},"ò":{"ha":842,"x_min":74,"x_max":769,"o":"m 769 375 q 745 211 769 283 q 675 89 721 138 q 565 13 629 39 q 419 -14 500 -14 q 280 13 343 -14 q 170 89 216 39 q 99 211 124 138 q 74 375 74 283 q 116 584 74 498 q 236 716 158 671 q 423 761 315 761 q 604 715 526 761 q 726 584 682 670 q 769 375 769 498 m 214 375 q 236 227 214 289 q 303 132 258 165 q 422 98 349 98 q 539 132 493 98 q 607 227 585 165 q 629 375 629 289 q 607 522 629 460 q 539 615 585 583 q 420 648 494 648 q 263 576 313 648 q 214 375 214 505 m 378 1064 q 421 995 396 1033 q 474 920 446 956 q 524 859 501 884 l 524 842 l 432 842 q 376 888 407 861 q 315 946 346 916 q 260 1003 285 976 q 220 1050 235 1031 l 220 1064 l 378 1064 z "},"ó":{"ha":842,"x_min":74,"x_max":769,"o":"m 769 375 q 745 211 769 283 q 675 89 721 138 q 565 13 629 39 q 419 -14 500 -14 q 280 13 343 -14 q 170 89 216 39 q 99 211 124 138 q 74 375 74 283 q 116 584 74 498 q 236 716 158 671 q 423 761 315 761 q 604 715 526 761 q 726 584 682 670 q 769 375 769 498 m 214 375 q 236 227 214 289 q 303 132 258 165 q 422 98 349 98 q 539 132 493 98 q 607 227 585 165 q 629 375 629 289 q 607 522 629 460 q 539 615 585 583 q 420 648 494 648 q 263 576 313 648 q 214 375 214 505 m 635 1064 l 635 1050 q 595 1003 621 1031 q 539 946 570 976 q 478 888 509 916 q 422 842 448 861 l 332 842 l 332 859 q 380 920 353 884 q 433 995 407 956 q 475 1064 458 1033 l 635 1064 z "},"ô":{"ha":842,"x_min":74,"x_max":769,"o":"m 769 375 q 745 211 769 283 q 675 89 721 138 q 565 13 629 39 q 419 -14 500 -14 q 280 13 343 -14 q 170 89 216 39 q 99 211 124 138 q 74 375 74 283 q 116 584 74 498 q 236 716 158 671 q 423 761 315 761 q 604 715 526 761 q 726 584 682 670 q 769 375 769 498 m 214 375 q 236 227 214 289 q 303 132 258 165 q 422 98 349 98 q 539 132 493 98 q 607 227 585 165 q 629 375 629 289 q 607 522 629 460 q 539 615 585 583 q 420 648 494 648 q 263 576 313 648 q 214 375 214 505 m 496 1063 q 544 995 513 1033 q 609 920 575 956 q 669 857 643 884 l 669 842 l 574 842 q 498 898 538 865 q 422 969 458 932 q 347 899 385 932 q 271 842 308 866 l 179 842 l 179 857 q 238 921 205 884 q 301 995 271 957 q 350 1063 332 1033 l 496 1063 z "},"õ":{"ha":842,"x_min":74,"x_max":769,"o":"m 769 375 q 745 211 769 283 q 675 89 721 138 q 565 13 629 39 q 419 -14 500 -14 q 280 13 343 -14 q 170 89 216 39 q 99 211 124 138 q 74 375 74 283 q 116 584 74 498 q 236 716 158 671 q 423 761 315 761 q 604 715 526 761 q 726 584 682 670 q 769 375 769 498 m 214 375 q 236 227 214 289 q 303 132 258 165 q 422 98 349 98 q 539 132 493 98 q 607 227 585 165 q 629 375 629 289 q 607 522 629 460 q 539 615 585 583 q 420 648 494 648 q 263 576 313 648 q 214 375 214 505 m 159 843 q 176 921 163 887 q 209 978 189 955 q 257 1013 230 1001 q 317 1025 285 1025 q 376 1013 348 1025 q 430 985 404 1001 q 480 958 456 970 q 528 946 505 946 q 575 965 557 946 q 603 1026 593 985 l 678 1026 q 628 892 669 940 q 520 844 586 844 q 463 856 490 844 q 410 883 435 868 q 359 911 384 899 q 310 923 334 923 q 262 904 280 923 q 235 843 244 884 l 159 843 z "},"ö":{"ha":842,"x_min":74,"x_max":769,"o":"m 769 375 q 745 211 769 283 q 675 89 721 138 q 565 13 629 39 q 419 -14 500 -14 q 280 13 343 -14 q 170 89 216 39 q 99 211 124 138 q 74 375 74 283 q 116 584 74 498 q 236 716 158 671 q 423 761 315 761 q 604 715 526 761 q 726 584 682 670 q 769 375 769 498 m 214 375 q 236 227 214 289 q 303 132 258 165 q 422 98 349 98 q 539 132 493 98 q 607 227 585 165 q 629 375 629 289 q 607 522 629 460 q 539 615 585 583 q 420 648 494 648 q 263 576 313 648 q 214 375 214 505 m 219 947 q 239 1002 219 985 q 289 1019 260 1019 q 339 1002 318 1019 q 359 947 359 985 q 339 893 359 911 q 289 875 318 875 q 239 893 260 875 q 219 947 219 911 m 483 947 q 503 1002 483 985 q 552 1019 523 1019 q 602 1002 581 1019 q 623 947 623 985 q 602 893 623 911 q 552 875 581 875 q 503 893 523 875 q 483 947 483 911 z "},"÷":{"ha":794,"x_min":67,"x_max":726,"o":"m 67 437 l 67 543 l 726 543 l 726 437 l 67 437 m 396 166 q 340 187 363 166 q 317 252 317 208 q 340 318 317 299 q 396 337 363 337 q 451 318 428 337 q 473 252 473 299 q 451 187 473 208 q 396 166 428 166 m 396 642 q 340 662 363 642 q 317 728 317 683 q 340 793 317 774 q 396 812 363 812 q 451 793 428 812 q 473 728 473 774 q 451 662 473 683 q 396 642 428 642 z "},"ø":{"ha":842,"x_min":74,"x_max":769,"o":"m 769 375 q 727 165 769 252 q 606 32 684 78 q 419 -14 527 -14 q 323 -2 368 -14 q 241 32 279 9 l 185 -47 l 104 9 l 165 93 q 98 214 121 144 q 74 375 74 285 q 168 660 74 559 q 423 761 261 761 q 520 748 475 761 q 604 712 566 736 l 656 787 l 739 731 l 680 650 q 746 531 722 600 q 769 375 769 463 m 214 375 q 221 283 214 325 q 244 209 229 241 l 536 615 q 485 639 513 631 q 420 648 456 648 q 263 576 313 648 q 214 375 214 505 m 629 375 q 622 462 629 422 q 600 533 614 502 l 310 129 q 359 106 331 114 q 422 98 388 98 q 539 132 493 98 q 607 227 585 165 q 629 375 629 289 z "},"ù":{"ha":867,"x_min":109,"x_max":751,"o":"m 751 747 l 751 0 l 642 0 l 623 102 l 615 102 q 555 38 592 64 q 473 -1 519 12 q 377 -14 428 -14 q 231 15 291 -14 q 140 103 171 43 q 109 258 109 163 l 109 747 l 246 747 l 246 277 q 285 142 246 187 q 404 98 324 98 q 528 129 482 98 q 594 219 574 159 q 614 364 614 278 l 614 747 l 751 747 m 391 1064 q 433 995 408 1033 q 486 920 458 956 q 536 859 513 884 l 536 842 l 444 842 q 389 888 419 861 q 328 946 358 916 q 272 1003 297 976 q 232 1050 247 1031 l 232 1064 l 391 1064 z "},"ú":{"ha":867,"x_min":109,"x_max":751,"o":"m 751 747 l 751 0 l 642 0 l 623 102 l 615 102 q 555 38 592 64 q 473 -1 519 12 q 377 -14 428 -14 q 231 15 291 -14 q 140 103 171 43 q 109 258 109 163 l 109 747 l 246 747 l 246 277 q 285 142 246 187 q 404 98 324 98 q 528 129 482 98 q 594 219 574 159 q 614 364 614 278 l 614 747 l 751 747 m 648 1064 l 648 1050 q 607 1003 633 1031 q 551 946 582 976 q 490 888 521 916 q 435 842 460 861 l 344 842 l 344 859 q 392 920 366 884 q 445 995 419 956 q 488 1064 471 1033 l 648 1064 z "},"û":{"ha":867,"x_min":109,"x_max":751,"o":"m 751 747 l 751 0 l 642 0 l 623 102 l 615 102 q 555 38 592 64 q 473 -1 519 12 q 377 -14 428 -14 q 231 15 291 -14 q 140 103 171 43 q 109 258 109 163 l 109 747 l 246 747 l 246 277 q 285 142 246 187 q 404 98 324 98 q 528 129 482 98 q 594 219 574 159 q 614 364 614 278 l 614 747 l 751 747 m 508 1063 q 556 995 526 1033 q 621 920 587 956 q 681 857 655 884 l 681 842 l 587 842 q 510 898 550 865 q 434 969 471 932 q 359 899 397 932 q 283 842 320 866 l 191 842 l 191 857 q 250 921 217 884 q 313 995 283 957 q 362 1063 344 1033 l 508 1063 z "},"ü":{"ha":867,"x_min":109,"x_max":751,"o":"m 751 747 l 751 0 l 642 0 l 623 102 l 615 102 q 555 38 592 64 q 473 -1 519 12 q 377 -14 428 -14 q 231 15 291 -14 q 140 103 171 43 q 109 258 109 163 l 109 747 l 246 747 l 246 277 q 285 142 246 187 q 404 98 324 98 q 528 129 482 98 q 594 219 574 159 q 614 364 614 278 l 614 747 l 751 747 m 231 947 q 252 1002 231 985 q 301 1019 272 1019 q 351 1002 330 1019 q 372 947 372 985 q 351 893 372 911 q 301 875 330 875 q 252 893 272 875 q 231 947 231 911 m 495 947 q 515 1002 495 985 q 564 1019 535 1019 q 614 1002 593 1019 q 635 947 635 985 q 614 893 635 911 q 564 875 593 875 q 515 893 535 875 q 495 947 495 911 z "},"ý":{"ha":720,"x_min":1,"x_max":720,"o":"m 1 747 l 149 747 l 307 317 q 330 252 319 283 q 348 191 340 220 q 361 133 356 161 l 366 133 q 389 217 374 168 q 421 317 404 267 l 573 747 l 720 747 l 397 -106 q 333 -228 370 -177 q 243 -307 295 -279 q 121 -334 192 -334 q 64 -331 89 -334 q 22 -322 39 -327 l 22 -214 q 58 -220 37 -217 q 102 -222 79 -222 q 176 -206 145 -222 q 229 -159 207 -189 q 266 -87 251 -128 l 300 1 l 1 747 m 574 1064 l 574 1050 q 533 1003 559 1031 q 477 946 508 976 q 416 888 447 916 q 361 842 386 861 l 270 842 l 270 859 q 318 920 292 884 q 371 995 345 956 q 414 1064 397 1033 l 574 1064 z "},"þ":{"ha":857,"x_min":116,"x_max":783,"o":"m 783 376 q 746 162 783 248 q 641 31 709 75 q 483 -14 574 -14 q 380 1 425 -14 q 305 41 336 16 q 253 96 274 66 l 244 96 q 248 61 246 83 q 252 16 250 39 q 253 -23 253 -7 l 253 -332 l 116 -332 l 116 1055 l 253 1055 l 253 755 q 251 696 253 730 q 248 642 250 662 l 254 642 q 306 701 275 674 q 380 745 336 728 q 484 761 425 761 q 702 663 620 761 q 783 376 783 566 m 644 377 q 597 581 644 513 q 453 648 551 648 q 300 586 345 648 q 253 399 254 523 l 253 375 q 297 170 253 241 q 454 98 341 98 q 560 131 518 98 q 623 225 602 163 q 644 377 644 288 z "},"ÿ":{"ha":720,"x_min":1,"x_max":720,"o":"m 1 747 l 149 747 l 307 317 q 330 252 319 283 q 348 191 340 220 q 361 133 356 161 l 366 133 q 389 217 374 168 q 421 317 404 267 l 573 747 l 720 747 l 397 -106 q 333 -228 370 -177 q 243 -307 295 -279 q 121 -334 192 -334 q 64 -331 89 -334 q 22 -322 39 -327 l 22 -214 q 58 -220 37 -217 q 102 -222 79 -222 q 176 -206 145 -222 q 229 -159 207 -189 q 266 -87 251 -128 l 300 1 l 1 747 m 157 947 q 178 1002 157 985 q 227 1019 198 1019 q 277 1002 256 1019 q 298 947 298 985 q 277 893 298 911 q 227 875 256 875 q 178 893 198 875 q 157 947 157 911 m 421 947 q 441 1002 421 985 q 490 1019 461 1019 q 541 1002 519 1019 q 562 947 562 985 q 541 893 562 911 q 490 875 519 875 q 441 893 461 875 q 421 947 421 911 z "},"Ā":{"ha":899,"x_min":0,"x_max":897,"o":"m 751 0 l 642 295 l 253 295 l 144 0 l 0 0 l 378 996 l 521 996 l 897 0 l 751 0 m 603 416 l 498 708 q 484 753 494 723 q 464 814 474 783 q 448 867 454 846 q 433 809 441 840 q 415 751 424 778 q 401 708 407 724 l 296 416 l 603 416 m 658 1192 l 658 1088 l 238 1088 l 238 1192 l 658 1192 z "},"ā":{"ha":789,"x_min":62,"x_max":677,"o":"m 402 760 q 609 699 541 760 q 677 505 677 637 l 677 0 l 580 0 l 553 109 l 548 109 q 483 41 517 68 q 405 0 449 14 q 296 -14 360 -14 q 176 11 229 -14 q 93 84 123 35 q 62 210 62 134 q 150 382 62 323 q 415 447 237 441 l 544 452 l 544 494 q 505 618 544 582 q 396 654 466 654 q 286 637 338 654 q 184 597 233 621 l 140 696 q 261 742 193 724 q 402 760 328 760 m 543 363 l 438 358 q 256 315 309 353 q 203 208 203 277 q 239 121 203 149 q 334 93 275 93 q 484 144 425 93 q 543 296 543 195 l 543 363 m 604 947 l 604 843 l 184 843 l 184 947 l 604 947 z "},"Ă":{"ha":899,"x_min":0,"x_max":897,"o":"m 751 0 l 642 295 l 253 295 l 144 0 l 0 0 l 378 996 l 521 996 l 897 0 l 751 0 m 603 416 l 498 708 q 484 753 494 723 q 464 814 474 783 q 448 867 454 846 q 433 809 441 840 q 415 751 424 778 q 401 708 407 724 l 296 416 l 603 416 m 678 1281 q 645 1180 673 1223 q 568 1111 617 1136 q 450 1086 518 1086 q 290 1139 346 1086 q 229 1281 234 1192 l 311 1281 q 332 1224 314 1243 q 380 1198 350 1204 q 452 1192 411 1192 q 519 1199 489 1192 q 570 1225 550 1206 q 595 1281 590 1245 l 678 1281 z "},"ă":{"ha":789,"x_min":62,"x_max":677,"o":"m 402 760 q 609 699 541 760 q 677 505 677 637 l 677 0 l 580 0 l 553 109 l 548 109 q 483 41 517 68 q 405 0 449 14 q 296 -14 360 -14 q 176 11 229 -14 q 93 84 123 35 q 62 210 62 134 q 150 382 62 323 q 415 447 237 441 l 544 452 l 544 494 q 505 618 544 582 q 396 654 466 654 q 286 637 338 654 q 184 597 233 621 l 140 696 q 261 742 193 724 q 402 760 328 760 m 543 363 l 438 358 q 256 315 309 353 q 203 208 203 277 q 239 121 203 149 q 334 93 275 93 q 484 144 425 93 q 543 296 543 195 l 543 363 m 624 1036 q 591 935 619 979 q 513 866 563 891 q 396 842 464 842 q 236 895 292 842 q 174 1036 180 947 l 256 1036 q 278 979 260 998 q 326 953 296 960 q 398 947 357 947 q 465 954 435 947 q 516 981 496 961 q 541 1036 536 1000 l 624 1036 z "},"Ą":{"ha":899,"x_min":0,"x_max":897,"o":"m 751 0 l 642 295 l 253 295 l 144 0 l 0 0 l 378 996 l 521 996 l 897 0 l 751 0 m 603 416 l 498 708 q 484 753 494 723 q 464 814 474 783 q 448 867 454 846 q 433 809 441 840 q 415 751 424 778 q 401 708 407 724 l 296 416 l 603 416 m 759 -161 q 775 -208 759 -192 q 821 -224 791 -224 q 861 -220 843 -224 q 890 -214 878 -217 l 890 -299 q 850 -308 871 -304 q 800 -312 829 -312 q 690 -276 728 -312 q 653 -176 653 -239 q 673 -100 653 -137 q 724 -32 693 -63 q 788 21 755 -1 l 857 0 q 784 -81 810 -43 q 759 -161 759 -119 z "},"ą":{"ha":789,"x_min":62,"x_max":707,"o":"m 402 760 q 609 699 541 760 q 677 505 677 637 l 677 0 l 580 0 l 553 109 l 548 109 q 483 41 517 68 q 405 0 449 14 q 296 -14 360 -14 q 176 11 229 -14 q 93 84 123 35 q 62 210 62 134 q 150 382 62 323 q 415 447 237 441 l 544 452 l 544 494 q 505 618 544 582 q 396 654 466 654 q 286 637 338 654 q 184 597 233 621 l 140 696 q 261 742 193 724 q 402 760 328 760 m 543 363 l 438 358 q 256 315 309 353 q 203 208 203 277 q 239 121 203 149 q 334 93 275 93 q 484 144 425 93 q 543 296 543 195 l 543 363 m 576 -161 q 592 -208 576 -192 q 638 -224 608 -224 q 677 -220 660 -224 q 707 -214 695 -217 l 707 -299 q 667 -308 688 -304 q 617 -312 646 -312 q 507 -276 545 -312 q 470 -176 470 -239 q 490 -100 470 -137 q 541 -32 510 -63 q 605 21 572 -1 l 674 0 q 601 -81 627 -43 q 576 -161 576 -119 z "},"Ć":{"ha":878,"x_min":84,"x_max":833,"o":"m 556 886 q 419 859 479 886 q 316 781 358 832 q 252 658 274 730 q 229 496 229 586 q 265 288 229 376 q 372 153 300 201 q 553 106 444 106 q 678 118 618 106 q 796 149 737 130 l 796 29 q 679 -3 739 7 q 536 -14 618 -14 q 284 50 385 -14 q 134 227 183 113 q 84 496 84 341 q 115 702 84 609 q 207 864 146 795 q 355 969 267 932 q 557 1006 443 1006 q 703 990 632 1006 q 833 945 774 974 l 782 829 q 676 869 732 852 q 556 886 619 886 m 740 1309 l 740 1295 q 700 1248 725 1276 q 644 1191 674 1221 q 583 1133 613 1160 q 527 1086 552 1106 l 436 1086 l 436 1103 q 485 1165 458 1129 q 537 1239 511 1201 q 580 1309 563 1278 l 740 1309 z "},"ć":{"ha":677,"x_min":74,"x_max":633,"o":"m 416 -14 q 236 28 313 -14 q 116 154 159 69 q 74 370 74 239 q 119 592 74 505 q 245 720 165 678 q 429 761 326 761 q 544 749 490 761 q 633 718 597 736 l 592 608 q 510 634 554 623 q 427 646 467 646 q 308 614 355 646 q 237 522 261 583 q 214 371 214 460 q 237 224 214 284 q 306 133 260 164 q 420 102 352 102 q 529 115 481 102 q 618 150 577 129 l 618 30 q 531 -3 578 8 q 416 -14 484 -14 m 610 1064 l 610 1050 q 569 1003 595 1031 q 513 946 544 976 q 452 888 483 916 q 397 842 422 861 l 306 842 l 306 859 q 354 920 328 884 q 407 995 381 956 q 450 1064 433 1033 l 610 1064 z "},"Ĉ":{"ha":878,"x_min":84,"x_max":833,"o":"m 556 886 q 419 859 479 886 q 316 781 358 832 q 252 658 274 730 q 229 496 229 586 q 265 288 229 376 q 372 153 300 201 q 553 106 444 106 q 678 118 618 106 q 796 149 737 130 l 796 29 q 679 -3 739 7 q 536 -14 618 -14 q 284 50 385 -14 q 134 227 183 113 q 84 496 84 341 q 115 702 84 609 q 207 864 146 795 q 355 969 267 932 q 557 1006 443 1006 q 703 990 632 1006 q 833 945 774 974 l 782 829 q 676 869 732 852 q 556 886 619 886 m 600 1308 q 648 1239 617 1278 q 713 1165 679 1201 q 772 1102 747 1128 l 772 1086 l 678 1086 q 602 1143 642 1109 q 526 1214 562 1177 q 450 1144 489 1177 q 375 1086 412 1111 l 283 1086 l 283 1102 q 341 1165 309 1129 q 405 1240 374 1202 q 454 1308 435 1278 l 600 1308 z "},"ĉ":{"ha":677,"x_min":74,"x_max":643,"o":"m 416 -14 q 236 28 313 -14 q 116 154 159 69 q 74 370 74 239 q 119 592 74 505 q 245 720 165 678 q 429 761 326 761 q 544 749 490 761 q 633 718 597 736 l 592 608 q 510 634 554 623 q 427 646 467 646 q 308 614 355 646 q 237 522 261 583 q 214 371 214 460 q 237 224 214 284 q 306 133 260 164 q 420 102 352 102 q 529 115 481 102 q 618 150 577 129 l 618 30 q 531 -3 578 8 q 416 -14 484 -14 m 470 1063 q 518 995 488 1033 q 583 920 549 956 q 643 857 617 884 l 643 842 l 549 842 q 472 898 512 865 q 396 969 433 932 q 321 899 359 932 q 245 842 282 866 l 153 842 l 153 857 q 212 921 179 884 q 275 995 245 957 q 324 1063 306 1033 l 470 1063 z "},"Ċ":{"ha":878,"x_min":84,"x_max":833,"o":"m 556 886 q 419 859 479 886 q 316 781 358 832 q 252 658 274 730 q 229 496 229 586 q 265 288 229 376 q 372 153 300 201 q 553 106 444 106 q 678 118 618 106 q 796 149 737 130 l 796 29 q 679 -3 739 7 q 536 -14 618 -14 q 284 50 385 -14 q 134 227 183 113 q 84 496 84 341 q 115 702 84 609 q 207 864 146 795 q 355 969 267 932 q 557 1006 443 1006 q 703 990 632 1006 q 833 945 774 974 l 782 829 q 676 869 732 852 q 556 886 619 886 m 529 1275 q 584 1256 561 1275 q 608 1194 608 1237 q 584 1132 608 1152 q 529 1113 561 1113 q 472 1132 495 1113 q 450 1194 450 1152 q 472 1256 450 1237 q 529 1275 495 1275 z "},"ċ":{"ha":677,"x_min":74,"x_max":633,"o":"m 416 -14 q 236 28 313 -14 q 116 154 159 69 q 74 370 74 239 q 119 592 74 505 q 245 720 165 678 q 429 761 326 761 q 544 749 490 761 q 633 718 597 736 l 592 608 q 510 634 554 623 q 427 646 467 646 q 308 614 355 646 q 237 522 261 583 q 214 371 214 460 q 237 224 214 284 q 306 133 260 164 q 420 102 352 102 q 529 115 481 102 q 618 150 577 129 l 618 30 q 531 -3 578 8 q 416 -14 484 -14 m 398 1030 q 453 1011 430 1030 q 477 949 477 992 q 453 887 477 907 q 398 868 430 868 q 341 887 364 868 q 319 949 319 907 q 341 1011 319 992 q 398 1030 364 1030 z "},"Č":{"ha":878,"x_min":84,"x_max":833,"o":"m 556 886 q 419 859 479 886 q 316 781 358 832 q 252 658 274 730 q 229 496 229 586 q 265 288 229 376 q 372 153 300 201 q 553 106 444 106 q 678 118 618 106 q 796 149 737 130 l 796 29 q 679 -3 739 7 q 536 -14 618 -14 q 284 50 385 -14 q 134 227 183 113 q 84 496 84 341 q 115 702 84 609 q 207 864 146 795 q 355 969 267 932 q 557 1006 443 1006 q 703 990 632 1006 q 833 945 774 974 l 782 829 q 676 869 732 852 q 556 886 619 886 m 453 1086 q 404 1155 435 1118 q 340 1229 374 1192 q 282 1291 307 1265 l 282 1308 l 374 1308 q 451 1250 411 1284 q 525 1179 490 1217 q 601 1251 562 1217 q 677 1308 641 1284 l 772 1308 l 772 1291 q 712 1229 746 1265 q 647 1155 678 1193 q 599 1086 616 1118 l 453 1086 z "},"č":{"ha":677,"x_min":74,"x_max":641,"o":"m 416 -14 q 236 28 313 -14 q 116 154 159 69 q 74 370 74 239 q 119 592 74 505 q 245 720 165 678 q 429 761 326 761 q 544 749 490 761 q 633 718 597 736 l 592 608 q 510 634 554 623 q 427 646 467 646 q 308 614 355 646 q 237 522 261 583 q 214 371 214 460 q 237 224 214 284 q 306 133 260 164 q 420 102 352 102 q 529 115 481 102 q 618 150 577 129 l 618 30 q 531 -3 578 8 q 416 -14 484 -14 m 322 842 q 273 910 304 873 q 210 984 243 947 q 151 1046 176 1020 l 151 1063 l 243 1063 q 320 1005 280 1039 q 394 934 359 972 q 470 1006 431 972 q 547 1063 510 1040 l 641 1063 l 641 1046 q 581 984 615 1020 q 516 910 547 948 q 468 842 486 873 l 322 842 z "},"Ď":{"ha":1013,"x_min":133,"x_max":929,"o":"m 929 505 q 867 225 929 338 q 689 57 806 113 q 405 0 572 0 l 133 0 l 133 991 l 435 991 q 698 936 587 991 q 869 773 808 881 q 929 505 929 665 m 783 501 q 742 711 783 629 q 621 834 701 794 q 425 875 541 875 l 272 875 l 272 118 l 400 118 q 688 214 592 118 q 783 501 783 311 m 430 1086 q 381 1155 412 1118 q 317 1229 351 1192 q 259 1291 284 1265 l 259 1308 l 351 1308 q 428 1250 388 1284 q 502 1179 467 1217 q 578 1251 538 1217 q 654 1308 618 1284 l 749 1308 l 749 1291 q 689 1229 723 1265 q 624 1155 655 1193 q 576 1086 593 1118 l 430 1086 z "},"ď":{"ha":857,"x_min":74,"x_max":971,"o":"m 374 -14 q 156 83 237 -14 q 74 371 74 180 q 157 662 74 564 q 378 761 240 761 q 479 745 435 761 q 554 704 522 730 q 606 646 585 678 l 614 646 q 608 705 611 667 q 604 771 604 743 l 604 1055 l 741 1055 l 741 0 l 633 0 l 610 104 l 604 104 q 552 44 584 71 q 477 2 521 18 q 374 -14 433 -14 m 406 98 q 563 161 517 98 q 609 351 608 225 l 609 372 q 565 577 609 505 q 405 648 522 648 q 262 574 310 648 q 214 368 214 500 q 262 168 214 238 q 406 98 310 98 m 970 1055 l 970 1043 q 947 979 963 1016 q 910 904 930 942 q 869 833 890 866 l 792 833 l 792 850 q 806 895 800 869 q 820 950 813 921 q 831 1006 826 979 q 839 1055 836 1033 l 970 1055 z "},"Đ":{"ha":1013,"x_min":37,"x_max":929,"o":"m 435 991 q 698 936 587 991 q 869 773 808 881 q 929 505 929 665 q 867 225 929 338 q 688 57 806 113 q 404 0 571 0 l 140 0 l 140 431 l 37 431 l 37 550 l 140 550 l 140 991 l 435 991 m 425 875 l 278 875 l 278 550 l 507 550 l 507 431 l 278 431 l 278 118 l 399 118 q 687 214 591 118 q 783 501 783 311 q 742 711 783 629 q 620 834 700 794 q 425 875 540 875 z "},"đ":{"ha":864,"x_min":74,"x_max":846,"o":"m 374 -14 q 156 82 237 -14 q 74 364 74 178 q 157 652 74 556 q 377 748 240 748 q 478 732 435 748 q 553 691 522 717 q 606 633 585 665 l 614 633 q 607 695 610 656 q 604 761 604 734 l 604 836 l 326 836 l 326 933 l 604 933 l 604 1055 l 741 1055 l 741 933 l 846 933 l 846 836 l 741 836 l 741 0 l 632 0 l 610 104 l 604 104 q 551 44 583 71 q 477 2 520 18 q 374 -14 433 -14 m 406 98 q 563 159 517 98 q 608 344 608 221 l 608 365 q 565 566 608 497 q 405 635 522 635 q 262 564 310 635 q 214 363 214 492 q 262 166 214 235 q 406 98 310 98 z "},"Ē":{"ha":773,"x_min":133,"x_max":690,"o":"m 690 0 l 133 0 l 133 991 l 690 991 l 690 872 l 272 872 l 272 577 l 665 577 l 665 459 l 272 459 l 272 120 l 690 120 l 690 0 m 633 1192 l 633 1088 l 213 1088 l 213 1192 l 633 1192 z "},"ē":{"ha":790,"x_min":74,"x_max":721,"o":"m 409 761 q 576 719 507 761 q 684 602 646 677 q 721 422 721 526 l 721 345 l 214 345 q 275 161 216 225 q 443 97 335 97 q 570 111 514 97 q 685 151 625 124 l 685 36 q 572 -2 629 10 q 437 -14 515 -14 q 247 30 328 -14 q 119 158 165 73 q 74 368 74 243 q 115 579 74 492 q 232 714 157 667 q 409 761 307 761 m 408 655 q 275 601 326 655 q 216 447 225 547 l 584 447 q 564 555 583 509 q 507 629 545 602 q 408 655 469 655 m 609 947 l 609 843 l 189 843 l 189 947 l 609 947 z "},"Ĕ":{"ha":773,"x_min":133,"x_max":690,"o":"m 690 0 l 133 0 l 133 991 l 690 991 l 690 872 l 272 872 l 272 577 l 665 577 l 665 459 l 272 459 l 272 120 l 690 120 l 690 0 m 652 1281 q 620 1180 648 1223 q 542 1111 591 1136 q 425 1086 492 1086 q 264 1139 320 1086 q 203 1281 208 1192 l 285 1281 q 306 1224 288 1243 q 355 1198 324 1204 q 427 1192 385 1192 q 494 1199 463 1192 q 544 1225 524 1206 q 569 1281 564 1245 l 652 1281 z "},"ĕ":{"ha":790,"x_min":74,"x_max":721,"o":"m 409 761 q 576 719 507 761 q 684 602 646 677 q 721 422 721 526 l 721 345 l 214 345 q 275 161 216 225 q 443 97 335 97 q 570 111 514 97 q 685 151 625 124 l 685 36 q 572 -2 629 10 q 437 -14 515 -14 q 247 30 328 -14 q 119 158 165 73 q 74 368 74 243 q 115 579 74 492 q 232 714 157 667 q 409 761 307 761 m 408 655 q 275 601 326 655 q 216 447 225 547 l 584 447 q 564 555 583 509 q 507 629 545 602 q 408 655 469 655 m 629 1036 q 596 935 625 979 q 519 866 568 891 q 401 842 469 842 q 241 895 297 842 q 180 1036 185 947 l 262 1036 q 283 979 265 998 q 332 953 301 960 q 404 947 362 947 q 471 954 440 947 q 521 981 501 961 q 546 1036 541 1000 l 629 1036 z "},"Ė":{"ha":773,"x_min":133,"x_max":690,"o":"m 690 0 l 133 0 l 133 991 l 690 991 l 690 872 l 272 872 l 272 577 l 665 577 l 665 459 l 272 459 l 272 120 l 690 120 l 690 0 m 425 1275 q 480 1256 457 1275 q 504 1194 504 1237 q 480 1132 504 1152 q 425 1113 457 1113 q 369 1132 391 1113 q 346 1194 346 1152 q 369 1256 346 1237 q 425 1275 391 1275 z "},"ė":{"ha":790,"x_min":74,"x_max":721,"o":"m 409 761 q 576 719 507 761 q 684 602 646 677 q 721 422 721 526 l 721 345 l 214 345 q 275 161 216 225 q 443 97 335 97 q 570 111 514 97 q 685 151 625 124 l 685 36 q 572 -2 629 10 q 437 -14 515 -14 q 247 30 328 -14 q 119 158 165 73 q 74 368 74 243 q 115 579 74 492 q 232 714 157 667 q 409 761 307 761 m 408 655 q 275 601 326 655 q 216 447 225 547 l 584 447 q 564 555 583 509 q 507 629 545 602 q 408 655 469 655 m 401 1030 q 457 1011 433 1030 q 480 949 480 992 q 457 887 480 907 q 401 868 433 868 q 345 887 368 868 q 322 949 322 907 q 345 1011 322 992 q 401 1030 368 1030 z "},"Ę":{"ha":773,"x_min":133,"x_max":690,"o":"m 690 0 l 133 0 l 133 991 l 690 991 l 690 872 l 272 872 l 272 577 l 665 577 l 665 459 l 272 459 l 272 120 l 690 120 l 690 0 m 553 -161 q 570 -208 553 -192 q 616 -224 586 -224 q 655 -220 637 -224 q 685 -214 673 -217 l 685 -299 q 644 -308 665 -304 q 595 -312 623 -312 q 485 -276 522 -312 q 448 -176 448 -239 q 468 -100 448 -137 q 518 -32 488 -63 q 583 21 549 -1 l 652 0 q 579 -81 604 -43 q 553 -161 553 -119 z "},"ę":{"ha":790,"x_min":74,"x_max":721,"o":"m 545 -161 q 561 -208 545 -192 q 606 -224 577 -224 q 646 -220 629 -224 q 675 -214 664 -217 l 675 -299 q 635 -308 656 -304 q 586 -312 614 -312 q 476 -276 513 -312 q 439 -176 439 -239 q 459 -100 439 -137 q 510 -32 479 -63 q 574 23 541 0 l 684 35 q 599 -43 629 -9 q 556 -105 568 -77 q 545 -161 545 -133 m 409 761 q 576 719 507 761 q 684 602 646 677 q 721 422 721 526 l 721 345 l 214 345 q 275 161 216 225 q 443 97 335 97 q 570 111 514 97 q 685 151 625 124 l 685 36 q 572 -2 629 10 q 437 -14 515 -14 q 247 30 328 -14 q 119 158 165 73 q 74 368 74 243 q 115 579 74 492 q 232 714 157 667 q 409 761 307 761 m 408 655 q 275 601 326 655 q 216 447 225 547 l 584 447 q 564 555 583 509 q 507 629 545 602 q 408 655 469 655 z "},"Ě":{"ha":773,"x_min":133,"x_max":690,"o":"m 690 0 l 133 0 l 133 991 l 690 991 l 690 872 l 272 872 l 272 577 l 665 577 l 665 459 l 272 459 l 272 120 l 690 120 l 690 0 m 350 1086 q 301 1155 332 1118 q 237 1229 271 1192 q 179 1291 204 1265 l 179 1308 l 271 1308 q 348 1250 308 1284 q 422 1179 387 1217 q 498 1251 458 1217 q 574 1308 538 1284 l 669 1308 l 669 1291 q 609 1229 643 1265 q 544 1155 575 1193 q 496 1086 513 1118 l 350 1086 z "},"ě":{"ha":790,"x_min":74,"x_max":721,"o":"m 409 761 q 576 719 507 761 q 684 602 646 677 q 721 422 721 526 l 721 345 l 214 345 q 275 161 216 225 q 443 97 335 97 q 570 111 514 97 q 685 151 625 124 l 685 36 q 572 -2 629 10 q 437 -14 515 -14 q 247 30 328 -14 q 119 158 165 73 q 74 368 74 243 q 115 579 74 492 q 232 714 157 667 q 409 761 307 761 m 408 655 q 275 601 326 655 q 216 447 225 547 l 584 447 q 564 555 583 509 q 507 629 545 602 q 408 655 469 655 m 326 842 q 277 910 308 873 q 214 984 247 947 q 155 1046 180 1020 l 155 1063 l 248 1063 q 324 1005 284 1039 q 398 934 363 972 q 474 1006 435 972 q 551 1063 514 1040 l 645 1063 l 645 1046 q 585 984 619 1020 q 520 910 551 948 q 472 842 490 873 l 326 842 z "},"Ĝ":{"ha":1009,"x_min":84,"x_max":903,"o":"m 545 529 l 903 529 l 903 40 q 743 0 825 14 q 557 -14 660 -14 q 298 47 404 -14 q 139 222 193 109 q 84 496 84 336 q 144 765 84 650 q 320 943 205 880 q 598 1006 435 1006 q 754 990 680 1006 q 892 947 829 975 l 842 829 q 725 870 789 853 q 593 886 661 886 q 397 838 479 886 q 272 703 315 790 q 228 495 228 615 q 264 290 228 378 q 379 154 301 203 q 580 105 457 105 q 685 112 642 105 q 766 128 729 119 l 766 408 l 545 408 l 545 529 m 634 1308 q 683 1239 652 1278 q 747 1165 713 1201 q 807 1102 781 1128 l 807 1086 l 713 1086 q 636 1143 676 1109 q 560 1214 597 1177 q 485 1144 524 1177 q 410 1086 446 1111 l 317 1086 l 317 1102 q 376 1165 343 1129 q 439 1240 409 1202 q 488 1308 470 1278 l 634 1308 z "},"ĝ":{"ha":762,"x_min":17,"x_max":737,"o":"m 328 -334 q 97 -279 178 -334 q 17 -125 17 -224 q 61 -7 17 -56 q 184 58 105 41 q 133 100 155 72 q 112 163 112 128 q 135 235 112 205 q 205 294 159 265 q 111 375 146 318 q 75 507 75 431 q 109 645 75 588 q 208 732 143 702 q 364 762 272 762 q 406 760 385 762 q 448 755 428 758 q 479 748 467 751 l 737 748 l 737 667 l 604 647 q 636 586 624 621 q 648 509 648 551 q 571 329 648 395 q 356 262 493 262 q 292 268 324 263 q 248 231 262 251 q 233 185 233 211 q 246 153 233 165 q 284 135 259 141 q 345 130 309 130 l 475 130 q 663 78 597 130 q 728 -73 728 26 q 625 -266 728 -198 q 328 -334 522 -334 m 332 -234 q 478 -216 420 -234 q 567 -166 537 -199 q 597 -89 597 -134 q 577 -27 597 -48 q 520 2 558 -5 q 427 9 482 9 l 303 9 q 220 -5 256 9 q 165 -48 185 -20 q 146 -118 146 -77 q 194 -204 146 -174 q 332 -234 243 -234 m 362 355 q 475 395 437 355 q 512 509 512 435 q 474 628 512 588 q 361 668 436 668 q 251 627 289 668 q 212 507 212 586 q 251 395 212 435 q 362 355 290 355 m 434 1063 q 483 995 452 1033 q 547 920 513 956 q 607 857 581 884 l 607 842 l 513 842 q 436 898 476 865 q 360 969 397 932 q 285 899 323 932 q 210 842 246 866 l 117 842 l 117 857 q 176 921 143 884 q 239 995 209 957 q 288 1063 270 1033 l 434 1063 z "},"Ğ":{"ha":1009,"x_min":84,"x_max":903,"o":"m 545 529 l 903 529 l 903 40 q 743 0 825 14 q 557 -14 660 -14 q 298 47 404 -14 q 139 222 193 109 q 84 496 84 336 q 144 765 84 650 q 320 943 205 880 q 598 1006 435 1006 q 754 990 680 1006 q 892 947 829 975 l 842 829 q 725 870 789 853 q 593 886 661 886 q 397 838 479 886 q 272 703 315 790 q 228 495 228 615 q 264 290 228 378 q 379 154 301 203 q 580 105 457 105 q 685 112 642 105 q 766 128 729 119 l 766 408 l 545 408 l 545 529 m 789 1281 q 756 1180 785 1223 q 679 1111 728 1136 q 562 1086 629 1086 q 401 1139 457 1086 q 340 1281 345 1192 l 422 1281 q 443 1224 425 1243 q 492 1198 461 1204 q 564 1192 522 1192 q 631 1199 600 1192 q 681 1225 661 1206 q 706 1281 701 1245 l 789 1281 z "},"ğ":{"ha":762,"x_min":17,"x_max":737,"o":"m 328 -334 q 97 -279 178 -334 q 17 -125 17 -224 q 61 -7 17 -56 q 184 58 105 41 q 133 100 155 72 q 112 163 112 128 q 135 235 112 205 q 205 294 159 265 q 111 375 146 318 q 75 507 75 431 q 109 645 75 588 q 208 732 143 702 q 364 762 272 762 q 406 760 385 762 q 448 755 428 758 q 479 748 467 751 l 737 748 l 737 667 l 604 647 q 636 586 624 621 q 648 509 648 551 q 571 329 648 395 q 356 262 493 262 q 292 268 324 263 q 248 231 262 251 q 233 185 233 211 q 246 153 233 165 q 284 135 259 141 q 345 130 309 130 l 475 130 q 663 78 597 130 q 728 -73 728 26 q 625 -266 728 -198 q 328 -334 522 -334 m 332 -234 q 478 -216 420 -234 q 567 -166 537 -199 q 597 -89 597 -134 q 577 -27 597 -48 q 520 2 558 -5 q 427 9 482 9 l 303 9 q 220 -5 256 9 q 165 -48 185 -20 q 146 -118 146 -77 q 194 -204 146 -174 q 332 -234 243 -234 m 362 355 q 475 395 437 355 q 512 509 512 435 q 474 628 512 588 q 361 668 436 668 q 251 627 289 668 q 212 507 212 586 q 251 395 212 435 q 362 355 290 355 m 587 1036 q 554 935 582 979 q 476 866 526 891 q 359 842 427 842 q 198 895 254 842 q 137 1036 142 947 l 219 1036 q 240 979 222 998 q 289 953 258 960 q 361 947 319 947 q 428 954 397 947 q 478 981 458 961 q 503 1036 498 1000 l 587 1036 z "},"Ġ":{"ha":1009,"x_min":84,"x_max":903,"o":"m 545 529 l 903 529 l 903 40 q 743 0 825 14 q 557 -14 660 -14 q 298 47 404 -14 q 139 222 193 109 q 84 496 84 336 q 144 765 84 650 q 320 943 205 880 q 598 1006 435 1006 q 754 990 680 1006 q 892 947 829 975 l 842 829 q 725 870 789 853 q 593 886 661 886 q 397 838 479 886 q 272 703 315 790 q 228 495 228 615 q 264 290 228 378 q 379 154 301 203 q 580 105 457 105 q 685 112 642 105 q 766 128 729 119 l 766 408 l 545 408 l 545 529 m 563 1275 q 618 1256 595 1275 q 642 1194 642 1237 q 618 1132 642 1152 q 563 1113 595 1113 q 506 1132 529 1113 q 484 1194 484 1152 q 506 1256 484 1237 q 563 1275 529 1275 z "},"ġ":{"ha":762,"x_min":17,"x_max":737,"o":"m 328 -334 q 97 -279 178 -334 q 17 -125 17 -224 q 61 -7 17 -56 q 184 58 105 41 q 133 100 155 72 q 112 163 112 128 q 135 235 112 205 q 205 294 159 265 q 111 375 146 318 q 75 507 75 431 q 109 645 75 588 q 208 732 143 702 q 364 762 272 762 q 406 760 385 762 q 448 755 428 758 q 479 748 467 751 l 737 748 l 737 667 l 604 647 q 636 586 624 621 q 648 509 648 551 q 571 329 648 395 q 356 262 493 262 q 292 268 324 263 q 248 231 262 251 q 233 185 233 211 q 246 153 233 165 q 284 135 259 141 q 345 130 309 130 l 475 130 q 663 78 597 130 q 728 -73 728 26 q 625 -266 728 -198 q 328 -334 522 -334 m 332 -234 q 478 -216 420 -234 q 567 -166 537 -199 q 597 -89 597 -134 q 577 -27 597 -48 q 520 2 558 -5 q 427 9 482 9 l 303 9 q 220 -5 256 9 q 165 -48 185 -20 q 146 -118 146 -77 q 194 -204 146 -174 q 332 -234 243 -234 m 362 355 q 475 395 437 355 q 512 509 512 435 q 474 628 512 588 q 361 668 436 668 q 251 627 289 668 q 212 507 212 586 q 251 395 212 435 q 362 355 290 355 m 363 1030 q 418 1011 395 1030 q 441 949 441 992 q 418 887 441 907 q 363 868 395 868 q 306 887 329 868 q 283 949 283 907 q 306 1011 283 992 q 363 1030 329 1030 z "},"Ģ":{"ha":1009,"x_min":84,"x_max":903,"o":"m 545 529 l 903 529 l 903 40 q 743 0 825 14 q 557 -14 660 -14 q 298 47 404 -14 q 139 222 193 109 q 84 496 84 336 q 144 765 84 650 q 320 943 205 880 q 598 1006 435 1006 q 754 990 680 1006 q 892 947 829 975 l 842 829 q 725 870 789 853 q 593 886 661 886 q 397 838 479 886 q 272 703 315 790 q 228 495 228 615 q 264 290 228 378 q 379 154 301 203 q 580 105 457 105 q 685 112 642 105 q 766 128 729 119 l 766 408 l 545 408 l 545 529 m 645 -85 l 645 -97 q 620 -161 637 -124 q 582 -236 604 -198 q 536 -307 560 -275 l 460 -307 l 460 -290 q 480 -230 469 -267 q 500 -154 491 -193 q 513 -85 510 -115 l 645 -85 z "},"ģ":{"ha":762,"x_min":17,"x_max":737,"o":"m 462 1063 l 462 1047 q 441 986 452 1023 q 420 910 429 949 q 408 841 412 871 l 275 841 l 275 854 q 301 918 285 882 q 339 993 317 955 q 385 1063 360 1031 l 462 1063 m 328 -334 q 97 -279 178 -334 q 17 -125 17 -224 q 61 -7 17 -56 q 184 58 105 41 q 133 100 155 72 q 112 163 112 128 q 135 235 112 205 q 205 294 159 265 q 111 375 146 318 q 75 507 75 431 q 109 645 75 588 q 208 732 143 702 q 364 762 272 762 q 406 760 385 762 q 448 755 428 758 q 479 748 467 751 l 737 748 l 737 667 l 604 647 q 636 586 624 621 q 648 509 648 551 q 571 329 648 395 q 356 262 493 262 q 292 268 324 263 q 248 231 262 251 q 233 185 233 211 q 246 153 233 165 q 284 135 259 141 q 345 130 309 130 l 475 130 q 663 78 597 130 q 728 -73 728 26 q 625 -266 728 -198 q 328 -334 522 -334 m 332 -234 q 478 -216 420 -234 q 567 -166 537 -199 q 597 -89 597 -134 q 577 -27 597 -48 q 520 2 558 -5 q 427 9 482 9 l 303 9 q 220 -5 256 9 q 165 -48 185 -20 q 146 -118 146 -77 q 194 -204 146 -174 q 332 -234 243 -234 m 362 355 q 475 395 437 355 q 512 509 512 435 q 474 628 512 588 q 361 668 436 668 q 251 627 289 668 q 212 507 212 586 q 251 395 212 435 q 362 355 290 355 z "},"Ĥ":{"ha":1034,"x_min":133,"x_max":900,"o":"m 900 0 l 761 0 l 761 458 l 272 458 l 272 0 l 133 0 l 133 991 l 272 991 l 272 578 l 761 578 l 761 991 l 900 991 l 900 0 m 592 1308 q 641 1239 610 1278 q 705 1165 671 1201 q 765 1102 739 1128 l 765 1086 l 671 1086 q 594 1143 634 1109 q 518 1214 555 1177 q 443 1144 481 1177 q 368 1086 404 1111 l 275 1086 l 275 1102 q 334 1165 301 1129 q 397 1240 367 1202 q 446 1308 428 1278 l 592 1308 z "},"ĥ":{"ha":867,"x_min":-56,"x_max":756,"o":"m 252 1055 l 252 765 q 250 697 252 730 q 245 642 248 664 l 254 642 q 312 707 277 681 q 392 746 347 733 q 486 760 436 760 q 633 731 573 760 q 725 643 694 703 q 756 487 756 583 l 756 0 l 621 0 l 621 469 q 582 603 621 558 q 461 648 543 648 q 338 617 384 648 q 272 527 292 587 q 252 380 252 467 l 252 0 l 116 0 l 116 1055 l 252 1055 m 260 1372 q 309 1303 278 1341 q 374 1229 340 1265 q 433 1166 408 1192 l 433 1150 l 339 1150 q 263 1207 302 1173 q 186 1278 223 1240 q 111 1207 150 1240 q 36 1150 73 1175 l -56 1150 l -56 1166 q 2 1229 -31 1193 q 66 1303 35 1265 q 115 1372 96 1341 l 260 1372 z "},"Ħ":{"ha":1034,"x_min":0,"x_max":1033,"o":"m 133 0 l 133 729 l 0 729 l 0 833 l 133 833 l 133 991 l 272 991 l 272 833 l 761 833 l 761 991 l 900 991 l 900 833 l 1033 833 l 1033 729 l 900 729 l 900 0 l 761 0 l 761 458 l 272 458 l 272 0 l 133 0 m 272 578 l 761 578 l 761 729 l 272 729 l 272 578 z "},"ħ":{"ha":867,"x_min":11,"x_max":756,"o":"m 252 1055 l 252 933 l 530 933 l 530 835 l 252 835 l 252 736 q 250 668 252 701 q 245 613 248 635 l 254 613 q 312 679 277 652 q 392 718 347 705 q 487 732 437 732 q 634 703 574 732 q 725 614 694 674 q 756 458 756 553 l 756 0 l 621 0 l 621 439 q 582 575 621 530 q 461 620 543 620 q 338 589 384 620 q 272 498 292 557 q 252 353 252 439 l 252 0 l 116 0 l 116 835 l 11 835 l 11 933 l 116 933 l 116 1055 l 252 1055 z "},"Ĩ":{"ha":406,"x_min":-55,"x_max":464,"o":"m 133 0 l 133 991 l 272 991 l 272 0 l 133 0 m -55 1088 q -38 1166 -51 1132 q -5 1223 -26 1200 q 43 1258 16 1246 q 103 1270 71 1270 q 162 1258 134 1270 q 216 1230 190 1246 q 266 1203 241 1215 q 313 1191 290 1191 q 361 1210 342 1191 q 389 1271 379 1230 l 464 1271 q 413 1137 455 1185 q 306 1088 372 1088 q 249 1101 276 1088 q 195 1128 221 1113 q 145 1156 170 1143 q 96 1168 120 1168 q 48 1148 66 1168 q 20 1088 30 1129 l -55 1088 z "},"ĩ":{"ha":369,"x_min":-78,"x_max":441,"o":"m 252 0 l 116 0 l 116 747 l 252 747 l 252 0 m -78 843 q -61 921 -74 887 q -28 978 -49 955 q 20 1013 -7 1001 q 80 1025 47 1025 q 139 1013 111 1025 q 193 985 167 1001 q 243 958 218 970 q 290 946 267 946 q 338 965 319 946 q 366 1026 356 985 l 441 1026 q 390 892 432 940 q 283 844 349 844 q 225 856 253 844 q 172 883 198 868 q 122 911 146 899 q 73 923 97 923 q 25 904 43 923 q -3 843 7 884 l -78 843 z "},"Ī":{"ha":406,"x_min":-7,"x_max":413,"o":"m 133 0 l 133 991 l 272 991 l 272 0 l 133 0 m 413 1192 l 413 1088 l -7 1088 l -7 1192 l 413 1192 z "},"ī":{"ha":369,"x_min":-25,"x_max":394,"o":"m 252 0 l 116 0 l 116 747 l 252 747 l 252 0 m 395 947 l 395 843 l -25 843 l -25 947 l 395 947 z "},"Ĭ":{"ha":406,"x_min":-22,"x_max":428,"o":"m 133 0 l 133 991 l 272 991 l 272 0 l 133 0 m 428 1281 q 395 1180 423 1223 q 317 1111 367 1136 q 200 1086 268 1086 q 40 1139 96 1086 q -22 1281 -16 1192 l 60 1281 q 82 1224 64 1243 q 130 1198 100 1204 q 202 1192 161 1192 q 269 1199 239 1192 q 320 1225 300 1206 q 345 1281 340 1245 l 428 1281 z "},"ĭ":{"ha":369,"x_min":-35,"x_max":414,"o":"m 252 0 l 116 0 l 116 747 l 252 747 l 252 0 m 414 1036 q 381 935 410 979 q 304 866 353 891 q 186 842 254 842 q 26 895 82 842 q -35 1036 -30 947 l 47 1036 q 68 979 50 998 q 117 953 86 960 q 189 947 147 947 q 256 954 225 947 q 306 981 286 961 q 331 1036 326 1000 l 414 1036 z "},"Į":{"ha":406,"x_min":68,"x_max":304,"o":"m 133 0 l 133 991 l 272 991 l 272 0 l 133 0 m 174 -161 q 190 -208 174 -192 q 236 -224 206 -224 q 275 -220 258 -224 q 305 -214 293 -217 l 305 -299 q 264 -308 286 -304 q 215 -312 243 -312 q 105 -276 142 -312 q 68 -176 68 -239 q 88 -100 68 -137 q 139 -32 108 -63 q 203 21 170 -1 l 272 0 q 199 -81 224 -43 q 174 -161 174 -119 z "},"į":{"ha":369,"x_min":41,"x_max":277,"o":"m 252 747 l 252 0 l 116 0 l 116 747 l 252 747 m 185 1030 q 241 1011 218 1030 q 264 949 264 992 q 241 887 264 907 q 185 868 218 868 q 129 887 152 868 q 106 949 106 907 q 129 1011 106 992 q 185 1030 152 1030 m 146 -161 q 163 -208 146 -192 q 209 -224 179 -224 q 248 -220 231 -224 q 278 -214 266 -217 l 278 -299 q 237 -308 258 -304 q 188 -312 216 -312 q 78 -276 115 -312 q 41 -176 41 -239 q 61 -100 41 -137 q 112 -32 81 -63 q 176 21 142 -1 l 245 0 q 172 -81 197 -43 q 146 -161 146 -119 z "},"İ":{"ha":406,"x_min":125,"x_max":283,"o":"m 133 0 l 133 991 l 272 991 l 272 0 l 133 0 m 205 1275 q 260 1256 237 1275 q 283 1194 283 1237 q 260 1132 283 1152 q 205 1113 237 1113 q 148 1132 171 1113 q 125 1194 125 1152 q 148 1256 125 1237 q 205 1275 171 1275 z "},"Ĳ":{"ha":801,"x_min":133,"x_max":674,"o":"m 133 0 l 133 991 l 272 991 l 272 0 l 133 0 m 406 -269 q 343 -264 370 -269 q 297 -252 316 -259 l 297 -134 q 344 -144 319 -140 q 397 -149 369 -149 q 467 -134 435 -149 q 516 -82 498 -119 q 534 20 534 -45 l 534 991 l 674 991 l 674 26 q 641 -140 674 -75 q 548 -237 608 -205 q 406 -269 488 -269 z "},"ĳ":{"ha":738,"x_min":106,"x_max":633,"o":"m 252 747 l 252 0 l 116 0 l 116 747 l 252 747 m 185 1030 q 241 1011 218 1030 q 264 949 264 992 q 241 887 264 907 q 185 868 218 868 q 129 887 152 868 q 106 949 106 907 q 129 1011 106 992 q 185 1030 152 1030 m 403 -334 q 339 -329 368 -334 q 290 -317 311 -323 l 290 -208 q 334 -218 312 -214 q 382 -221 355 -221 q 456 -196 428 -221 q 485 -103 485 -171 l 485 747 l 621 747 l 621 -109 q 598 -227 621 -176 q 527 -306 576 -278 q 403 -334 479 -334 m 475 949 q 498 1011 475 992 q 554 1030 521 1030 q 610 1011 587 1030 q 633 949 633 992 q 610 887 633 907 q 554 868 587 868 q 498 887 521 868 q 475 949 475 907 z "},"Ĵ":{"ha":395,"x_min":-109,"x_max":446,"o":"m 0 -269 q -63 -264 -36 -269 q -109 -252 -90 -259 l -109 -134 q -62 -144 -87 -140 q -9 -149 -37 -149 q 60 -134 29 -149 q 110 -82 92 -119 q 128 20 128 -45 l 128 991 l 268 991 l 268 26 q 235 -140 268 -75 q 142 -237 202 -205 q 0 -269 81 -269 m 273 1308 q 321 1239 290 1278 q 386 1165 352 1201 q 446 1102 420 1128 l 446 1086 l 351 1086 q 275 1143 315 1109 q 199 1214 235 1177 q 123 1144 162 1177 q 48 1086 85 1111 l -44 1086 l -44 1102 q 15 1165 -18 1129 q 78 1240 47 1202 q 127 1308 109 1278 l 273 1308 z "},"ĵ":{"ha":369,"x_min":-79,"x_max":431,"o":"m 34 -334 q -30 -329 -1 -334 q -79 -317 -58 -323 l -79 -208 q -35 -218 -57 -214 q 14 -221 -14 -221 q 87 -196 59 -221 q 116 -103 116 -171 l 116 747 l 252 747 l 252 -109 q 230 -227 252 -176 q 158 -306 207 -278 q 34 -334 110 -334 m 258 1063 q 307 995 276 1033 q 372 920 338 956 q 431 857 406 884 l 431 842 l 337 842 q 261 898 300 865 q 184 969 221 932 q 109 899 148 932 q 34 842 71 866 l -58 842 l -58 857 q 0 921 -33 884 q 64 995 33 957 q 113 1063 94 1033 l 258 1063 z "},"Ķ":{"ha":869,"x_min":133,"x_max":869,"o":"m 869 0 l 707 0 l 374 466 l 272 379 l 272 0 l 133 0 l 133 991 l 272 991 l 272 507 q 342 588 307 548 q 413 669 378 628 l 697 991 l 857 991 l 474 559 l 869 0 m 553 -85 l 553 -97 q 529 -161 545 -124 q 490 -236 512 -198 q 444 -307 469 -275 l 368 -307 l 368 -290 q 389 -230 378 -267 q 409 -154 399 -193 q 422 -85 418 -115 l 553 -85 z "},"ķ":{"ha":763,"x_min":116,"x_max":755,"o":"m 252 1055 l 252 526 q 249 455 252 495 q 245 382 247 416 l 250 382 q 291 436 265 403 q 338 492 317 469 l 576 747 l 734 747 l 434 427 l 755 0 l 593 0 l 342 341 l 252 261 l 252 0 l 116 0 l 116 1055 l 252 1055 m 475 -85 l 475 -97 q 451 -161 467 -124 q 412 -236 434 -198 q 366 -307 391 -275 l 290 -307 l 290 -290 q 311 -230 300 -267 q 331 -154 321 -193 q 344 -85 340 -115 l 475 -85 z "},"ĸ":{"ha":763,"x_min":116,"x_max":755,"o":"m 732 747 l 447 414 l 755 0 l 595 0 l 355 329 l 258 251 l 258 0 l 116 0 l 116 747 l 258 747 l 258 552 q 255 449 257 500 q 250 364 254 398 l 253 364 q 287 406 269 385 q 319 448 304 427 l 575 747 l 732 747 z "},"Ĺ":{"ha":740,"x_min":111,"x_max":703,"o":"m 133 0 l 133 991 l 272 991 l 272 121 l 703 121 l 703 0 l 133 0 m 414 1309 l 414 1295 q 374 1248 399 1276 q 318 1191 349 1221 q 257 1133 288 1160 q 201 1086 227 1106 l 111 1086 l 111 1103 q 159 1165 132 1129 q 212 1239 186 1201 q 254 1309 237 1278 l 414 1309 z "},"ĺ":{"ha":369,"x_min":95,"x_max":399,"o":"m 253 0 l 116 0 l 116 1055 l 253 1055 l 253 0 m 399 1373 l 399 1359 q 358 1312 384 1339 q 302 1254 333 1284 q 241 1197 272 1224 q 186 1150 211 1170 l 95 1150 l 95 1167 q 143 1229 117 1193 q 196 1303 170 1265 q 239 1373 222 1341 l 399 1373 z "},"Ļ":{"ha":740,"x_min":133,"x_max":703,"o":"m 133 0 l 133 991 l 272 991 l 272 121 l 703 121 l 703 0 l 133 0 m 509 -85 l 509 -97 q 485 -161 501 -124 q 446 -236 468 -198 q 400 -307 425 -275 l 324 -307 l 324 -290 q 345 -230 334 -267 q 365 -154 355 -193 q 378 -85 374 -115 l 509 -85 z "},"ļ":{"ha":369,"x_min":91,"x_max":276,"o":"m 253 0 l 116 0 l 116 1055 l 253 1055 l 253 0 m 276 -85 l 276 -97 q 251 -161 268 -124 q 213 -236 235 -198 q 167 -307 191 -275 l 91 -307 l 91 -290 q 111 -230 100 -267 q 132 -154 122 -193 q 144 -85 141 -115 l 276 -85 z "},"Ľ":{"ha":740,"x_min":133,"x_max":711,"o":"m 133 0 l 133 991 l 272 991 l 272 121 l 703 121 l 703 0 l 133 0 m 711 991 l 711 979 q 687 915 703 952 q 651 840 671 878 q 609 770 631 802 l 532 770 l 532 786 q 547 831 540 806 q 560 886 553 857 q 571 942 566 915 q 579 991 576 969 l 711 991 z "},"ľ":{"ha":369,"x_min":116,"x_max":485,"o":"m 253 0 l 116 0 l 116 1055 l 253 1055 l 253 0 m 485 1055 l 485 1043 q 461 979 477 1016 q 425 904 445 942 q 383 833 405 866 l 307 833 l 307 850 q 321 895 314 869 q 334 950 328 921 q 346 1006 340 979 q 353 1055 351 1033 l 485 1055 z "},"Ŀ":{"ha":740,"x_min":133,"x_max":703,"o":"m 133 0 l 133 991 l 272 991 l 272 121 l 703 121 l 703 0 l 133 0 m 549 593 q 604 574 581 593 q 627 513 627 555 q 604 451 627 470 q 549 431 581 431 q 492 451 515 431 q 469 513 469 470 q 492 574 469 555 q 549 593 515 593 z "},"ŀ":{"ha":398,"x_min":116,"x_max":463,"o":"m 253 0 l 116 0 l 116 1055 l 253 1055 l 253 0 m 384 608 q 439 589 416 608 q 463 528 463 570 q 439 466 463 485 q 384 446 416 446 q 327 466 350 446 q 304 528 304 485 q 327 589 304 570 q 384 608 350 608 z "},"Ł":{"ha":740,"x_min":14,"x_max":703,"o":"m 133 0 l 133 345 l 67 307 l 14 397 l 133 470 l 133 991 l 272 991 l 272 553 l 444 655 l 498 561 l 272 428 l 272 121 l 703 121 l 703 0 l 133 0 z "},"ł":{"ha":369,"x_min":-12,"x_max":382,"o":"m 111 0 l 111 384 l 43 342 l -12 432 l 111 509 l 111 1055 l 247 1055 l 247 595 l 328 650 l 382 560 l 247 470 l 247 0 l 111 0 z "},"Ń":{"ha":1067,"x_min":133,"x_max":935,"o":"m 935 0 l 768 0 l 254 812 l 249 812 q 254 732 251 776 q 258 641 256 688 q 260 544 260 593 l 260 0 l 133 0 l 133 991 l 298 991 l 810 183 l 814 183 q 811 257 813 213 q 807 350 809 301 q 806 444 806 399 l 806 991 l 935 991 l 935 0 m 747 1309 l 747 1295 q 707 1248 732 1276 q 651 1191 682 1221 q 590 1133 621 1160 q 534 1086 559 1106 l 444 1086 l 444 1103 q 492 1165 465 1129 q 545 1239 519 1201 q 587 1309 570 1278 l 747 1309 z "},"ń":{"ha":867,"x_min":116,"x_max":756,"o":"m 488 761 q 687 696 617 761 q 756 487 756 631 l 756 0 l 621 0 l 621 469 q 582 603 621 558 q 461 648 543 648 q 299 580 345 648 q 252 381 252 511 l 252 0 l 116 0 l 116 747 l 224 747 l 243 642 l 251 642 q 311 708 275 682 q 393 748 348 734 q 488 761 438 761 m 650 1064 l 650 1050 q 609 1003 635 1031 q 553 946 584 976 q 492 888 523 916 q 437 842 462 861 l 346 842 l 346 859 q 394 920 368 884 q 447 995 421 956 q 490 1064 473 1033 l 650 1064 z "},"Ņ":{"ha":1067,"x_min":133,"x_max":935,"o":"m 935 0 l 768 0 l 254 812 l 249 812 q 254 732 251 776 q 258 641 256 688 q 260 544 260 593 l 260 0 l 133 0 l 133 991 l 298 991 l 810 183 l 814 183 q 811 257 813 213 q 807 350 809 301 q 806 444 806 399 l 806 991 l 935 991 l 935 0 m 625 -85 l 625 -97 q 601 -161 617 -124 q 562 -236 584 -198 q 516 -307 541 -275 l 440 -307 l 440 -290 q 460 -230 450 -267 q 481 -154 471 -193 q 494 -85 490 -115 l 625 -85 z "},"ņ":{"ha":867,"x_min":116,"x_max":756,"o":"m 488 761 q 687 696 617 761 q 756 487 756 631 l 756 0 l 621 0 l 621 469 q 582 603 621 558 q 461 648 543 648 q 299 580 345 648 q 252 381 252 511 l 252 0 l 116 0 l 116 747 l 224 747 l 243 642 l 251 642 q 311 708 275 682 q 393 748 348 734 q 488 761 438 761 m 526 -85 l 526 -97 q 501 -161 517 -124 q 463 -236 484 -198 q 416 -307 441 -275 l 340 -307 l 340 -290 q 361 -230 350 -267 q 381 -154 372 -193 q 394 -85 391 -115 l 526 -85 z "},"Ň":{"ha":1067,"x_min":133,"x_max":935,"o":"m 935 0 l 768 0 l 254 812 l 249 812 q 254 732 251 776 q 258 641 256 688 q 260 544 260 593 l 260 0 l 133 0 l 133 991 l 298 991 l 810 183 l 814 183 q 811 257 813 213 q 807 350 809 301 q 806 444 806 399 l 806 991 l 935 991 l 935 0 m 460 1086 q 412 1155 442 1118 q 348 1229 381 1192 q 290 1291 315 1265 l 290 1308 l 382 1308 q 458 1250 418 1284 q 532 1179 498 1217 q 609 1251 569 1217 q 685 1308 648 1284 l 779 1308 l 779 1291 q 720 1229 753 1265 q 655 1155 686 1193 q 606 1086 624 1118 l 460 1086 z "},"ň":{"ha":867,"x_min":116,"x_max":756,"o":"m 488 761 q 687 696 617 761 q 756 487 756 631 l 756 0 l 621 0 l 621 469 q 582 603 621 558 q 461 648 543 648 q 299 580 345 648 q 252 381 252 511 l 252 0 l 116 0 l 116 747 l 224 747 l 243 642 l 251 642 q 311 708 275 682 q 393 748 348 734 q 488 761 438 761 m 362 842 q 313 910 344 873 q 250 984 283 947 q 191 1046 216 1020 l 191 1063 l 283 1063 q 360 1005 320 1039 q 434 934 399 972 q 510 1006 471 972 q 587 1063 550 1040 l 681 1063 l 681 1046 q 621 984 655 1020 q 556 910 587 948 q 508 842 526 873 l 362 842 z "},"ŉ":{"ha":972,"x_min":2,"x_max":861,"o":"m 593 761 q 792 696 722 761 q 861 487 861 631 l 861 0 l 726 0 l 726 469 q 687 603 726 558 q 566 648 648 648 q 404 580 450 648 q 357 381 357 511 l 357 0 l 221 0 l 221 747 l 329 747 l 349 642 l 356 642 q 416 708 380 682 q 498 748 453 734 q 593 761 543 761 m 209 991 l 219 977 q 188 871 207 927 q 146 758 169 814 q 101 652 123 702 l 2 652 q 22 735 12 691 q 42 825 33 779 q 59 912 52 870 q 73 991 67 955 l 209 991 z "},"Ŋ":{"ha":1067,"x_min":133,"x_max":935,"o":"m 664 -269 q 599 -264 627 -269 q 551 -251 570 -259 l 551 -138 q 600 -147 573 -143 q 659 -151 627 -151 q 733 -137 700 -151 q 786 -89 766 -123 q 807 2 806 -56 l 254 812 l 249 812 q 254 734 252 782 q 259 632 257 686 q 260 533 260 579 l 260 0 l 133 0 l 133 991 l 298 991 l 810 234 l 814 234 q 810 313 812 267 q 807 409 808 359 q 806 505 806 460 l 806 991 l 935 991 l 935 5 q 901 -149 935 -87 q 807 -239 867 -210 q 664 -269 746 -269 z "},"ŋ":{"ha":867,"x_min":116,"x_max":757,"o":"m 550 -334 q 491 -329 517 -334 q 446 -317 465 -323 l 446 -208 q 485 -218 465 -214 q 528 -221 505 -221 q 595 -196 568 -221 q 621 -103 621 -171 l 621 473 q 582 605 621 562 q 463 648 543 648 q 339 618 385 648 q 273 528 293 587 q 252 382 252 469 l 252 0 l 116 0 l 116 747 l 224 747 l 245 642 l 252 642 q 312 708 276 682 q 393 748 348 734 q 488 761 437 761 q 635 732 575 761 q 726 644 695 704 q 757 488 757 583 l 757 -109 q 735 -227 757 -176 q 667 -306 713 -278 q 550 -334 622 -334 z "},"Ō":{"ha":1086,"x_min":84,"x_max":1003,"o":"m 1003 497 q 974 289 1003 382 q 887 127 945 195 q 744 23 830 60 q 544 -14 659 -14 q 341 23 427 -14 q 197 127 254 60 q 112 290 140 195 q 84 498 84 384 q 134 766 84 651 q 287 944 184 880 q 546 1007 390 1007 q 798 944 696 1007 q 951 767 900 881 q 1003 497 1003 652 m 230 497 q 263 289 230 376 q 367 153 297 201 q 544 105 436 105 q 722 153 653 105 q 824 289 791 201 q 857 497 857 376 q 782 784 857 680 q 546 887 707 887 q 368 840 437 887 q 264 706 298 793 q 230 497 230 618 m 753 1192 l 753 1088 l 334 1088 l 334 1192 l 753 1192 z "},"ō":{"ha":842,"x_min":74,"x_max":769,"o":"m 769 375 q 745 211 769 283 q 675 89 721 138 q 565 13 629 39 q 419 -14 500 -14 q 280 13 343 -14 q 170 89 216 39 q 99 211 124 138 q 74 375 74 283 q 116 584 74 498 q 236 716 158 671 q 423 761 315 761 q 604 715 526 761 q 726 584 682 670 q 769 375 769 498 m 214 375 q 236 227 214 289 q 303 132 258 165 q 422 98 349 98 q 539 132 493 98 q 607 227 585 165 q 629 375 629 289 q 607 522 629 460 q 539 615 585 583 q 420 648 494 648 q 263 576 313 648 q 214 375 214 505 m 631 947 l 631 843 l 211 843 l 211 947 l 631 947 z "},"Ŏ":{"ha":1086,"x_min":84,"x_max":1003,"o":"m 1003 497 q 974 289 1003 382 q 887 127 945 195 q 744 23 830 60 q 544 -14 659 -14 q 341 23 427 -14 q 197 127 254 60 q 112 290 140 195 q 84 498 84 384 q 134 766 84 651 q 287 944 184 880 q 546 1007 390 1007 q 798 944 696 1007 q 951 767 900 881 q 1003 497 1003 652 m 230 497 q 263 289 230 376 q 367 153 297 201 q 544 105 436 105 q 722 153 653 105 q 824 289 791 201 q 857 497 857 376 q 782 784 857 680 q 546 887 707 887 q 368 840 437 887 q 264 706 298 793 q 230 497 230 618 m 774 1281 q 741 1180 769 1223 q 663 1111 713 1136 q 546 1086 614 1086 q 386 1139 441 1086 q 324 1281 330 1192 l 406 1281 q 428 1224 410 1243 q 476 1198 446 1204 q 548 1192 507 1192 q 615 1199 585 1192 q 666 1225 646 1206 q 690 1281 686 1245 l 774 1281 z "},"ŏ":{"ha":842,"x_min":74,"x_max":769,"o":"m 769 375 q 745 211 769 283 q 675 89 721 138 q 565 13 629 39 q 419 -14 500 -14 q 280 13 343 -14 q 170 89 216 39 q 99 211 124 138 q 74 375 74 283 q 116 584 74 498 q 236 716 158 671 q 423 761 315 761 q 604 715 526 761 q 726 584 682 670 q 769 375 769 498 m 214 375 q 236 227 214 289 q 303 132 258 165 q 422 98 349 98 q 539 132 493 98 q 607 227 585 165 q 629 375 629 289 q 607 522 629 460 q 539 615 585 583 q 420 648 494 648 q 263 576 313 648 q 214 375 214 505 m 651 1036 q 618 935 646 979 q 541 866 590 891 q 423 842 491 842 q 263 895 319 842 q 201 1036 207 947 l 283 1036 q 305 979 287 998 q 353 953 323 960 q 425 947 384 947 q 492 954 462 947 q 543 981 523 961 q 568 1036 563 1000 l 651 1036 z "},"Ő":{"ha":1086,"x_min":84,"x_max":1003,"o":"m 1003 497 q 974 289 1003 382 q 887 127 945 195 q 744 23 830 60 q 544 -14 659 -14 q 341 23 427 -14 q 197 127 254 60 q 112 290 140 195 q 84 498 84 384 q 134 766 84 651 q 287 944 184 880 q 546 1007 390 1007 q 798 944 696 1007 q 951 767 900 881 q 1003 497 1003 652 m 230 497 q 263 289 230 376 q 367 153 297 201 q 544 105 436 105 q 722 153 653 105 q 824 289 791 201 q 857 497 857 376 q 782 784 857 680 q 546 887 707 887 q 368 840 437 887 q 264 706 298 793 q 230 497 230 618 m 886 1309 l 886 1295 q 852 1249 875 1276 q 802 1191 830 1221 q 745 1134 774 1161 q 693 1086 717 1106 l 616 1086 l 616 1103 q 660 1166 637 1130 q 706 1240 684 1202 q 743 1309 728 1278 l 886 1309 m 637 1309 l 637 1295 q 604 1249 626 1276 q 553 1191 581 1221 q 496 1134 525 1161 q 444 1086 468 1106 l 368 1086 l 368 1103 q 411 1166 388 1130 q 456 1240 434 1202 q 494 1309 478 1278 l 637 1309 z "},"ő":{"ha":842,"x_min":74,"x_max":769,"o":"m 769 375 q 745 211 769 283 q 675 89 721 138 q 565 13 629 39 q 419 -14 500 -14 q 280 13 343 -14 q 170 89 216 39 q 99 211 124 138 q 74 375 74 283 q 116 584 74 498 q 236 716 158 671 q 423 761 315 761 q 604 715 526 761 q 726 584 682 670 q 769 375 769 498 m 214 375 q 236 227 214 289 q 303 132 258 165 q 422 98 349 98 q 539 132 493 98 q 607 227 585 165 q 629 375 629 289 q 607 522 629 460 q 539 615 585 583 q 420 648 494 648 q 263 576 313 648 q 214 375 214 505 m 764 1064 l 764 1050 q 730 1004 752 1031 q 679 946 707 977 q 623 889 651 916 q 570 842 594 861 l 494 842 l 494 859 q 537 921 514 885 q 583 995 561 958 q 620 1064 606 1033 l 764 1064 m 515 1064 l 515 1050 q 481 1004 503 1031 q 430 946 458 977 q 374 889 402 916 q 321 842 345 861 l 245 842 l 245 859 q 288 921 265 885 q 333 995 311 958 q 371 1064 355 1033 l 515 1064 z "},"Œ":{"ha":1301,"x_min":84,"x_max":1218,"o":"m 533 1006 q 604 1003 568 1006 q 670 991 640 999 l 1218 991 l 1218 872 l 816 872 l 816 577 l 1192 577 l 1192 459 l 816 459 l 816 120 l 1218 120 l 1218 0 l 674 0 q 608 -9 644 -5 q 537 -12 572 -12 q 283 52 384 -12 q 133 230 182 115 q 84 498 84 345 q 133 766 84 652 q 282 943 182 880 q 533 1006 382 1006 m 541 886 q 401 860 460 886 q 304 782 342 833 q 247 660 266 732 q 228 497 228 588 q 261 289 228 376 q 363 154 294 201 q 538 106 433 106 q 614 113 577 106 q 677 130 651 119 l 677 864 q 615 881 650 876 q 541 886 579 886 z "},"œ":{"ha":1327,"x_min":73,"x_max":1257,"o":"m 946 760 q 1113 718 1044 760 q 1220 601 1183 677 q 1257 422 1257 526 l 1257 345 l 755 345 q 816 158 759 220 q 979 97 873 97 q 1108 111 1053 97 q 1222 151 1164 124 l 1222 36 q 1110 -2 1166 10 q 976 -14 1054 -14 q 808 24 880 -14 q 690 136 735 62 q 577 24 648 62 q 415 -14 507 -14 q 237 32 314 -14 q 116 164 160 77 q 73 375 73 252 q 114 584 73 498 q 233 714 155 669 q 418 760 311 760 q 575 722 506 760 q 686 611 645 684 q 752 692 713 659 q 840 742 791 725 q 946 760 889 760 m 414 648 q 261 578 309 648 q 214 375 214 509 q 235 223 214 285 q 301 130 256 161 q 416 98 345 98 q 530 130 486 98 q 595 222 574 161 q 616 372 616 283 q 595 524 616 463 q 529 616 574 585 q 414 648 485 648 m 947 654 q 817 602 866 654 q 760 447 768 549 l 1120 447 q 1101 555 1119 509 q 1044 628 1082 602 q 947 654 1006 654 z "},"Ŕ":{"ha":872,"x_min":133,"x_max":855,"o":"m 406 991 q 613 961 532 991 q 735 867 695 930 q 775 708 775 804 q 747 580 775 632 q 674 494 720 528 q 578 442 629 461 l 855 0 l 696 0 l 454 406 l 272 406 l 272 0 l 133 0 l 133 991 l 406 991 m 397 873 l 272 873 l 272 522 l 407 522 q 578 567 524 522 q 633 703 633 613 q 575 834 633 795 q 397 873 517 873 m 655 1309 l 655 1295 q 615 1248 640 1276 q 559 1191 589 1221 q 498 1133 528 1160 q 442 1086 467 1106 l 351 1086 l 351 1103 q 400 1165 373 1129 q 452 1239 427 1201 q 495 1309 478 1278 l 655 1309 z "},"ŕ":{"ha":583,"x_min":116,"x_max":560,"o":"m 475 761 q 519 759 496 761 q 560 753 543 756 l 546 626 q 508 633 530 630 q 469 635 487 635 q 386 619 425 635 q 317 572 347 603 q 270 497 287 541 q 253 395 253 452 l 253 0 l 116 0 l 116 747 l 226 747 l 242 612 l 248 612 q 304 687 271 653 q 380 741 337 721 q 475 761 423 761 m 549 1064 l 549 1050 q 509 1003 534 1031 q 453 946 484 976 q 392 888 422 916 q 336 842 361 861 l 245 842 l 245 859 q 294 920 267 884 q 347 995 321 956 q 389 1064 372 1033 l 549 1064 z "},"Ŗ":{"ha":872,"x_min":133,"x_max":855,"o":"m 406 991 q 613 961 532 991 q 735 867 695 930 q 775 708 775 804 q 747 580 775 632 q 674 494 720 528 q 578 442 629 461 l 855 0 l 696 0 l 454 406 l 272 406 l 272 0 l 133 0 l 133 991 l 406 991 m 397 873 l 272 873 l 272 522 l 407 522 q 578 567 524 522 q 633 703 633 613 q 575 834 633 795 q 397 873 517 873 m 555 -85 l 555 -97 q 530 -161 547 -124 q 492 -236 513 -198 q 446 -307 470 -275 l 370 -307 l 370 -290 q 390 -230 379 -267 q 410 -154 401 -193 q 423 -85 420 -115 l 555 -85 z "},"ŗ":{"ha":583,"x_min":89,"x_max":560,"o":"m 475 761 q 519 759 496 761 q 560 753 543 756 l 546 626 q 508 633 530 630 q 469 635 487 635 q 386 619 425 635 q 317 572 347 603 q 270 497 287 541 q 253 395 253 452 l 253 0 l 116 0 l 116 747 l 226 747 l 242 612 l 248 612 q 304 687 271 653 q 380 741 337 721 q 475 761 423 761 m 274 -85 l 274 -97 q 249 -161 266 -124 q 211 -236 233 -198 q 165 -307 189 -275 l 89 -307 l 89 -290 q 109 -230 98 -267 q 130 -154 120 -193 q 142 -85 139 -115 l 274 -85 z "},"Ř":{"ha":872,"x_min":133,"x_max":855,"o":"m 406 991 q 613 961 532 991 q 735 867 695 930 q 775 708 775 804 q 747 580 775 632 q 674 494 720 528 q 578 442 629 461 l 855 0 l 696 0 l 454 406 l 272 406 l 272 0 l 133 0 l 133 991 l 406 991 m 397 873 l 272 873 l 272 522 l 407 522 q 578 567 524 522 q 633 703 633 613 q 575 834 633 795 q 397 873 517 873 m 368 1086 q 319 1155 350 1118 q 256 1229 289 1192 q 197 1291 222 1265 l 197 1308 l 290 1308 q 366 1250 326 1284 q 440 1179 406 1217 q 516 1251 477 1217 q 593 1308 556 1284 l 687 1308 l 687 1291 q 627 1229 661 1265 q 563 1155 593 1193 q 514 1086 532 1118 l 368 1086 z "},"ř":{"ha":583,"x_min":91,"x_max":581,"o":"m 475 761 q 519 759 496 761 q 560 753 543 756 l 546 626 q 508 633 530 630 q 469 635 487 635 q 386 619 425 635 q 317 572 347 603 q 270 497 287 541 q 253 395 253 452 l 253 0 l 116 0 l 116 747 l 226 747 l 242 612 l 248 612 q 304 687 271 653 q 380 741 337 721 q 475 761 423 761 m 262 842 q 213 910 243 873 q 149 984 182 947 q 91 1046 116 1020 l 91 1063 l 183 1063 q 259 1005 220 1039 q 334 934 299 972 q 410 1006 370 972 q 486 1063 450 1040 l 581 1063 l 581 1046 q 521 984 555 1020 q 456 910 487 948 q 408 842 425 873 l 262 842 z "},"Ś":{"ha":762,"x_min":69,"x_max":699,"o":"m 699 267 q 655 116 699 178 q 532 20 612 53 q 344 -14 453 -14 q 239 -8 289 -14 q 146 9 189 -2 q 69 36 104 20 l 69 168 q 199 124 125 144 q 352 104 273 104 q 467 123 420 104 q 537 176 513 142 q 561 257 561 210 q 538 337 561 304 q 465 396 515 369 q 334 454 415 423 q 232 500 278 474 q 152 560 186 526 q 100 640 119 594 q 82 745 82 686 q 122 886 82 827 q 235 975 163 944 q 404 1006 308 1006 q 550 990 482 1006 q 680 947 618 975 l 636 832 q 520 871 578 856 q 399 886 462 886 q 302 869 342 886 q 242 821 262 852 q 221 747 221 789 q 243 667 221 699 q 311 609 264 635 q 433 554 358 583 q 577 485 518 522 q 668 397 637 448 q 699 267 699 345 m 609 1309 l 609 1295 q 569 1248 594 1276 q 513 1191 543 1221 q 452 1133 482 1160 q 396 1086 421 1106 l 305 1086 l 305 1103 q 354 1165 327 1129 q 406 1239 380 1201 q 449 1309 432 1278 l 609 1309 z "},"ś":{"ha":669,"x_min":68,"x_max":609,"o":"m 609 209 q 573 86 609 136 q 470 12 538 37 q 307 -14 402 -14 q 172 -2 229 -14 q 68 33 115 10 l 68 153 q 183 111 118 130 q 311 93 248 93 q 437 121 398 93 q 476 196 476 149 q 460 245 476 224 q 406 288 445 267 q 294 337 367 309 q 173 393 223 365 q 96 460 122 420 q 69 562 69 499 q 147 710 69 659 q 352 761 224 761 q 480 747 420 761 q 595 709 540 734 l 551 604 q 450 639 502 625 q 345 653 399 653 q 238 631 275 653 q 201 569 201 608 q 219 518 201 538 q 277 478 236 498 q 387 433 317 459 q 505 379 455 407 q 582 311 555 351 q 609 209 609 271 m 549 1064 l 549 1050 q 509 1003 534 1031 q 453 946 484 976 q 392 888 422 916 q 336 842 361 861 l 245 842 l 245 859 q 294 920 267 884 q 347 995 321 956 q 389 1064 372 1033 l 549 1064 z "},"Ŝ":{"ha":762,"x_min":69,"x_max":699,"o":"m 699 267 q 655 116 699 178 q 532 20 612 53 q 344 -14 453 -14 q 239 -8 289 -14 q 146 9 189 -2 q 69 36 104 20 l 69 168 q 199 124 125 144 q 352 104 273 104 q 467 123 420 104 q 537 176 513 142 q 561 257 561 210 q 538 337 561 304 q 465 396 515 369 q 334 454 415 423 q 232 500 278 474 q 152 560 186 526 q 100 640 119 594 q 82 745 82 686 q 122 886 82 827 q 235 975 163 944 q 404 1006 308 1006 q 550 990 482 1006 q 680 947 618 975 l 636 832 q 520 871 578 856 q 399 886 462 886 q 302 869 342 886 q 242 821 262 852 q 221 747 221 789 q 243 667 221 699 q 311 609 264 635 q 433 554 358 583 q 577 485 518 522 q 668 397 637 448 q 699 267 699 345 m 470 1308 q 518 1239 488 1278 q 583 1165 549 1201 q 643 1102 617 1128 l 643 1086 l 549 1086 q 472 1143 512 1109 q 396 1214 433 1177 q 321 1144 359 1177 q 245 1086 282 1111 l 153 1086 l 153 1102 q 212 1165 179 1129 q 275 1240 245 1202 q 324 1308 306 1278 l 470 1308 z "},"ŝ":{"ha":669,"x_min":68,"x_max":609,"o":"m 609 209 q 573 86 609 136 q 470 12 538 37 q 307 -14 402 -14 q 172 -2 229 -14 q 68 33 115 10 l 68 153 q 183 111 118 130 q 311 93 248 93 q 437 121 398 93 q 476 196 476 149 q 460 245 476 224 q 406 288 445 267 q 294 337 367 309 q 173 393 223 365 q 96 460 122 420 q 69 562 69 499 q 147 710 69 659 q 352 761 224 761 q 480 747 420 761 q 595 709 540 734 l 551 604 q 450 639 502 625 q 345 653 399 653 q 238 631 275 653 q 201 569 201 608 q 219 518 201 538 q 277 478 236 498 q 387 433 317 459 q 505 379 455 407 q 582 311 555 351 q 609 209 609 271 m 410 1063 q 458 995 427 1033 q 523 920 489 956 q 583 857 557 884 l 583 842 l 488 842 q 412 898 452 865 q 336 969 372 932 q 260 899 299 932 q 185 842 222 866 l 93 842 l 93 857 q 152 921 119 884 q 215 995 184 957 q 264 1063 245 1033 l 410 1063 z "},"Ş":{"ha":762,"x_min":69,"x_max":699,"o":"m 699 267 q 655 116 699 178 q 532 20 612 53 q 344 -14 453 -14 q 239 -8 289 -14 q 146 9 189 -2 q 69 36 104 20 l 69 168 q 199 124 125 144 q 352 104 273 104 q 467 123 420 104 q 537 176 513 142 q 561 257 561 210 q 538 337 561 304 q 465 396 515 369 q 334 454 415 423 q 232 500 278 474 q 152 560 186 526 q 100 640 119 594 q 82 745 82 686 q 122 886 82 827 q 235 975 163 944 q 404 1006 308 1006 q 550 990 482 1006 q 680 947 618 975 l 636 832 q 520 871 578 856 q 399 886 462 886 q 302 869 342 886 q 242 821 262 852 q 221 747 221 789 q 243 667 221 699 q 311 609 264 635 q 433 554 358 583 q 577 485 518 522 q 668 397 637 448 q 699 267 699 345 m 505 -188 q 456 -295 505 -256 q 302 -334 406 -334 q 259 -331 279 -334 q 225 -324 239 -328 l 225 -243 q 262 -248 239 -245 q 304 -251 284 -251 q 372 -238 348 -251 q 396 -192 396 -224 q 362 -140 396 -157 q 271 -115 329 -122 l 330 0 l 418 0 l 387 -67 q 446 -90 419 -75 q 489 -129 473 -104 q 505 -188 505 -153 z "},"ş":{"ha":669,"x_min":68,"x_max":609,"o":"m 609 209 q 573 86 609 136 q 470 12 538 37 q 307 -14 402 -14 q 172 -2 229 -14 q 68 33 115 10 l 68 153 q 183 111 118 130 q 311 93 248 93 q 437 121 398 93 q 476 196 476 149 q 460 245 476 224 q 406 288 445 267 q 294 337 367 309 q 173 393 223 365 q 96 460 122 420 q 69 562 69 499 q 147 710 69 659 q 352 761 224 761 q 480 747 420 761 q 595 709 540 734 l 551 604 q 450 639 502 625 q 345 653 399 653 q 238 631 275 653 q 201 569 201 608 q 219 518 201 538 q 277 478 236 498 q 387 433 317 459 q 505 379 455 407 q 582 311 555 351 q 609 209 609 271 m 478 -188 q 429 -295 478 -256 q 275 -334 379 -334 q 232 -331 252 -334 q 198 -324 212 -328 l 198 -243 q 235 -248 212 -245 q 277 -251 257 -251 q 345 -238 321 -251 q 369 -192 369 -224 q 335 -140 369 -157 q 244 -115 302 -122 l 302 0 l 391 0 l 359 -67 q 419 -90 392 -75 q 462 -129 446 -104 q 478 -188 478 -153 z "},"Š":{"ha":762,"x_min":69,"x_max":699,"o":"m 699 267 q 655 116 699 178 q 532 20 612 53 q 344 -14 453 -14 q 239 -8 289 -14 q 146 9 189 -2 q 69 36 104 20 l 69 168 q 199 124 125 144 q 352 104 273 104 q 467 123 420 104 q 537 176 513 142 q 561 257 561 210 q 538 337 561 304 q 465 396 515 369 q 334 454 415 423 q 232 500 278 474 q 152 560 186 526 q 100 640 119 594 q 82 745 82 686 q 122 886 82 827 q 235 975 163 944 q 404 1006 308 1006 q 550 990 482 1006 q 680 947 618 975 l 636 832 q 520 871 578 856 q 399 886 462 886 q 302 869 342 886 q 242 821 262 852 q 221 747 221 789 q 243 667 221 699 q 311 609 264 635 q 433 554 358 583 q 577 485 518 522 q 668 397 637 448 q 699 267 699 345 m 322 1086 q 273 1155 304 1118 q 210 1229 243 1192 q 151 1291 176 1265 l 151 1308 l 243 1308 q 320 1250 280 1284 q 394 1179 359 1217 q 470 1251 431 1217 q 547 1308 510 1284 l 641 1308 l 641 1291 q 581 1229 615 1265 q 516 1155 547 1193 q 468 1086 486 1118 l 322 1086 z "},"š":{"ha":669,"x_min":68,"x_max":609,"o":"m 609 209 q 573 86 609 136 q 470 12 538 37 q 307 -14 402 -14 q 172 -2 229 -14 q 68 33 115 10 l 68 153 q 183 111 118 130 q 311 93 248 93 q 437 121 398 93 q 476 196 476 149 q 460 245 476 224 q 406 288 445 267 q 294 337 367 309 q 173 393 223 365 q 96 460 122 420 q 69 562 69 499 q 147 710 69 659 q 352 761 224 761 q 480 747 420 761 q 595 709 540 734 l 551 604 q 450 639 502 625 q 345 653 399 653 q 238 631 275 653 q 201 569 201 608 q 219 518 201 538 q 277 478 236 498 q 387 433 317 459 q 505 379 455 407 q 582 311 555 351 q 609 209 609 271 m 262 842 q 213 910 243 873 q 149 984 182 947 q 91 1046 116 1020 l 91 1063 l 183 1063 q 259 1005 220 1039 q 334 934 299 972 q 410 1006 370 972 q 486 1063 450 1040 l 581 1063 l 581 1046 q 521 984 555 1020 q 456 910 487 948 q 408 842 425 873 l 262 842 z "},"Ț":{"ha":775,"x_min":16,"x_max":758,"o":"m 457 0 l 317 0 l 317 871 l 16 871 l 16 991 l 758 991 l 758 871 l 457 871 l 457 0 m 479 -85 l 479 -97 q 454 -161 471 -124 q 416 -236 437 -198 q 370 -307 394 -275 l 294 -307 l 294 -290 q 314 -230 303 -267 q 334 -154 325 -193 q 347 -85 344 -115 l 479 -85 z "},"ț":{"ha":522,"x_min":24,"x_max":487,"o":"m 376 97 q 435 102 406 97 q 487 115 465 107 l 487 11 q 426 -6 464 1 q 347 -14 387 -14 q 237 7 286 -14 q 158 79 187 28 q 128 220 128 130 l 128 642 l 24 642 l 24 705 l 133 755 l 181 917 l 265 917 l 265 747 l 481 747 l 481 642 l 265 642 l 265 222 q 295 128 265 159 q 376 97 326 97 m 395 -85 l 395 -97 q 371 -161 387 -124 q 332 -236 354 -198 q 286 -307 311 -275 l 210 -307 l 210 -290 q 231 -230 220 -267 q 251 -154 241 -193 q 264 -85 260 -115 l 395 -85 z "},"Ť":{"ha":775,"x_min":16,"x_max":758,"o":"m 457 0 l 317 0 l 317 871 l 16 871 l 16 991 l 758 991 l 758 871 l 457 871 l 457 0 m 314 1086 q 265 1155 296 1118 q 201 1229 235 1192 q 143 1291 168 1265 l 143 1308 l 235 1308 q 312 1250 272 1284 q 386 1179 351 1217 q 462 1251 422 1217 q 538 1308 502 1284 l 633 1308 l 633 1291 q 573 1229 607 1265 q 508 1155 539 1193 q 460 1086 477 1118 l 314 1086 z "},"ť":{"ha":522,"x_min":24,"x_max":676,"o":"m 376 97 q 435 102 406 97 q 487 115 465 107 l 487 11 q 426 -6 464 1 q 347 -14 387 -14 q 237 7 286 -14 q 158 79 187 28 q 128 220 128 130 l 128 642 l 24 642 l 24 705 l 133 755 l 181 917 l 265 917 l 265 747 l 481 747 l 481 642 l 265 642 l 265 222 q 295 128 265 159 q 376 97 326 97 m 676 1055 l 676 1043 q 652 979 669 1016 q 616 904 636 942 q 574 833 596 866 l 498 833 l 498 850 q 512 895 505 869 q 525 950 519 921 q 537 1006 532 979 q 545 1055 542 1033 l 676 1055 z "},"Ŧ":{"ha":775,"x_min":16,"x_max":758,"o":"m 317 0 l 317 444 l 115 444 l 115 557 l 317 557 l 317 871 l 16 871 l 16 991 l 758 991 l 758 871 l 456 871 l 456 557 l 656 557 l 656 444 l 456 444 l 456 0 l 317 0 z "},"ŧ":{"ha":522,"x_min":24,"x_max":487,"o":"m 36 376 l 36 475 l 465 475 l 465 376 l 36 376 m 376 97 q 435 102 406 97 q 487 115 465 107 l 487 11 q 426 -6 464 1 q 347 -14 387 -14 q 237 7 286 -14 q 158 79 187 28 q 128 220 128 130 l 128 642 l 24 642 l 24 705 l 133 755 l 181 917 l 265 917 l 265 747 l 481 747 l 481 642 l 265 642 l 265 222 q 295 128 265 159 q 376 97 326 97 z "},"Ũ":{"ha":1022,"x_min":123,"x_max":897,"o":"m 897 991 l 897 350 q 854 163 897 245 q 724 34 811 81 q 506 -14 637 -14 q 221 86 319 -14 q 123 353 123 186 l 123 991 l 263 991 l 263 358 q 326 169 263 233 q 513 105 389 105 q 652 136 598 105 q 733 223 707 167 q 759 358 759 280 l 759 991 l 897 991 m 252 1088 q 269 1166 256 1132 q 302 1223 281 1200 q 350 1258 323 1246 q 410 1270 378 1270 q 469 1258 441 1270 q 523 1230 497 1246 q 573 1203 549 1215 q 621 1191 597 1191 q 668 1210 650 1191 q 696 1271 686 1230 l 771 1271 q 721 1137 762 1185 q 613 1088 679 1088 q 556 1101 583 1088 q 503 1128 528 1113 q 452 1156 477 1143 q 403 1168 427 1168 q 355 1148 373 1168 q 328 1088 337 1129 l 252 1088 z "},"ũ":{"ha":867,"x_min":109,"x_max":751,"o":"m 751 747 l 751 0 l 642 0 l 623 102 l 615 102 q 555 38 592 64 q 473 -1 519 12 q 377 -14 428 -14 q 231 15 291 -14 q 140 103 171 43 q 109 258 109 163 l 109 747 l 246 747 l 246 277 q 285 142 246 187 q 404 98 324 98 q 528 129 482 98 q 594 219 574 159 q 614 364 614 278 l 614 747 l 751 747 m 174 843 q 190 921 178 887 q 223 978 203 955 q 272 1013 244 1001 q 332 1025 299 1025 q 390 1013 362 1025 q 444 985 418 1001 q 494 958 470 970 q 542 946 519 946 q 589 965 571 946 q 617 1026 608 985 l 692 1026 q 642 892 684 940 q 534 844 600 844 q 477 856 505 844 q 424 883 450 868 q 373 911 398 899 q 324 923 349 923 q 276 904 294 923 q 249 843 258 884 l 174 843 z "},"Ū":{"ha":1022,"x_min":123,"x_max":897,"o":"m 897 991 l 897 350 q 854 163 897 245 q 724 34 811 81 q 506 -14 637 -14 q 221 86 319 -14 q 123 353 123 186 l 123 991 l 263 991 l 263 358 q 326 169 263 233 q 513 105 389 105 q 652 136 598 105 q 733 223 707 167 q 759 358 759 280 l 759 991 l 897 991 m 721 1192 l 721 1088 l 301 1088 l 301 1192 l 721 1192 z "},"ū":{"ha":867,"x_min":109,"x_max":751,"o":"m 751 747 l 751 0 l 642 0 l 623 102 l 615 102 q 555 38 592 64 q 473 -1 519 12 q 377 -14 428 -14 q 231 15 291 -14 q 140 103 171 43 q 109 258 109 163 l 109 747 l 246 747 l 246 277 q 285 142 246 187 q 404 98 324 98 q 528 129 482 98 q 594 219 574 159 q 614 364 614 278 l 614 747 l 751 747 m 644 947 l 644 843 l 224 843 l 224 947 l 644 947 z "},"Ŭ":{"ha":1022,"x_min":123,"x_max":897,"o":"m 897 991 l 897 350 q 854 163 897 245 q 724 34 811 81 q 506 -14 637 -14 q 221 86 319 -14 q 123 353 123 186 l 123 991 l 263 991 l 263 358 q 326 169 263 233 q 513 105 389 105 q 652 136 598 105 q 733 223 707 167 q 759 358 759 280 l 759 991 l 897 991 m 741 1281 q 708 1180 736 1223 q 631 1111 680 1136 q 513 1086 581 1086 q 353 1139 409 1086 q 292 1281 297 1192 l 374 1281 q 395 1224 377 1243 q 444 1198 413 1204 q 515 1192 474 1192 q 583 1199 552 1192 q 633 1225 613 1206 q 658 1281 653 1245 l 741 1281 z "},"ŭ":{"ha":867,"x_min":109,"x_max":751,"o":"m 751 747 l 751 0 l 642 0 l 623 102 l 615 102 q 555 38 592 64 q 473 -1 519 12 q 377 -14 428 -14 q 231 15 291 -14 q 140 103 171 43 q 109 258 109 163 l 109 747 l 246 747 l 246 277 q 285 142 246 187 q 404 98 324 98 q 528 129 482 98 q 594 219 574 159 q 614 364 614 278 l 614 747 l 751 747 m 664 1036 q 631 935 659 979 q 553 866 603 891 q 436 842 504 842 q 276 895 332 842 q 214 1036 220 947 l 296 1036 q 318 979 300 998 q 366 953 336 960 q 438 947 397 947 q 505 954 475 947 q 556 981 536 961 q 581 1036 576 1000 l 664 1036 z "},"Ů":{"ha":1022,"x_min":123,"x_max":897,"o":"m 897 991 l 897 350 q 854 163 897 245 q 724 34 811 81 q 506 -14 637 -14 q 221 86 319 -14 q 123 353 123 186 l 123 991 l 263 991 l 263 358 q 326 169 263 233 q 513 105 389 105 q 652 136 598 105 q 733 223 707 167 q 759 358 759 280 l 759 991 l 897 991 m 512 1086 q 400 1126 444 1086 q 357 1237 357 1166 q 400 1346 357 1306 q 512 1386 444 1386 q 624 1347 578 1386 q 669 1238 669 1307 q 624 1127 669 1167 q 512 1086 579 1086 m 512 1160 q 568 1180 546 1160 q 589 1237 589 1201 q 567 1293 589 1272 q 512 1314 545 1314 q 457 1293 479 1314 q 435 1237 435 1272 q 455 1180 435 1201 q 512 1160 475 1160 z "},"ů":{"ha":867,"x_min":109,"x_max":751,"o":"m 751 747 l 751 0 l 642 0 l 623 102 l 615 102 q 555 38 592 64 q 473 -1 519 12 q 377 -14 428 -14 q 231 15 291 -14 q 140 103 171 43 q 109 258 109 163 l 109 747 l 246 747 l 246 277 q 285 142 246 187 q 404 98 324 98 q 528 129 482 98 q 594 219 574 159 q 614 364 614 278 l 614 747 l 751 747 m 435 842 q 323 882 366 842 q 280 992 280 922 q 323 1101 280 1061 q 435 1141 366 1141 q 547 1102 501 1141 q 592 994 592 1062 q 547 882 592 922 q 435 842 502 842 m 435 915 q 490 936 469 915 q 512 992 512 956 q 490 1048 512 1027 q 435 1069 467 1069 q 380 1048 402 1069 q 357 992 357 1027 q 377 936 357 956 q 435 915 397 915 z "},"Ű":{"ha":1022,"x_min":123,"x_max":897,"o":"m 897 991 l 897 350 q 854 163 897 245 q 724 34 811 81 q 506 -14 637 -14 q 221 86 319 -14 q 123 353 123 186 l 123 991 l 263 991 l 263 358 q 326 169 263 233 q 513 105 389 105 q 652 136 598 105 q 733 223 707 167 q 759 358 759 280 l 759 991 l 897 991 m 854 1309 l 854 1295 q 820 1249 842 1276 q 769 1191 798 1221 q 713 1134 741 1161 q 661 1086 684 1106 l 584 1086 l 584 1103 q 628 1166 604 1130 q 673 1240 651 1202 q 710 1309 696 1278 l 854 1309 m 605 1309 l 605 1295 q 571 1249 593 1276 q 520 1191 549 1221 q 464 1134 492 1161 q 412 1086 435 1106 l 335 1086 l 335 1103 q 378 1166 355 1130 q 424 1240 401 1202 q 461 1309 446 1278 l 605 1309 z "},"ű":{"ha":867,"x_min":109,"x_max":776,"o":"m 751 747 l 751 0 l 642 0 l 623 102 l 615 102 q 555 38 592 64 q 473 -1 519 12 q 377 -14 428 -14 q 231 15 291 -14 q 140 103 171 43 q 109 258 109 163 l 109 747 l 246 747 l 246 277 q 285 142 246 187 q 404 98 324 98 q 528 129 482 98 q 594 219 574 159 q 614 364 614 278 l 614 747 l 751 747 m 776 1064 l 776 1050 q 742 1004 764 1031 q 691 946 720 977 q 635 889 663 916 q 583 842 606 861 l 506 842 l 506 859 q 550 921 526 885 q 595 995 573 958 q 632 1064 618 1033 l 776 1064 m 527 1064 l 527 1050 q 493 1004 515 1031 q 443 946 471 977 q 386 889 414 916 q 334 842 357 861 l 257 842 l 257 859 q 300 921 277 885 q 346 995 323 958 q 383 1064 368 1033 l 527 1064 z "},"Ų":{"ha":1022,"x_min":123,"x_max":897,"o":"m 650 -148 q 667 -206 650 -188 q 713 -224 684 -224 q 752 -220 735 -224 q 781 -214 769 -217 l 781 -299 q 741 -308 762 -304 q 692 -312 720 -312 q 582 -274 618 -312 q 545 -165 545 -237 q 566 -77 545 -120 q 621 1 588 -35 q 686 58 653 36 l 779 72 q 707 -11 736 26 q 664 -81 678 -48 q 650 -148 650 -114 m 897 991 l 897 350 q 854 163 897 245 q 724 34 811 81 q 506 -14 637 -14 q 221 86 319 -14 q 123 353 123 186 l 123 991 l 263 991 l 263 358 q 326 169 263 233 q 513 105 389 105 q 652 136 598 105 q 733 223 707 167 q 759 358 759 280 l 759 991 l 897 991 z "},"ų":{"ha":867,"x_min":109,"x_max":756,"o":"m 751 747 l 751 0 l 642 0 l 623 102 l 615 102 q 555 38 592 64 q 473 -1 519 12 q 377 -14 428 -14 q 231 15 291 -14 q 140 103 171 43 q 109 258 109 163 l 109 747 l 246 747 l 246 277 q 285 142 246 187 q 404 98 324 98 q 528 129 482 98 q 594 219 574 159 q 614 364 614 278 l 614 747 l 751 747 m 625 -161 q 642 -208 625 -192 q 688 -224 658 -224 q 727 -220 709 -224 q 757 -214 745 -217 l 757 -299 q 716 -308 737 -304 q 667 -312 695 -312 q 557 -276 594 -312 q 519 -176 519 -239 q 539 -100 519 -137 q 590 -32 559 -63 q 654 21 621 -1 l 724 0 q 651 -81 676 -43 q 625 -161 625 -119 z "},"Ŵ":{"ha":1297,"x_min":16,"x_max":1282,"o":"m 1282 991 l 1021 0 l 873 0 l 692 631 q 677 685 685 656 q 663 743 670 714 q 651 795 656 772 q 644 830 646 818 q 638 795 643 818 q 628 744 634 772 q 614 686 622 715 q 600 630 607 656 l 422 0 l 276 0 l 16 991 l 157 991 l 309 390 q 323 329 316 360 q 336 268 330 298 q 347 208 342 237 q 356 153 352 179 q 365 210 359 180 q 377 271 370 240 q 391 333 383 302 q 406 391 398 363 l 576 991 l 715 991 l 890 388 q 906 328 899 359 q 921 266 914 297 q 932 206 927 235 q 941 153 937 178 q 953 227 946 187 q 970 308 960 266 q 989 391 979 350 l 1140 991 l 1282 991 m 723 1308 q 771 1239 741 1278 q 836 1165 802 1201 q 896 1102 870 1128 l 896 1086 l 802 1086 q 725 1143 765 1109 q 649 1214 686 1177 q 574 1144 612 1177 q 498 1086 535 1111 l 406 1086 l 406 1102 q 465 1165 432 1129 q 528 1240 498 1202 q 577 1308 559 1278 l 723 1308 z "},"ŵ":{"ha":1105,"x_min":16,"x_max":1089,"o":"m 726 1 l 612 392 q 596 450 604 418 q 579 514 587 482 q 565 573 571 546 q 555 618 558 601 l 549 618 q 540 573 546 601 q 526 514 534 546 q 510 449 518 481 q 493 390 501 416 l 374 1 l 223 1 l 16 748 l 155 748 l 257 357 q 277 275 267 317 q 293 196 286 233 q 303 132 300 159 l 309 132 q 317 176 312 150 q 328 231 322 202 q 341 287 334 260 q 355 334 349 314 l 481 748 l 629 748 l 750 335 q 768 268 759 305 q 785 195 778 231 q 795 134 793 159 l 801 134 q 811 193 804 157 q 828 273 819 230 q 848 357 838 316 l 952 748 l 1089 748 l 880 1 l 726 1 m 627 1063 q 676 995 645 1033 q 741 920 707 956 q 800 857 774 884 l 800 842 l 706 842 q 630 898 669 865 q 553 969 590 932 q 478 899 517 932 q 403 842 439 866 l 311 842 l 311 857 q 369 921 336 884 q 433 995 402 957 q 481 1063 463 1033 l 627 1063 z "},"Ŷ":{"ha":799,"x_min":0,"x_max":799,"o":"m 400 517 l 650 991 l 799 991 l 469 385 l 469 0 l 330 0 l 330 379 l 0 991 l 152 991 l 400 517 m 474 1308 q 523 1239 492 1278 q 587 1165 553 1201 q 647 1102 621 1128 l 647 1086 l 553 1086 q 476 1143 516 1109 q 400 1214 437 1177 q 325 1144 363 1177 q 250 1086 286 1111 l 157 1086 l 157 1102 q 216 1165 183 1129 q 279 1240 249 1202 q 328 1308 310 1278 l 474 1308 z "},"ŷ":{"ha":720,"x_min":1,"x_max":720,"o":"m 1 747 l 149 747 l 307 317 q 330 252 319 283 q 348 191 340 220 q 361 133 356 161 l 366 133 q 389 217 374 168 q 421 317 404 267 l 573 747 l 720 747 l 397 -106 q 333 -228 370 -177 q 243 -307 295 -279 q 121 -334 192 -334 q 64 -331 89 -334 q 22 -322 39 -327 l 22 -214 q 58 -220 37 -217 q 102 -222 79 -222 q 176 -206 145 -222 q 229 -159 207 -189 q 266 -87 251 -128 l 300 1 l 1 747 m 434 1063 q 483 995 452 1033 q 547 920 513 956 q 607 857 581 884 l 607 842 l 513 842 q 436 898 476 865 q 360 969 397 932 q 285 899 323 932 q 210 842 246 866 l 117 842 l 117 857 q 176 921 143 884 q 239 995 209 957 q 288 1063 270 1033 l 434 1063 z "},"Ÿ":{"ha":799,"x_min":0,"x_max":799,"o":"m 400 517 l 650 991 l 799 991 l 469 385 l 469 0 l 330 0 l 330 379 l 0 991 l 152 991 l 400 517 m 197 1192 q 218 1247 197 1230 q 267 1264 238 1264 q 317 1247 296 1264 q 338 1192 338 1230 q 317 1138 338 1156 q 267 1120 296 1120 q 218 1138 238 1120 q 197 1192 197 1156 m 461 1192 q 481 1247 461 1230 q 530 1264 501 1264 q 581 1247 559 1264 q 602 1192 602 1230 q 581 1138 602 1156 q 530 1120 559 1120 q 481 1138 501 1120 q 461 1192 461 1156 z "},"Ź":{"ha":798,"x_min":48,"x_max":749,"o":"m 749 0 l 48 0 l 48 99 l 567 871 l 65 871 l 65 991 l 735 991 l 735 892 l 216 121 l 749 121 l 749 0 m 618 1309 l 618 1295 q 578 1248 604 1276 q 522 1191 553 1221 q 461 1133 492 1160 q 406 1086 431 1106 l 315 1086 l 315 1103 q 363 1165 336 1129 q 416 1239 390 1201 q 458 1309 441 1278 l 618 1309 z "},"ź":{"ha":658,"x_min":50,"x_max":606,"o":"m 606 0 l 50 0 l 50 87 l 444 642 l 75 642 l 75 747 l 597 747 l 597 651 l 210 105 l 606 105 l 606 0 m 543 1064 l 543 1050 q 502 1003 528 1031 q 446 946 477 976 q 385 888 416 916 q 330 842 355 861 l 239 842 l 239 859 q 287 920 260 884 q 340 995 314 956 q 382 1064 366 1033 l 543 1064 z "},"Ż":{"ha":798,"x_min":48,"x_max":749,"o":"m 749 0 l 48 0 l 48 99 l 567 871 l 65 871 l 65 991 l 735 991 l 735 892 l 216 121 l 749 121 l 749 0 m 407 1275 q 462 1256 439 1275 q 486 1194 486 1237 q 462 1132 486 1152 q 407 1113 439 1113 q 350 1132 373 1113 q 328 1194 328 1152 q 350 1256 328 1237 q 407 1275 373 1275 z "},"ż":{"ha":658,"x_min":50,"x_max":606,"o":"m 606 0 l 50 0 l 50 87 l 444 642 l 75 642 l 75 747 l 597 747 l 597 651 l 210 105 l 606 105 l 606 0 m 332 1030 q 387 1011 363 1030 q 410 949 410 992 q 387 887 410 907 q 332 868 363 868 q 275 887 298 868 q 252 949 252 907 q 275 1011 252 992 q 332 1030 298 1030 z "},"Ž":{"ha":798,"x_min":48,"x_max":749,"o":"m 749 0 l 48 0 l 48 99 l 567 871 l 65 871 l 65 991 l 735 991 l 735 892 l 216 121 l 749 121 l 749 0 m 331 1086 q 282 1155 313 1118 q 218 1229 252 1192 q 160 1291 185 1265 l 160 1308 l 252 1308 q 329 1250 289 1284 q 403 1179 368 1217 q 479 1251 439 1217 q 555 1308 519 1284 l 650 1308 l 650 1291 q 590 1229 624 1265 q 525 1155 556 1193 q 477 1086 494 1118 l 331 1086 z "},"ž":{"ha":658,"x_min":50,"x_max":606,"o":"m 606 0 l 50 0 l 50 87 l 444 642 l 75 642 l 75 747 l 597 747 l 597 651 l 210 105 l 606 105 l 606 0 m 256 842 q 207 910 237 873 q 143 984 176 947 q 85 1046 110 1020 l 85 1063 l 177 1063 q 253 1005 214 1039 q 328 934 293 972 q 404 1006 364 972 q 480 1063 444 1040 l 574 1063 l 574 1046 q 515 984 549 1020 q 450 910 481 948 q 401 842 419 873 l 256 842 z "},"ſ":{"ha":469,"x_min":116,"x_max":512,"o":"m 370 951 q 283 916 313 951 q 253 803 253 880 l 253 0 l 116 0 l 116 806 q 147 956 116 900 q 233 1038 178 1013 q 364 1063 289 1063 q 448 1055 412 1063 q 512 1036 484 1046 l 478 931 q 428 945 456 939 q 370 951 400 951 z "},"ƒ":{"ha":794,"x_min":130,"x_max":709,"o":"m 561 1006 q 645 997 608 1006 q 709 977 682 987 l 677 873 q 627 887 654 880 q 570 894 601 894 q 487 862 513 894 q 460 752 460 829 l 460 666 l 640 666 l 640 562 l 463 562 l 463 -91 q 437 -227 463 -173 q 360 -307 411 -281 q 233 -334 309 -334 q 177 -329 204 -334 q 130 -319 150 -325 l 130 -208 q 172 -218 151 -214 q 216 -221 193 -221 q 297 -191 270 -221 q 324 -83 324 -161 l 324 562 l 187 562 l 187 627 l 324 669 l 324 754 q 352 904 324 849 q 433 982 380 959 q 561 1006 486 1006 z "},"Ǻ":{"ha":899,"x_min":-1,"x_max":900,"o":"m -1 0 l 355 852 q 310 901 326 870 q 293 973 293 931 q 336 1084 293 1044 q 448 1124 380 1124 q 561 1084 515 1124 q 606 975 606 1044 q 590 902 606 932 q 544 854 573 871 l 900 0 l 753 0 l 647 260 l 248 260 l 144 0 l -1 0 m 290 382 l 610 382 l 503 650 q 486 694 496 668 q 466 749 475 721 q 449 802 456 778 q 437 762 444 784 q 422 719 429 741 q 408 679 415 697 q 397 648 401 660 l 290 382 m 448 895 q 504 916 483 895 q 526 973 526 936 q 504 1030 526 1010 q 448 1050 482 1050 q 392 1030 414 1050 q 370 973 370 1010 q 391 916 370 937 q 448 895 412 895 m 382 1160 l 382 1172 q 425 1221 403 1194 q 468 1278 448 1249 q 504 1332 489 1307 l 664 1332 l 664 1322 q 630 1285 652 1306 q 581 1241 608 1264 q 525 1197 553 1218 q 473 1160 497 1175 l 382 1160 z "},"ǻ":{"ha":789,"x_min":62,"x_max":677,"o":"m 402 760 q 609 699 541 760 q 677 505 677 637 l 677 0 l 580 0 l 553 109 l 548 109 q 483 41 517 68 q 405 0 449 14 q 296 -14 360 -14 q 176 11 229 -14 q 93 84 123 35 q 62 210 62 134 q 150 382 62 323 q 415 447 237 441 l 544 452 l 544 494 q 505 618 544 582 q 396 654 466 654 q 286 637 338 654 q 184 597 233 621 l 140 696 q 261 742 193 724 q 402 760 328 760 m 543 363 l 438 358 q 256 315 309 353 q 203 208 203 277 q 239 121 203 149 q 334 93 275 93 q 484 144 425 93 q 543 296 543 195 l 543 363 m 401 1058 q 346 1037 368 1058 q 324 981 324 1017 q 344 924 324 945 q 401 903 364 903 q 456 924 435 903 q 477 981 477 945 q 456 1037 477 1017 q 401 1058 434 1058 m 401 1130 q 481 1112 446 1130 q 537 1061 517 1094 q 558 982 558 1028 q 513 871 558 911 q 401 831 469 831 q 290 870 333 831 q 246 981 246 910 q 290 1090 246 1050 q 401 1130 333 1130 m 624 1330 l 624 1322 q 570 1278 608 1304 q 489 1226 532 1253 q 414 1183 446 1200 l 319 1183 l 319 1194 q 361 1236 338 1213 q 405 1284 384 1260 q 441 1330 426 1309 l 624 1330 z "},"Ǽ":{"ha":1235,"x_min":-1,"x_max":1157,"o":"m 1157 0 l 621 0 l 621 295 l 280 295 l 142 0 l -1 0 l 460 991 l 1157 991 l 1157 872 l 760 872 l 760 577 l 1131 577 l 1131 459 l 760 459 l 760 120 l 1157 120 l 1157 0 m 333 416 l 621 416 l 621 869 l 541 869 l 333 416 m 893 1309 l 893 1295 q 853 1248 878 1276 q 797 1191 827 1221 q 736 1133 766 1160 q 680 1086 705 1106 l 589 1086 l 589 1103 q 638 1165 611 1129 q 690 1239 665 1201 q 733 1309 716 1278 l 893 1309 z "},"ǽ":{"ha":1217,"x_min":62,"x_max":1148,"o":"m 851 761 q 1009 719 943 761 q 1112 602 1076 677 q 1148 425 1148 526 l 1148 346 l 665 346 q 722 159 667 221 q 878 97 777 97 q 1001 111 946 97 q 1113 151 1056 124 l 1113 36 q 1001 -2 1057 10 q 872 -14 946 -14 q 754 4 808 -14 q 658 57 700 22 q 587 144 616 92 q 516 59 554 94 q 426 5 477 24 q 299 -14 374 -14 q 178 11 232 -14 q 94 84 125 35 q 62 210 62 134 q 100 337 62 286 q 212 416 137 388 q 399 447 287 444 l 526 452 l 526 503 q 487 620 526 585 q 379 654 447 654 q 272 638 324 654 q 171 598 219 622 l 127 696 q 249 742 180 724 q 389 760 318 760 q 530 732 473 760 q 616 641 587 703 q 713 729 654 698 q 851 761 772 761 m 524 363 l 425 358 q 253 315 303 353 q 203 208 203 277 q 238 121 203 149 q 329 93 272 93 q 429 116 385 93 q 499 183 473 138 q 524 296 524 229 l 524 363 m 849 655 q 722 602 770 655 q 668 447 675 549 l 1010 447 q 992 556 1010 509 q 939 629 975 603 q 849 655 903 655 m 831 1064 l 831 1050 q 791 1003 817 1031 q 735 946 766 976 q 674 888 705 916 q 618 842 644 861 l 528 842 l 528 859 q 576 920 549 884 q 629 995 603 956 q 671 1064 654 1033 l 831 1064 z "},"Ǿ":{"ha":1086,"x_min":84,"x_max":1003,"o":"m 1003 497 q 974 289 1003 382 q 887 127 945 195 q 744 23 830 60 q 544 -14 659 -14 q 404 2 467 -14 q 292 50 341 18 l 224 -47 l 138 10 l 210 113 q 115 278 146 180 q 84 498 84 376 q 134 766 84 651 q 287 944 184 880 q 546 1007 390 1007 q 680 991 618 1007 q 791 946 741 975 l 856 1038 l 941 980 l 872 882 q 970 718 937 816 q 1003 497 1003 621 m 857 497 q 840 648 857 581 q 791 765 824 716 l 365 155 q 444 118 399 132 q 544 105 489 105 q 722 153 653 105 q 824 289 791 201 q 857 497 857 376 m 230 497 q 245 349 230 416 q 292 233 261 282 l 719 840 q 642 875 685 863 q 546 887 599 887 q 368 840 437 887 q 264 706 298 793 q 230 497 230 618 m 760 1309 l 760 1295 q 720 1248 745 1276 q 664 1191 694 1221 q 603 1133 633 1160 q 547 1086 572 1106 l 456 1086 l 456 1103 q 505 1165 478 1129 q 557 1239 532 1201 q 600 1309 583 1278 l 760 1309 z "},"ǿ":{"ha":842,"x_min":74,"x_max":769,"o":"m 769 375 q 727 165 769 252 q 606 32 684 78 q 419 -14 527 -14 q 323 -2 368 -14 q 241 32 279 9 l 185 -47 l 104 9 l 165 93 q 98 214 121 144 q 74 375 74 285 q 168 660 74 559 q 423 761 261 761 q 520 748 475 761 q 604 712 566 736 l 656 787 l 739 731 l 680 650 q 746 531 722 600 q 769 375 769 463 m 214 375 q 221 283 214 325 q 244 209 229 241 l 536 615 q 485 639 513 631 q 420 648 456 648 q 263 576 313 648 q 214 375 214 505 m 629 375 q 622 462 629 422 q 600 533 614 502 l 310 129 q 359 106 331 114 q 422 98 388 98 q 539 132 493 98 q 607 227 585 165 q 629 375 629 289 m 636 1064 l 636 1050 q 596 1003 621 1031 q 540 946 570 976 q 479 888 509 916 q 423 842 448 861 l 332 842 l 332 859 q 381 920 354 884 q 433 995 408 956 q 476 1064 459 1033 l 636 1064 z "},"Ș":{"ha":762,"x_min":69,"x_max":699,"o":"m 699 267 q 655 116 699 178 q 532 20 612 53 q 344 -14 453 -14 q 239 -8 289 -14 q 146 9 189 -2 q 69 36 104 20 l 69 168 q 199 124 125 144 q 352 104 273 104 q 467 123 420 104 q 537 176 513 142 q 561 257 561 210 q 538 337 561 304 q 465 396 515 369 q 334 454 415 423 q 232 500 278 474 q 152 560 186 526 q 100 640 119 594 q 82 745 82 686 q 122 886 82 827 q 235 975 163 944 q 404 1006 308 1006 q 550 990 482 1006 q 680 947 618 975 l 636 832 q 520 871 578 856 q 399 886 462 886 q 302 869 342 886 q 242 821 262 852 q 221 747 221 789 q 243 667 221 699 q 311 609 264 635 q 433 554 358 583 q 577 485 518 522 q 668 397 637 448 q 699 267 699 345 m 454 -85 l 454 -97 q 429 -161 446 -124 q 391 -236 412 -198 q 345 -307 369 -275 l 269 -307 l 269 -290 q 289 -230 278 -267 q 309 -154 300 -193 q 322 -85 319 -115 l 454 -85 z "},"ș":{"ha":669,"x_min":68,"x_max":609,"o":"m 609 209 q 573 86 609 136 q 470 12 538 37 q 307 -14 402 -14 q 172 -2 229 -14 q 68 33 115 10 l 68 153 q 183 111 118 130 q 311 93 248 93 q 437 121 398 93 q 476 196 476 149 q 460 245 476 224 q 406 288 445 267 q 294 337 367 309 q 173 393 223 365 q 96 460 122 420 q 69 562 69 499 q 147 710 69 659 q 352 761 224 761 q 480 747 420 761 q 595 709 540 734 l 551 604 q 450 639 502 625 q 345 653 399 653 q 238 631 275 653 q 201 569 201 608 q 219 518 201 538 q 277 478 236 498 q 387 433 317 459 q 505 379 455 407 q 582 311 555 351 q 609 209 609 271 m 427 -85 l 427 -97 q 402 -161 418 -124 q 363 -236 385 -198 q 317 -307 342 -275 l 241 -307 l 241 -290 q 262 -230 251 -267 q 282 -154 273 -193 q 295 -85 292 -115 l 427 -85 z "},"ˆ":{"ha":601,"x_min":56,"x_max":545,"o":"m 372 1063 q 421 995 390 1033 q 486 920 452 956 q 545 857 519 884 l 545 842 l 451 842 q 375 898 414 865 q 298 969 335 932 q 223 899 262 932 q 148 842 184 866 l 56 842 l 56 857 q 114 921 81 884 q 178 995 147 957 q 227 1063 208 1033 l 372 1063 z "},"ˇ":{"ha":601,"x_min":56,"x_max":545,"o":"m 227 842 q 178 910 208 873 q 114 984 147 947 q 56 1046 81 1020 l 56 1063 l 148 1063 q 224 1005 184 1039 q 298 934 264 972 q 375 1006 335 972 q 451 1063 414 1040 l 545 1063 l 545 1046 q 486 984 519 1020 q 421 910 452 948 q 372 842 390 873 l 227 842 z "},"ˉ":{"ha":531,"x_min":56,"x_max":475,"o":"m 475 947 l 475 843 l 56 843 l 56 947 l 475 947 z "},"˘":{"ha":561,"x_min":56,"x_max":505,"o":"m 505 1036 q 472 935 500 979 q 395 866 444 891 q 277 842 345 842 q 117 895 173 842 q 56 1036 61 947 l 138 1036 q 159 979 141 998 q 208 953 177 960 q 279 947 238 947 q 347 954 316 947 q 397 981 377 961 q 422 1036 417 1000 l 505 1036 z "},"˙":{"ha":269,"x_min":56,"x_max":214,"o":"m 135 1030 q 190 1011 167 1030 q 214 949 214 992 q 190 887 214 907 q 135 868 167 868 q 78 887 101 868 q 56 949 56 907 q 78 1011 56 992 q 135 1030 101 1030 z "},"˚":{"ha":423,"x_min":56,"x_max":368,"o":"m 210 842 q 99 882 142 842 q 56 992 56 922 q 99 1101 56 1061 q 210 1141 142 1141 q 322 1102 277 1141 q 368 994 368 1062 q 322 882 368 922 q 210 842 277 842 m 210 915 q 266 936 244 915 q 288 992 288 956 q 265 1048 288 1027 q 210 1069 243 1069 q 155 1048 178 1069 q 133 992 133 1027 q 153 936 133 956 q 210 915 173 915 z "},"˛":{"ha":349,"x_min":56,"x_max":293,"o":"m 161 -161 q 178 -208 161 -192 q 224 -224 194 -224 q 263 -220 245 -224 q 293 -214 281 -217 l 293 -299 q 252 -308 273 -304 q 203 -312 231 -312 q 93 -276 130 -312 q 56 -176 56 -239 q 76 -100 56 -137 q 126 -32 96 -63 q 191 21 157 -1 l 260 0 q 187 -81 212 -43 q 161 -161 161 -119 z "},"˜":{"ha":629,"x_min":56,"x_max":574,"o":"m 56 843 q 72 921 60 887 q 105 978 85 955 q 154 1013 126 1001 q 214 1025 181 1025 q 272 1013 244 1025 q 326 985 300 1001 q 376 958 352 970 q 424 946 401 946 q 471 965 453 946 q 499 1026 490 985 l 574 1026 q 524 892 566 940 q 416 844 482 844 q 359 856 387 844 q 306 883 332 868 q 255 911 280 899 q 206 923 231 923 q 158 904 176 923 q 131 843 140 884 l 56 843 z "},"˝":{"ha":630,"x_min":56,"x_max":574,"o":"m 574 1064 l 574 1050 q 541 1004 563 1031 q 490 946 518 977 q 433 889 462 916 q 381 842 405 861 l 304 842 l 304 859 q 348 921 325 885 q 394 995 372 958 q 431 1064 416 1033 l 574 1064 m 326 1064 l 326 1050 q 292 1004 314 1031 q 241 946 269 977 q 184 889 213 916 q 132 842 156 861 l 56 842 l 56 859 q 99 921 76 885 q 144 995 122 958 q 182 1064 166 1033 l 326 1064 z "},"΄":{"ha":802,"x_min":346,"x_max":547,"o":"m 346 842 l 346 861 q 365 918 355 886 q 382 985 374 950 q 397 1054 391 1020 q 408 1115 404 1087 l 547 1115 l 547 1100 q 518 1022 538 1067 q 476 929 499 977 q 428 842 452 882 l 346 842 z "},"΅":{"ha":802,"x_min":181,"x_max":635,"o":"m 546 1164 l 546 1150 q 512 1085 532 1121 q 466 1012 491 1049 q 416 941 441 975 l 351 941 l 351 957 q 373 1021 361 985 q 394 1095 384 1057 q 409 1164 404 1133 l 546 1164 m 248 1019 q 296 1002 277 1019 q 315 947 315 985 q 296 893 315 911 q 248 875 277 875 q 200 893 219 875 q 181 947 181 911 q 200 1002 181 985 q 248 1019 219 1019 m 568 1019 q 615 1002 595 1019 q 635 947 635 985 q 615 893 635 911 q 568 875 595 875 q 518 893 537 875 q 500 947 500 911 q 518 1002 500 985 q 568 1019 537 1019 z "},"Ά":{"ha":905,"x_min":7,"x_max":904,"o":"m 758 0 l 648 295 l 260 295 l 151 0 l 7 0 l 385 996 l 528 996 l 904 0 l 758 0 m 610 416 l 505 708 q 491 753 500 723 q 471 814 481 783 q 455 867 461 846 q 439 809 448 840 q 422 751 431 778 q 408 708 414 724 l 302 416 l 610 416 m 17 770 l 17 789 q 36 846 26 814 q 54 913 45 878 q 68 982 62 948 q 79 1043 75 1015 l 218 1043 l 218 1028 q 190 950 209 995 q 147 857 170 905 q 99 770 123 810 l 17 770 z "},"·":{"ha":373,"x_min":96,"x_max":277,"o":"m 96 669 q 122 742 96 721 q 186 764 149 764 q 250 742 224 764 q 277 669 277 721 q 250 596 277 619 q 186 573 224 573 q 122 596 149 573 q 96 669 96 619 z "},"Έ":{"ha":896,"x_min":-1,"x_max":812,"o":"m 812 0 l 256 0 l 256 991 l 812 991 l 812 872 l 395 872 l 395 577 l 787 577 l 787 459 l 395 459 l 395 120 l 812 120 l 812 0 m -1 770 l -1 789 q 18 846 8 814 q 35 913 27 878 q 50 982 43 948 q 60 1043 57 1015 l 199 1043 l 199 1028 q 171 950 191 995 q 129 857 152 905 q 81 770 105 810 l -1 770 z "},"Ή":{"ha":1156,"x_min":-1,"x_max":1023,"o":"m 1023 0 l 884 0 l 884 458 l 395 458 l 395 0 l 256 0 l 256 991 l 395 991 l 395 578 l 884 578 l 884 991 l 1023 991 l 1023 0 m -1 770 l -1 789 q 18 846 8 814 q 35 913 27 878 q 50 982 43 948 q 60 1043 57 1015 l 199 1043 l 199 1028 q 171 950 191 995 q 129 857 152 905 q 81 770 105 810 l -1 770 z "},"Ί":{"ha":533,"x_min":-1,"x_max":398,"o":"m 259 0 l 259 991 l 398 991 l 398 0 l 259 0 m -1 770 l -1 789 q 18 846 8 814 q 35 913 27 878 q 50 982 43 948 q 60 1043 57 1015 l 199 1043 l 199 1028 q 171 950 191 995 q 129 857 152 905 q 81 770 105 810 l -1 770 z "},"Ό":{"ha":1152,"x_min":-1,"x_max":1067,"o":"m 1067 497 q 1038 289 1067 382 q 952 127 1009 195 q 809 23 895 60 q 608 -14 723 -14 q 405 23 492 -14 q 262 127 319 60 q 177 290 205 195 q 149 498 149 384 q 199 766 149 651 q 352 944 249 880 q 610 1007 454 1007 q 863 944 761 1007 q 1016 767 964 881 q 1067 497 1067 652 m 294 497 q 328 289 294 376 q 431 153 361 201 q 608 105 500 105 q 787 153 718 105 q 888 289 856 201 q 921 497 921 376 q 846 784 921 680 q 610 887 772 887 q 432 840 502 887 q 328 706 362 793 q 294 497 294 618 m -1 770 l -1 789 q 18 846 8 814 q 35 913 27 878 q 50 982 43 948 q 60 1043 57 1015 l 199 1043 l 199 1028 q 171 950 191 995 q 129 857 152 905 q 81 770 105 810 l -1 770 z "},"Ύ":{"ha":1022,"x_min":-1,"x_max":1021,"o":"m 623 517 l 872 991 l 1021 991 l 692 385 l 692 0 l 553 0 l 553 379 l 222 991 l 374 991 l 623 517 m -1 770 l -1 789 q 18 846 8 814 q 35 913 27 878 q 50 982 43 948 q 60 1043 57 1015 l 199 1043 l 199 1028 q 171 950 191 995 q 129 857 152 905 q 81 770 105 810 l -1 770 z "},"Ώ":{"ha":1149,"x_min":-7,"x_max":1101,"o":"m 606 887 q 433 847 503 887 q 329 732 363 807 q 294 553 294 658 q 316 382 294 460 q 388 238 338 304 q 519 117 437 172 l 519 0 l 113 0 l 113 121 l 366 121 q 255 230 304 165 q 177 379 205 294 q 149 566 149 464 q 203 800 149 701 q 360 953 258 899 q 606 1007 463 1007 q 854 953 751 1007 q 1011 801 957 899 q 1065 567 1065 702 q 1037 379 1065 464 q 959 230 1008 294 q 847 121 910 165 l 1101 121 l 1101 0 l 694 0 l 694 117 q 826 238 777 172 q 899 383 876 304 q 921 553 921 462 q 886 733 921 659 q 780 847 850 808 q 606 887 710 887 m -7 771 l -7 790 q 12 848 2 816 q 29 915 21 880 q 44 983 37 949 q 54 1044 51 1017 l 193 1044 l 193 1029 q 165 951 184 996 q 122 859 146 906 q 75 771 99 811 l -7 771 z "},"ΐ":{"ha":495,"x_min":-32,"x_max":469,"o":"m 248 747 l 248 222 q 274 128 248 159 q 354 97 300 97 q 416 102 385 97 q 469 115 448 108 l 469 10 q 409 -7 448 0 q 331 -14 370 -14 q 218 7 267 -14 q 141 79 169 28 q 113 220 113 130 l 113 747 l 248 747 m 333 1164 l 333 1150 q 299 1085 319 1121 q 253 1012 278 1049 q 203 941 229 975 l 138 941 l 138 957 q 160 1021 149 985 q 181 1095 171 1057 q 196 1164 191 1133 l 333 1164 m 35 1019 q 83 1002 64 1019 q 102 947 102 985 q 83 893 102 911 q 35 875 64 875 q -13 893 6 875 q -32 947 -32 911 q -13 1002 -32 985 q 35 1019 6 1019 m 355 1019 q 402 1002 382 1019 q 422 947 422 985 q 402 893 422 911 q 355 875 382 875 q 306 893 324 875 q 287 947 287 911 q 306 1002 287 985 q 355 1019 324 1019 z "},"Α":{"ha":899,"x_min":0,"x_max":897,"o":"m 751 0 l 642 295 l 253 295 l 144 0 l 0 0 l 378 996 l 521 996 l 897 0 l 751 0 m 603 416 l 498 708 q 484 753 494 723 q 464 814 474 783 q 448 867 454 846 q 433 809 441 840 q 415 751 424 778 q 401 708 407 724 l 296 416 l 603 416 z "},"Β":{"ha":906,"x_min":133,"x_max":831,"o":"m 133 991 l 420 991 q 705 936 610 991 q 801 745 801 880 q 780 642 801 688 q 719 567 759 597 q 621 526 679 537 l 621 519 q 729 483 682 509 q 804 408 777 456 q 831 283 831 359 q 789 129 831 193 q 668 33 746 66 q 481 0 589 0 l 133 0 l 133 991 m 272 574 l 445 574 q 611 614 565 574 q 657 728 657 653 q 602 841 657 806 q 428 875 547 875 l 272 875 l 272 574 m 272 460 l 272 117 l 461 117 q 634 165 584 117 q 685 295 685 214 q 662 384 685 347 q 589 440 640 420 q 452 460 538 460 l 272 460 z "},"Γ":{"ha":736,"x_min":133,"x_max":707,"o":"m 707 991 l 707 871 l 272 871 l 272 0 l 133 0 l 133 991 l 707 991 z "},"Δ":{"ha":832,"x_min":28,"x_max":803,"o":"m 488 993 l 803 82 l 803 0 l 28 0 l 28 83 l 343 993 l 488 993 m 654 120 l 472 657 q 450 726 461 690 q 430 796 439 762 q 414 855 420 829 q 399 796 408 829 q 380 727 391 762 q 359 661 370 692 l 175 120 l 654 120 z "},"Ε":{"ha":773,"x_min":133,"x_max":690,"o":"m 690 0 l 133 0 l 133 991 l 690 991 l 690 872 l 272 872 l 272 577 l 665 577 l 665 459 l 272 459 l 272 120 l 690 120 l 690 0 z "},"Ζ":{"ha":798,"x_min":48,"x_max":749,"o":"m 749 0 l 48 0 l 48 99 l 567 871 l 65 871 l 65 991 l 735 991 l 735 892 l 216 121 l 749 121 l 749 0 z "},"Η":{"ha":1034,"x_min":133,"x_max":900,"o":"m 900 0 l 761 0 l 761 458 l 272 458 l 272 0 l 133 0 l 133 991 l 272 991 l 272 578 l 761 578 l 761 991 l 900 991 l 900 0 z "},"Θ":{"ha":1086,"x_min":84,"x_max":1003,"o":"m 747 563 l 747 445 l 339 445 l 339 563 l 747 563 m 1003 497 q 974 289 1003 382 q 887 127 945 195 q 744 23 830 60 q 544 -14 659 -14 q 341 23 427 -14 q 197 127 254 60 q 112 290 140 195 q 84 498 84 384 q 134 766 84 651 q 287 944 184 880 q 546 1007 390 1007 q 798 944 696 1007 q 951 767 900 881 q 1003 497 1003 652 m 230 497 q 263 289 230 376 q 367 153 297 201 q 544 105 436 105 q 722 153 653 105 q 824 289 791 201 q 857 497 857 376 q 782 784 857 680 q 546 887 707 887 q 368 840 437 887 q 264 706 298 793 q 230 497 230 618 z "},"Ι":{"ha":406,"x_min":133,"x_max":272,"o":"m 133 0 l 133 991 l 272 991 l 272 0 l 133 0 z "},"Κ":{"ha":869,"x_min":133,"x_max":869,"o":"m 869 0 l 707 0 l 374 466 l 272 379 l 272 0 l 133 0 l 133 991 l 272 991 l 272 507 q 342 588 307 548 q 413 669 378 628 l 697 991 l 857 991 l 474 559 l 869 0 z "},"Λ":{"ha":854,"x_min":0,"x_max":853,"o":"m 500 991 l 853 0 l 709 0 l 491 632 q 467 707 479 668 q 444 785 454 747 q 425 853 433 823 q 408 784 418 822 q 386 707 398 746 q 361 633 374 668 l 144 0 l 0 0 l 352 991 l 500 991 z "},"Μ":{"ha":1264,"x_min":133,"x_max":1131,"o":"m 565 0 l 256 852 l 250 852 q 255 781 252 825 q 259 686 257 737 q 260 585 260 635 l 260 0 l 133 0 l 133 991 l 333 991 l 627 184 l 631 184 l 932 991 l 1131 991 l 1131 0 l 997 0 l 997 593 q 998 687 997 638 q 1002 779 1000 735 q 1006 851 1004 823 l 1000 851 l 684 0 l 565 0 z "},"Ν":{"ha":1067,"x_min":133,"x_max":935,"o":"m 935 0 l 768 0 l 254 812 l 249 812 q 254 732 251 776 q 258 641 256 688 q 260 544 260 593 l 260 0 l 133 0 l 133 991 l 298 991 l 810 183 l 814 183 q 811 257 813 213 q 807 350 809 301 q 806 444 806 399 l 806 991 l 935 991 l 935 0 z "},"Ξ":{"ha":772,"x_min":48,"x_max":724,"o":"m 48 0 l 48 120 l 724 120 l 724 0 l 48 0 m 132 458 l 132 577 l 640 577 l 640 458 l 132 458 m 76 872 l 76 991 l 696 991 l 696 872 l 76 872 z "},"Ο":{"ha":1086,"x_min":84,"x_max":1003,"o":"m 1003 497 q 974 289 1003 382 q 887 127 945 195 q 744 23 830 60 q 544 -14 659 -14 q 341 23 427 -14 q 197 127 254 60 q 112 290 140 195 q 84 498 84 384 q 134 766 84 651 q 287 944 184 880 q 546 1007 390 1007 q 798 944 696 1007 q 951 767 900 881 q 1003 497 1003 652 m 230 497 q 263 289 230 376 q 367 153 297 201 q 544 105 436 105 q 722 153 653 105 q 824 289 791 201 q 857 497 857 376 q 782 784 857 680 q 546 887 707 887 q 368 840 437 887 q 264 706 298 793 q 230 497 230 618 z "},"Π":{"ha":1017,"x_min":133,"x_max":883,"o":"m 133 0 l 133 991 l 883 991 l 883 0 l 745 0 l 745 871 l 272 871 l 272 0 l 133 0 z "},"Ρ":{"ha":845,"x_min":133,"x_max":775,"o":"m 406 991 q 687 915 598 991 q 775 697 775 838 q 755 576 775 633 q 689 475 734 519 q 568 406 643 431 q 385 380 494 380 l 272 380 l 272 0 l 133 0 l 133 991 l 406 991 m 395 875 l 272 875 l 272 498 l 370 498 q 515 517 456 498 q 603 579 573 536 q 633 692 633 622 q 575 829 633 784 q 395 875 517 875 z "},"Σ":{"ha":796,"x_min":50,"x_max":761,"o":"m 50 0 l 50 113 l 379 519 l 58 880 l 58 991 l 721 991 l 721 871 l 372 871 q 320 871 350 871 q 261 872 290 871 q 214 874 233 873 l 531 520 l 199 117 q 300 119 250 118 q 402 120 350 120 l 761 120 l 761 0 l 50 0 z "},"Τ":{"ha":775,"x_min":16,"x_max":758,"o":"m 457 0 l 317 0 l 317 871 l 16 871 l 16 991 l 758 991 l 758 871 l 457 871 l 457 0 z "},"Υ":{"ha":799,"x_min":0,"x_max":799,"o":"m 400 517 l 650 991 l 799 991 l 469 385 l 469 0 l 330 0 l 330 379 l 0 991 l 152 991 l 400 517 z "},"Φ":{"ha":1128,"x_min":69,"x_max":1059,"o":"m 630 1006 l 630 884 q 883 831 789 881 q 1018 699 977 781 q 1059 515 1059 617 q 1037 380 1059 446 q 966 260 1015 314 q 834 174 917 207 q 630 139 752 141 l 630 -14 l 498 -14 l 498 139 q 291 175 374 141 q 159 263 208 209 q 90 382 111 317 q 69 514 69 448 q 92 654 69 589 q 165 771 115 720 q 297 852 215 822 q 498 884 379 882 l 498 1006 l 630 1006 m 498 770 q 327 734 391 766 q 234 647 262 703 q 206 515 206 591 q 237 378 206 436 q 333 287 269 319 q 498 251 397 254 l 498 770 m 630 770 l 630 251 q 797 288 733 254 q 891 379 861 321 q 922 517 922 438 q 893 648 922 592 q 802 735 865 703 q 630 770 738 766 z "},"Χ":{"ha":833,"x_min":3,"x_max":830,"o":"m 830 0 l 671 0 l 413 421 l 151 0 l 3 0 l 333 515 l 26 991 l 180 991 l 419 606 l 658 991 l 806 991 l 498 514 l 830 0 z "},"Ψ":{"ha":1135,"x_min":75,"x_max":1058,"o":"m 1058 991 l 1058 666 q 1037 520 1058 587 q 967 404 1016 453 q 835 328 918 355 q 631 300 753 300 l 631 0 l 499 0 l 499 300 q 294 328 376 300 q 164 406 212 356 q 96 521 116 455 q 75 664 75 587 l 75 991 l 211 991 l 211 667 q 241 524 211 579 q 336 444 272 469 q 499 418 399 418 l 499 991 l 631 991 l 631 418 q 794 444 730 418 q 889 524 859 470 q 920 665 920 578 l 920 991 l 1058 991 z "},"Ω":{"ha":1086,"x_min":50,"x_max":1038,"o":"m 543 887 q 370 847 439 887 q 266 732 300 807 q 231 553 231 658 q 253 382 231 460 q 325 238 275 304 q 456 117 374 172 l 456 0 l 50 0 l 50 121 l 303 121 q 192 230 241 165 q 114 379 142 294 q 85 566 85 464 q 140 800 85 701 q 297 953 195 899 q 543 1007 399 1007 q 791 953 688 1007 q 948 801 894 899 q 1002 567 1002 702 q 974 379 1002 464 q 896 230 945 294 q 784 121 847 165 l 1038 121 l 1038 0 l 631 0 l 631 117 q 763 238 713 172 q 836 383 813 304 q 858 553 858 462 q 823 733 858 659 q 717 847 787 808 q 543 887 647 887 z "},"Ϊ":{"ha":406,"x_min":3,"x_max":406,"o":"m 133 0 l 133 991 l 272 991 l 272 0 l 133 0 m 2 1192 q 22 1247 2 1230 q 72 1264 43 1264 q 122 1247 101 1264 q 142 1192 142 1230 q 122 1138 142 1156 q 72 1120 101 1120 q 22 1138 43 1120 q 2 1192 2 1156 m 266 1192 q 286 1247 266 1230 q 335 1264 306 1264 q 385 1247 364 1264 q 406 1192 406 1230 q 385 1138 406 1156 q 335 1120 364 1120 q 286 1138 306 1120 q 266 1192 266 1156 z "},"Ϋ":{"ha":799,"x_min":0,"x_max":799,"o":"m 400 517 l 650 991 l 799 991 l 469 385 l 469 0 l 330 0 l 330 379 l 0 991 l 152 991 l 400 517 m 197 1192 q 218 1247 197 1230 q 267 1264 238 1264 q 317 1247 296 1264 q 338 1192 338 1230 q 317 1138 338 1156 q 267 1120 296 1120 q 218 1138 238 1120 q 197 1192 197 1156 m 461 1192 q 481 1247 461 1230 q 530 1264 501 1264 q 581 1247 559 1264 q 602 1192 602 1230 q 581 1138 602 1156 q 530 1120 559 1120 q 481 1138 501 1120 q 461 1192 461 1156 z "},"ά":{"ha":861,"x_min":74,"x_max":839,"o":"m 406 98 q 523 126 479 98 q 586 214 566 155 q 607 364 606 273 l 607 374 q 563 578 607 509 q 406 648 519 648 q 261 576 308 648 q 214 370 214 505 q 260 166 214 235 q 406 98 307 98 m 377 -14 q 157 83 240 -14 q 74 371 74 180 q 157 660 74 560 q 389 760 241 760 q 526 731 471 760 q 615 644 581 701 l 624 644 q 641 697 629 669 q 667 747 652 726 l 777 747 q 758 668 766 716 q 744 564 749 620 q 739 455 739 509 l 739 183 q 755 117 739 136 q 797 99 772 99 q 820 101 808 99 q 839 106 833 104 l 839 3 q 819 -4 832 -1 q 790 -11 806 -8 q 760 -14 774 -14 q 668 12 703 -14 q 618 104 633 37 l 608 104 q 557 45 587 72 q 483 2 527 18 q 377 -14 439 -14 m 374 842 l 374 861 q 393 918 384 886 q 411 985 403 950 q 426 1054 419 1020 q 436 1115 433 1087 l 575 1115 l 575 1100 q 547 1022 566 1067 q 504 929 528 977 q 456 842 481 882 l 374 842 z "},"έ":{"ha":690,"x_min":58,"x_max":642,"o":"m 508 442 l 508 337 l 405 337 q 286 323 333 337 q 217 282 239 310 q 194 214 194 254 q 218 146 194 172 q 286 108 242 120 q 390 96 330 96 q 530 113 468 96 q 640 153 593 131 l 640 37 q 531 0 595 14 q 382 -14 468 -14 q 137 48 215 -14 q 58 203 58 109 q 107 328 58 286 q 229 387 157 369 l 229 394 q 125 455 162 412 q 88 564 88 497 q 127 673 88 629 q 232 739 165 717 q 382 761 298 761 q 524 747 461 761 q 642 708 586 733 l 594 603 q 498 638 548 624 q 383 652 448 652 q 258 627 300 652 q 216 551 216 601 q 271 468 216 493 q 424 442 326 442 l 508 442 m 327 842 l 327 861 q 346 918 336 886 q 363 985 355 950 q 378 1054 372 1020 q 389 1115 385 1087 l 528 1115 l 528 1100 q 499 1022 519 1067 q 457 929 480 977 q 409 842 433 882 l 327 842 z "},"ή":{"ha":867,"x_min":116,"x_max":756,"o":"m 488 761 q 634 732 574 761 q 725 644 694 704 q 756 487 756 583 l 756 -334 l 621 -334 l 621 469 q 582 603 621 558 q 461 648 543 648 q 339 618 385 648 q 273 528 293 587 q 252 381 252 468 l 252 0 l 116 0 l 116 747 l 224 747 l 243 642 l 251 642 q 311 708 275 682 q 393 748 348 734 q 488 761 438 761 m 397 842 l 397 861 q 416 918 406 886 q 433 985 425 950 q 448 1054 441 1020 q 458 1115 455 1087 l 597 1115 l 597 1100 q 569 1022 589 1067 q 527 929 550 977 q 479 842 503 882 l 397 842 z "},"ί":{"ha":495,"x_min":113,"x_max":469,"o":"m 248 747 l 248 222 q 274 128 248 159 q 354 97 300 97 q 416 102 385 97 q 469 115 448 108 l 469 10 q 409 -7 448 0 q 331 -14 370 -14 q 218 7 267 -14 q 141 79 169 28 q 113 220 113 130 l 113 747 l 248 747 m 130 842 l 130 861 q 149 918 139 886 q 166 985 158 950 q 181 1054 174 1020 q 191 1115 188 1087 l 330 1115 l 330 1100 q 302 1022 321 1067 q 259 929 283 977 q 212 842 236 882 l 130 842 z "},"ΰ":{"ha":859,"x_min":107,"x_max":783,"o":"m 429 -13 q 235 33 305 -13 q 136 158 165 79 q 107 338 107 238 l 107 747 l 243 747 l 243 340 q 290 160 243 223 q 437 97 336 97 q 594 173 543 97 q 646 412 646 249 q 634 584 646 506 q 601 747 623 662 l 738 747 q 763 638 753 691 q 778 530 772 586 q 783 407 783 474 q 693 90 783 192 q 429 -13 604 -13 m 573 1164 l 573 1150 q 539 1085 559 1121 q 493 1012 518 1049 q 443 941 469 975 l 378 941 l 378 957 q 400 1021 389 985 q 421 1095 411 1057 q 436 1164 431 1133 l 573 1164 m 275 1019 q 323 1002 304 1019 q 342 947 342 985 q 323 893 342 911 q 275 875 304 875 q 227 893 246 875 q 208 947 208 911 q 227 1002 208 985 q 275 1019 246 1019 m 595 1019 q 643 1002 623 1019 q 663 947 663 985 q 643 893 663 911 q 595 875 623 875 q 546 893 564 875 q 527 947 527 911 q 546 1002 527 985 q 595 1019 564 1019 z "},"α":{"ha":861,"x_min":74,"x_max":839,"o":"m 406 98 q 523 126 479 98 q 586 214 566 155 q 607 364 606 273 l 607 374 q 563 578 607 509 q 406 648 519 648 q 261 576 308 648 q 214 370 214 505 q 260 166 214 235 q 406 98 307 98 m 377 -14 q 157 83 240 -14 q 74 371 74 180 q 157 660 74 560 q 389 760 241 760 q 526 731 471 760 q 615 644 581 701 l 624 644 q 641 697 629 669 q 667 747 652 726 l 777 747 q 758 668 766 716 q 744 564 749 620 q 739 455 739 509 l 739 183 q 755 117 739 136 q 797 99 772 99 q 820 101 808 99 q 839 106 833 104 l 839 3 q 819 -4 832 -1 q 790 -11 806 -8 q 760 -14 774 -14 q 668 12 703 -14 q 618 104 633 37 l 608 104 q 557 45 587 72 q 483 2 527 18 q 377 -14 439 -14 z "},"β":{"ha":882,"x_min":116,"x_max":823,"o":"m 454 1063 q 621 1033 549 1063 q 735 945 694 1004 q 777 798 777 886 q 723 639 777 699 q 570 564 670 580 l 570 558 q 758 477 692 544 q 823 286 823 411 q 782 124 823 191 q 666 22 741 57 q 486 -13 591 -13 q 354 0 410 -13 q 253 36 298 13 l 253 -334 l 116 -334 l 116 744 q 160 925 116 854 q 280 1029 203 996 q 454 1063 357 1063 m 451 951 q 352 932 397 951 q 280 865 307 912 q 253 734 253 818 l 253 155 q 351 113 298 129 q 466 98 403 98 q 631 150 578 98 q 684 296 684 201 q 656 409 684 365 q 576 474 627 453 q 456 495 525 495 l 388 495 l 388 608 l 443 608 q 590 657 543 608 q 637 788 637 706 q 587 910 637 869 q 451 951 536 951 z "},"γ":{"ha":730,"x_min":5,"x_max":724,"o":"m 724 747 l 448 20 q 411 -101 427 -37 q 388 -225 396 -165 q 380 -334 380 -286 l 234 -334 q 243 -234 234 -294 q 268 -111 252 -175 q 304 9 283 -47 l 5 747 l 146 747 l 298 359 q 326 279 311 323 q 353 195 341 235 q 369 130 365 155 l 374 130 q 389 192 378 152 q 413 275 399 231 q 439 352 427 319 l 582 747 l 724 747 z "},"δ":{"ha":840,"x_min":73,"x_max":768,"o":"m 450 1058 q 611 1036 543 1058 q 740 985 680 1014 l 683 882 q 570 931 628 911 q 445 950 512 950 q 352 923 382 950 q 323 857 323 895 q 342 798 323 825 q 402 744 361 772 q 510 680 444 715 q 651 585 593 635 q 738 473 708 534 q 768 331 768 411 q 724 141 768 218 q 602 25 681 64 q 418 -14 524 -14 q 239 23 317 -14 q 117 129 161 59 q 73 296 73 198 q 110 453 73 387 q 211 564 146 519 q 359 632 276 608 q 269 695 308 662 q 209 769 231 728 q 188 861 188 810 q 262 1008 188 958 q 450 1058 336 1058 m 456 574 q 345 529 401 559 q 251 442 289 498 q 214 298 214 387 q 238 194 214 239 q 308 124 262 149 q 418 98 354 98 q 532 125 485 98 q 603 202 578 151 q 627 327 627 254 q 582 475 627 417 q 456 574 536 532 z "},"ε":{"ha":690,"x_min":58,"x_max":642,"o":"m 508 442 l 508 337 l 405 337 q 286 323 333 337 q 217 282 239 310 q 194 214 194 254 q 218 146 194 172 q 286 108 242 120 q 390 96 330 96 q 530 113 468 96 q 640 153 593 131 l 640 37 q 531 0 595 14 q 382 -14 468 -14 q 137 48 215 -14 q 58 203 58 109 q 107 328 58 286 q 229 387 157 369 l 229 394 q 125 455 162 412 q 88 564 88 497 q 127 673 88 629 q 232 739 165 717 q 382 761 298 761 q 524 747 461 761 q 642 708 586 733 l 594 603 q 498 638 548 624 q 383 652 448 652 q 258 627 300 652 q 216 551 216 601 q 271 468 216 493 q 424 442 326 442 l 508 442 z "},"ζ":{"ha":674,"x_min":74,"x_max":644,"o":"m 644 -52 q 616 -167 644 -112 q 555 -267 589 -222 l 419 -267 q 463 -202 443 -236 q 496 -137 484 -169 q 509 -81 509 -105 q 497 -46 509 -62 q 452 -18 486 -31 q 350 7 418 -5 q 199 60 260 24 q 105 159 137 97 q 74 313 74 222 q 106 496 74 412 q 195 657 138 581 q 326 806 252 734 q 485 954 400 879 q 444 951 474 952 q 374 948 414 949 q 297 947 335 947 l 115 947 l 115 1055 l 644 1055 l 644 961 q 417 748 502 842 q 288 578 332 654 q 229 439 244 502 q 214 321 214 376 q 241 204 214 245 q 318 145 268 164 q 440 111 369 125 q 558 74 514 96 q 623 21 603 52 q 644 -52 644 -10 z "},"η":{"ha":867,"x_min":116,"x_max":756,"o":"m 488 761 q 634 732 574 761 q 725 644 694 704 q 756 487 756 583 l 756 -334 l 621 -334 l 621 469 q 582 603 621 558 q 461 648 543 648 q 339 618 385 648 q 273 528 293 587 q 252 381 252 468 l 252 0 l 116 0 l 116 747 l 224 747 l 243 642 l 251 642 q 311 708 275 682 q 393 748 348 734 q 488 761 438 761 z "},"θ":{"ha":830,"x_min":73,"x_max":757,"o":"m 757 526 q 722 235 757 355 q 612 51 688 115 q 413 -14 536 -14 q 156 129 239 -14 q 73 526 73 271 q 108 816 73 696 q 217 1000 142 937 q 413 1064 292 1064 q 672 924 587 1064 q 757 526 757 783 m 413 93 q 565 190 516 93 q 618 482 614 288 l 212 482 q 261 191 214 290 q 413 93 309 93 m 414 957 q 266 865 313 957 q 212 591 218 773 l 617 591 q 563 865 611 773 q 414 957 515 957 z "},"ι":{"ha":495,"x_min":113,"x_max":469,"o":"m 248 747 l 248 222 q 274 128 248 159 q 354 97 300 97 q 416 102 385 97 q 469 115 448 108 l 469 10 q 409 -7 448 0 q 331 -14 370 -14 q 218 7 267 -14 q 141 79 169 28 q 113 220 113 130 l 113 747 l 248 747 z "},"κ":{"ha":763,"x_min":116,"x_max":755,"o":"m 732 747 l 447 414 l 755 0 l 595 0 l 355 329 l 258 251 l 258 0 l 116 0 l 116 747 l 258 747 l 258 552 q 255 449 257 500 q 250 364 254 398 l 253 364 q 287 406 269 385 q 319 448 304 427 l 575 747 l 732 747 z "},"λ":{"ha":771,"x_min":-5,"x_max":770,"o":"m -5 0 l 316 728 l 281 826 q 228 920 256 890 q 142 950 200 950 q 101 947 119 950 q 68 941 82 945 l 68 1053 q 96 1058 80 1056 q 129 1062 112 1061 q 163 1064 146 1064 q 282 1039 236 1064 q 358 964 328 1015 q 416 836 389 913 l 648 189 q 672 136 660 155 q 698 108 684 117 q 728 100 711 100 q 750 102 739 100 q 770 106 762 104 l 770 3 q 746 -5 760 -1 q 716 -11 732 -9 q 684 -14 700 -14 q 618 -1 646 -14 q 572 39 591 12 q 538 107 553 66 l 439 386 q 422 436 431 410 q 404 490 413 463 q 389 540 395 516 q 378 582 382 564 l 373 582 q 343 489 361 539 q 306 392 326 439 l 136 0 l -5 0 z "},"μ":{"ha":873,"x_min":116,"x_max":757,"o":"m 757 747 l 757 0 l 649 0 l 629 103 l 622 103 q 570 40 600 66 q 500 0 540 14 q 410 -14 460 -14 q 316 4 355 -14 q 251 53 277 22 l 246 53 q 250 11 248 37 q 252 -45 251 -14 q 252 -109 252 -76 l 252 -334 l 116 -334 l 116 747 l 252 747 l 252 276 q 292 143 252 189 q 414 98 332 98 q 537 129 492 98 q 602 219 583 159 q 621 364 621 279 l 621 747 l 757 747 z "},"ν":{"ha":770,"x_min":1,"x_max":715,"o":"m 1 747 l 142 747 l 298 321 q 321 255 308 294 q 346 179 334 216 q 364 118 358 142 l 370 118 q 493 294 448 200 q 559 500 539 388 q 579 747 579 612 l 715 747 q 688 472 715 600 q 596 230 661 345 q 417 0 532 114 l 280 0 l 1 747 z "},"ξ":{"ha":667,"x_min":73,"x_max":643,"o":"m 73 290 q 99 409 73 357 q 171 496 126 461 q 269 549 215 532 l 269 557 q 189 593 222 569 q 137 654 155 617 q 119 743 119 691 q 145 846 119 805 q 218 913 172 888 q 323 955 264 939 q 272 951 302 953 q 211 948 242 949 q 153 947 179 947 l 115 947 l 115 1055 l 608 1055 l 608 954 l 567 954 q 452 942 509 954 q 351 904 396 929 q 279 839 306 878 q 252 748 252 800 q 301 641 252 677 q 472 604 351 604 l 585 604 l 585 504 l 469 504 q 329 478 386 504 q 243 406 272 452 q 214 299 214 360 q 242 195 214 231 q 321 143 270 160 q 444 111 373 125 q 561 73 517 96 q 624 19 605 50 q 643 -52 643 -12 q 616 -166 643 -111 q 558 -267 589 -222 l 425 -267 q 469 -202 449 -235 q 500 -137 488 -168 q 511 -80 511 -105 q 500 -46 511 -62 q 455 -18 490 -31 q 352 8 421 -5 q 199 59 261 24 q 105 151 137 94 q 73 290 73 208 z "},"ο":{"ha":842,"x_min":74,"x_max":769,"o":"m 769 375 q 745 211 769 283 q 675 89 721 138 q 565 13 629 39 q 419 -14 500 -14 q 280 13 343 -14 q 170 89 216 39 q 99 211 124 138 q 74 375 74 283 q 116 584 74 498 q 236 716 158 671 q 423 761 315 761 q 604 715 526 761 q 726 584 682 670 q 769 375 769 498 m 214 375 q 236 227 214 289 q 303 132 258 165 q 422 98 349 98 q 539 132 493 98 q 607 227 585 165 q 629 375 629 289 q 607 522 629 460 q 539 615 585 583 q 420 648 494 648 q 263 576 313 648 q 214 375 214 505 z "},"π":{"ha":935,"x_min":17,"x_max":890,"o":"m 806 96 q 843 101 826 96 q 873 113 861 106 l 873 8 q 831 -7 859 0 q 769 -14 804 -14 q 647 33 690 -14 q 604 172 604 79 l 604 637 l 305 637 l 305 0 l 170 0 l 170 637 l 17 637 l 17 697 l 123 747 l 890 747 l 890 637 l 740 637 l 740 181 q 758 116 740 135 q 806 96 777 96 z "},"ρ":{"ha":841,"x_min":104,"x_max":768,"o":"m 768 374 q 729 162 768 249 q 617 31 690 75 q 444 -14 545 -14 q 334 3 387 -14 q 242 47 281 19 l 234 47 q 239 -28 237 20 q 241 -134 241 -77 l 241 -334 l 104 -334 l 104 382 q 144 592 104 508 q 260 718 184 675 q 440 761 336 761 q 611 716 537 761 q 726 585 685 671 q 768 374 768 499 m 435 648 q 289 582 337 648 q 241 383 241 517 l 241 165 q 329 115 279 132 q 433 98 379 98 q 582 167 536 98 q 628 374 628 235 q 583 581 628 513 q 435 648 538 648 z "},"ς":{"ha":675,"x_min":74,"x_max":645,"o":"m 435 761 q 547 749 492 761 q 645 718 602 737 l 604 608 q 519 634 563 623 q 431 646 476 646 q 265 570 316 646 q 214 351 214 495 q 235 229 214 273 q 306 159 256 184 q 443 115 356 134 q 561 77 517 100 q 624 22 605 54 q 643 -50 643 -9 q 616 -167 643 -110 q 558 -267 589 -224 l 425 -267 q 469 -201 449 -235 q 500 -135 488 -168 q 513 -77 513 -103 q 501 -43 513 -58 q 456 -14 490 -27 q 354 13 422 0 q 241 49 292 25 q 152 113 189 73 q 94 211 115 153 q 74 349 74 269 q 119 585 74 494 q 245 718 164 675 q 435 761 327 761 z "},"σ":{"ha":864,"x_min":74,"x_max":831,"o":"m 770 338 q 730 158 770 237 q 612 33 690 79 q 419 -14 534 -14 q 237 30 315 -14 q 116 155 159 73 q 74 358 74 238 q 123 582 74 496 q 264 708 172 668 q 483 747 356 747 l 831 747 l 831 639 l 649 639 q 736 511 703 585 q 770 338 770 437 m 214 358 q 236 223 214 281 q 303 132 257 165 q 422 98 349 98 q 581 167 532 98 q 631 344 631 235 q 618 456 631 404 q 581 554 606 509 q 522 639 557 600 l 479 639 q 279 575 345 639 q 214 358 214 511 z "},"τ":{"ha":680,"x_min":17,"x_max":637,"o":"m 637 747 l 637 637 l 353 637 l 353 229 q 386 126 353 157 q 476 96 420 96 q 540 100 508 96 q 596 113 572 105 l 596 10 q 535 -7 574 1 q 452 -14 496 -14 q 333 6 387 -14 q 247 77 279 26 q 215 220 215 128 l 215 637 l 17 637 l 17 697 l 123 747 l 637 747 z "},"υ":{"ha":859,"x_min":107,"x_max":783,"o":"m 429 -13 q 235 33 305 -13 q 136 158 165 79 q 107 338 107 238 l 107 747 l 243 747 l 243 340 q 290 160 243 223 q 437 97 336 97 q 594 173 543 97 q 646 412 646 249 q 634 584 646 506 q 601 747 623 662 l 738 747 q 763 638 753 691 q 778 530 772 586 q 783 407 783 474 q 693 90 783 192 q 429 -13 604 -13 z "},"φ":{"ha":1022,"x_min":74,"x_max":948,"o":"m 219 757 l 321 687 q 238 544 269 618 q 207 372 207 469 q 237 220 207 279 q 320 133 268 162 q 437 97 372 104 l 437 502 q 498 694 437 629 q 665 760 560 760 q 817 715 753 760 q 914 587 880 669 q 948 393 948 505 q 896 174 948 262 q 757 41 844 87 q 567 -12 670 -5 l 567 -334 l 437 -334 l 437 -12 q 249 37 331 -4 q 120 162 167 79 q 74 376 74 245 q 115 585 74 491 q 219 757 155 680 m 667 652 q 595 619 624 652 q 567 503 567 585 l 567 97 q 694 138 639 103 q 781 237 749 174 q 813 392 813 301 q 795 531 813 473 q 745 621 778 589 q 667 652 712 652 z "},"χ":{"ha":772,"x_min":-16,"x_max":768,"o":"m 130 753 q 210 734 179 753 q 263 678 241 715 q 305 585 285 641 l 394 354 l 604 747 l 745 747 l 452 227 l 585 -104 q 616 -170 600 -144 q 654 -208 633 -195 q 705 -220 675 -220 q 738 -218 722 -220 q 768 -214 753 -216 l 768 -319 q 728 -330 750 -326 q 673 -334 705 -334 q 575 -312 614 -334 q 510 -248 536 -290 q 462 -146 484 -206 l 366 113 l 130 -334 l -16 -334 l 304 243 l 191 534 q 148 614 172 587 q 91 641 125 641 q 63 639 77 641 q 37 632 50 637 l 37 740 q 78 749 55 745 q 130 753 100 753 z "},"ψ":{"ha":1076,"x_min":107,"x_max":994,"o":"m 607 1054 l 607 100 q 745 139 688 106 q 833 233 802 171 q 863 392 863 296 q 851 570 863 487 q 816 747 838 652 l 948 747 q 982 570 971 654 q 994 395 994 487 q 943 166 994 254 q 804 37 892 79 q 607 -12 717 -5 l 607 -334 l 477 -334 l 477 -12 q 284 32 368 -7 q 154 155 201 71 q 107 375 107 239 l 107 747 l 240 747 l 240 372 q 270 215 240 273 q 353 130 300 157 q 477 98 406 103 l 477 1054 l 607 1054 z "},"ω":{"ha":1106,"x_min":77,"x_max":1029,"o":"m 947 747 q 993 622 975 683 q 1020 498 1011 561 q 1029 361 1029 435 q 998 167 1029 252 q 907 34 968 82 q 756 -14 847 -14 q 628 20 676 -14 q 555 117 579 54 l 549 117 q 478 20 527 54 q 350 -14 429 -14 q 200 34 261 -14 q 108 165 139 81 q 77 361 77 250 q 86 498 77 435 q 113 622 95 561 q 159 747 131 682 l 294 747 q 230 561 251 651 q 210 362 210 471 q 249 165 210 234 q 359 97 288 97 q 433 120 405 97 q 475 183 462 142 q 489 277 489 224 l 489 488 l 617 488 l 617 277 q 631 179 617 220 q 674 118 646 139 q 745 97 703 97 q 828 128 794 97 q 879 218 861 159 q 897 361 897 277 q 876 561 897 470 q 811 747 855 651 l 947 747 z "},"ϊ":{"ha":495,"x_min":-14,"x_max":469,"o":"m 248 747 l 248 222 q 274 128 248 159 q 354 97 300 97 q 416 102 385 97 q 469 115 448 108 l 469 10 q 409 -7 448 0 q 331 -14 370 -14 q 218 7 267 -14 q 141 79 169 28 q 113 220 113 130 l 113 747 l 248 747 m -14 947 q 6 1002 -14 985 q 56 1019 26 1019 q 105 1002 85 1019 q 126 947 126 985 q 105 893 126 911 q 56 875 85 875 q 6 893 26 875 q -14 947 -14 911 m 250 947 q 270 1002 250 985 q 319 1019 290 1019 q 369 1002 348 1019 q 390 947 390 985 q 369 893 390 911 q 319 875 348 875 q 270 893 290 875 q 250 947 250 911 z "},"ϋ":{"ha":859,"x_min":107,"x_max":783,"o":"m 429 -13 q 235 33 305 -13 q 136 158 165 79 q 107 338 107 238 l 107 747 l 243 747 l 243 340 q 290 160 243 223 q 437 97 336 97 q 594 173 543 97 q 646 412 646 249 q 634 584 646 506 q 601 747 623 662 l 738 747 q 763 638 753 691 q 778 530 772 586 q 783 407 783 474 q 693 90 783 192 q 429 -13 604 -13 m 226 947 q 246 1002 226 985 q 296 1019 267 1019 q 346 1002 325 1019 q 366 947 366 985 q 346 893 366 911 q 296 875 325 875 q 246 893 267 875 q 226 947 226 911 m 490 947 q 510 1002 490 985 q 559 1019 530 1019 q 609 1002 588 1019 q 630 947 630 985 q 609 893 630 911 q 559 875 588 875 q 510 893 530 875 q 490 947 490 911 z "},"ό":{"ha":842,"x_min":74,"x_max":769,"o":"m 769 375 q 745 211 769 283 q 675 89 721 138 q 565 13 629 39 q 419 -14 500 -14 q 280 13 343 -14 q 170 89 216 39 q 99 211 124 138 q 74 375 74 283 q 116 584 74 498 q 236 716 158 671 q 423 761 315 761 q 604 715 526 761 q 726 584 682 670 q 769 375 769 498 m 214 375 q 236 227 214 289 q 303 132 258 165 q 422 98 349 98 q 539 132 493 98 q 607 227 585 165 q 629 375 629 289 q 607 522 629 460 q 539 615 585 583 q 420 648 494 648 q 263 576 313 648 q 214 375 214 505 m 363 842 l 363 861 q 382 918 372 886 q 399 985 391 950 q 414 1054 408 1020 q 425 1115 421 1087 l 564 1115 l 564 1100 q 535 1022 555 1067 q 493 929 516 977 q 445 842 469 882 l 363 842 z "},"ύ":{"ha":859,"x_min":107,"x_max":783,"o":"m 429 -13 q 235 33 305 -13 q 136 158 165 79 q 107 338 107 238 l 107 747 l 243 747 l 243 340 q 290 160 243 223 q 437 97 336 97 q 594 173 543 97 q 646 412 646 249 q 634 584 646 506 q 601 747 623 662 l 738 747 q 763 638 753 691 q 778 530 772 586 q 783 407 783 474 q 693 90 783 192 q 429 -13 604 -13 m 370 842 l 370 861 q 389 918 379 886 q 406 985 398 950 q 421 1054 414 1020 q 431 1115 428 1087 l 570 1115 l 570 1100 q 542 1022 562 1067 q 499 929 523 977 q 452 842 476 882 l 370 842 z "},"ώ":{"ha":1106,"x_min":77,"x_max":1029,"o":"m 947 747 q 993 622 975 683 q 1020 498 1011 561 q 1029 361 1029 435 q 998 167 1029 252 q 907 34 968 82 q 756 -14 847 -14 q 628 20 676 -14 q 555 117 579 54 l 549 117 q 478 20 527 54 q 350 -14 429 -14 q 200 34 261 -14 q 108 165 139 81 q 77 361 77 250 q 86 498 77 435 q 113 622 95 561 q 159 747 131 682 l 294 747 q 230 561 251 651 q 210 362 210 471 q 249 165 210 234 q 359 97 288 97 q 433 120 405 97 q 475 183 462 142 q 489 277 489 224 l 489 488 l 617 488 l 617 277 q 631 179 617 220 q 674 118 646 139 q 745 97 703 97 q 828 128 794 97 q 879 218 861 159 q 897 361 897 277 q 876 561 897 470 q 811 747 855 651 l 947 747 m 494 842 l 494 861 q 513 918 504 886 q 531 985 523 950 q 546 1054 539 1020 q 556 1115 553 1087 l 695 1115 l 695 1100 q 667 1022 686 1067 q 624 929 648 977 q 576 842 601 882 l 494 842 z "},"Ё":{"ha":773,"x_min":133,"x_max":690,"o":"m 690 0 l 133 0 l 133 991 l 690 991 l 690 872 l 272 872 l 272 577 l 665 577 l 665 459 l 272 459 l 272 120 l 690 120 l 690 0 m 220 1192 q 241 1247 220 1230 q 290 1264 261 1264 q 340 1247 319 1264 q 361 1192 361 1230 q 340 1138 361 1156 q 290 1120 319 1120 q 241 1138 261 1120 q 220 1192 220 1156 m 484 1192 q 504 1247 484 1230 q 553 1264 524 1264 q 604 1247 583 1264 q 625 1192 625 1230 q 604 1138 625 1156 q 553 1120 583 1120 q 504 1138 524 1120 q 484 1192 484 1156 z "},"Ђ":{"ha":1044,"x_min":16,"x_max":945,"o":"m 690 -13 q 627 -8 657 -13 q 577 5 597 -3 l 577 123 q 626 111 601 115 q 681 106 651 106 q 741 118 712 106 q 789 161 770 130 q 808 253 808 193 l 808 343 q 769 457 808 420 q 642 493 731 493 l 389 493 l 389 0 l 252 0 l 252 871 l 16 871 l 16 991 l 696 991 l 696 871 l 389 871 l 389 613 l 650 613 q 869 547 793 613 q 945 357 945 481 l 945 262 q 876 56 945 125 q 690 -13 806 -13 z "},"Ѓ":{"ha":736,"x_min":133,"x_max":707,"o":"m 707 991 l 707 871 l 272 871 l 272 0 l 133 0 l 133 991 l 707 991 m 643 1309 l 643 1295 q 603 1248 628 1276 q 547 1191 577 1221 q 486 1133 516 1160 q 430 1086 455 1106 l 339 1086 l 339 1103 q 388 1165 361 1129 q 440 1239 414 1201 q 483 1309 466 1278 l 643 1309 z "},"Є":{"ha":901,"x_min":84,"x_max":859,"o":"m 566 886 q 437 865 496 886 q 335 805 378 845 q 266 707 292 765 q 233 571 240 648 l 709 571 l 709 453 l 230 453 q 256 306 233 370 q 321 197 279 241 q 424 129 363 153 q 565 106 485 106 q 696 118 633 106 q 822 149 759 130 l 822 29 q 697 -3 764 7 q 551 -14 631 -14 q 287 50 390 -14 q 134 229 183 114 q 84 496 84 343 q 116 704 84 610 q 209 865 147 798 q 362 970 271 933 q 571 1007 453 1007 q 728 990 659 1007 q 859 944 798 973 l 805 827 q 694 869 752 852 q 566 886 637 886 z "},"Ѕ":{"ha":762,"x_min":69,"x_max":699,"o":"m 699 267 q 655 116 699 178 q 532 20 612 53 q 344 -14 453 -14 q 239 -8 289 -14 q 146 9 189 -2 q 69 36 104 20 l 69 168 q 199 124 125 144 q 352 104 273 104 q 467 123 420 104 q 537 176 513 142 q 561 257 561 210 q 538 337 561 304 q 465 396 515 369 q 334 454 415 423 q 232 500 278 474 q 152 560 186 526 q 100 640 119 594 q 82 745 82 686 q 122 886 82 827 q 235 975 163 944 q 404 1006 308 1006 q 550 990 482 1006 q 680 947 618 975 l 636 832 q 520 871 578 856 q 399 886 462 886 q 302 869 342 886 q 242 821 262 852 q 221 747 221 789 q 243 667 221 699 q 311 609 264 635 q 433 554 358 583 q 577 485 518 522 q 668 397 637 448 q 699 267 699 345 z "},"І":{"ha":406,"x_min":133,"x_max":272,"o":"m 133 0 l 133 991 l 272 991 l 272 0 l 133 0 z "},"Ї":{"ha":406,"x_min":3,"x_max":406,"o":"m 133 0 l 133 991 l 272 991 l 272 0 l 133 0 m 2 1192 q 22 1247 2 1230 q 72 1264 43 1264 q 122 1247 101 1264 q 142 1192 142 1230 q 122 1138 142 1156 q 72 1120 101 1120 q 22 1138 43 1120 q 2 1192 2 1156 m 266 1192 q 286 1247 266 1230 q 335 1264 306 1264 q 385 1247 364 1264 q 406 1192 406 1230 q 385 1138 406 1156 q 335 1120 364 1120 q 286 1138 306 1120 q 266 1192 266 1156 z "},"Ј":{"ha":395,"x_min":-109,"x_max":268,"o":"m 0 -269 q -63 -264 -36 -269 q -109 -252 -90 -259 l -109 -134 q -62 -144 -87 -140 q -9 -149 -37 -149 q 60 -134 29 -149 q 110 -82 92 -119 q 128 20 128 -45 l 128 991 l 268 991 l 268 26 q 235 -140 268 -75 q 142 -237 202 -205 q 0 -269 81 -269 z "},"Љ":{"ha":1321,"x_min":3,"x_max":1263,"o":"m 94 -15 q 46 -11 70 -15 q 3 1 22 -6 l 3 117 q 38 105 20 110 q 79 101 57 101 q 140 131 117 101 q 178 211 163 160 q 204 325 192 262 q 224 438 213 370 q 248 594 235 507 q 275 783 261 682 q 303 991 289 884 l 793 991 l 793 580 l 884 580 q 1106 543 1023 580 q 1226 443 1190 507 q 1263 295 1263 378 q 1175 79 1263 158 q 896 0 1086 0 l 655 0 l 655 871 l 419 871 q 403 749 412 813 q 386 621 395 686 q 367 493 376 555 q 349 375 358 431 q 331 275 340 320 q 286 118 313 183 q 214 19 259 54 q 94 -15 168 -15 m 793 117 l 884 117 q 1063 160 1004 117 q 1122 295 1122 203 q 1093 395 1122 358 q 1007 447 1064 431 q 865 462 950 462 l 793 462 l 793 117 z "}}}
